%TF.GenerationSoftware,KiCad,Pcbnew,8.0.3*%
%TF.CreationDate,2025-11-12T17:38:37-08:00*%
%TF.ProjectId,Capstone_Signal_Processing,43617073-746f-46e6-955f-5369676e616c,rev?*%
%TF.SameCoordinates,Original*%
%TF.FileFunction,Legend,Top*%
%TF.FilePolarity,Positive*%
%FSLAX46Y46*%
G04 Gerber Fmt 4.6, Leading zero omitted, Abs format (unit mm)*
G04 Created by KiCad (PCBNEW 8.0.3) date 2025-11-12 17:38:37*
%MOMM*%
%LPD*%
G01*
G04 APERTURE LIST*
%ADD10C,0.150000*%
%ADD11C,0.120000*%
%ADD12C,0.152400*%
%ADD13C,0.000000*%
G04 APERTURE END LIST*
D10*
X132338095Y-85054819D02*
X132338095Y-84054819D01*
X132338095Y-84531009D02*
X132909523Y-84531009D01*
X132909523Y-85054819D02*
X132909523Y-84054819D01*
X133909523Y-85054819D02*
X133338095Y-85054819D01*
X133623809Y-85054819D02*
X133623809Y-84054819D01*
X133623809Y-84054819D02*
X133528571Y-84197676D01*
X133528571Y-84197676D02*
X133433333Y-84292914D01*
X133433333Y-84292914D02*
X133338095Y-84340533D01*
X138633333Y-93559580D02*
X138585714Y-93607200D01*
X138585714Y-93607200D02*
X138442857Y-93654819D01*
X138442857Y-93654819D02*
X138347619Y-93654819D01*
X138347619Y-93654819D02*
X138204762Y-93607200D01*
X138204762Y-93607200D02*
X138109524Y-93511961D01*
X138109524Y-93511961D02*
X138061905Y-93416723D01*
X138061905Y-93416723D02*
X138014286Y-93226247D01*
X138014286Y-93226247D02*
X138014286Y-93083390D01*
X138014286Y-93083390D02*
X138061905Y-92892914D01*
X138061905Y-92892914D02*
X138109524Y-92797676D01*
X138109524Y-92797676D02*
X138204762Y-92702438D01*
X138204762Y-92702438D02*
X138347619Y-92654819D01*
X138347619Y-92654819D02*
X138442857Y-92654819D01*
X138442857Y-92654819D02*
X138585714Y-92702438D01*
X138585714Y-92702438D02*
X138633333Y-92750057D01*
X138966667Y-92654819D02*
X139585714Y-92654819D01*
X139585714Y-92654819D02*
X139252381Y-93035771D01*
X139252381Y-93035771D02*
X139395238Y-93035771D01*
X139395238Y-93035771D02*
X139490476Y-93083390D01*
X139490476Y-93083390D02*
X139538095Y-93131009D01*
X139538095Y-93131009D02*
X139585714Y-93226247D01*
X139585714Y-93226247D02*
X139585714Y-93464342D01*
X139585714Y-93464342D02*
X139538095Y-93559580D01*
X139538095Y-93559580D02*
X139490476Y-93607200D01*
X139490476Y-93607200D02*
X139395238Y-93654819D01*
X139395238Y-93654819D02*
X139109524Y-93654819D01*
X139109524Y-93654819D02*
X139014286Y-93607200D01*
X139014286Y-93607200D02*
X138966667Y-93559580D01*
X157838095Y-85554819D02*
X157838095Y-84554819D01*
X157838095Y-85031009D02*
X158409523Y-85031009D01*
X158409523Y-85554819D02*
X158409523Y-84554819D01*
X158838095Y-84650057D02*
X158885714Y-84602438D01*
X158885714Y-84602438D02*
X158980952Y-84554819D01*
X158980952Y-84554819D02*
X159219047Y-84554819D01*
X159219047Y-84554819D02*
X159314285Y-84602438D01*
X159314285Y-84602438D02*
X159361904Y-84650057D01*
X159361904Y-84650057D02*
X159409523Y-84745295D01*
X159409523Y-84745295D02*
X159409523Y-84840533D01*
X159409523Y-84840533D02*
X159361904Y-84983390D01*
X159361904Y-84983390D02*
X158790476Y-85554819D01*
X158790476Y-85554819D02*
X159409523Y-85554819D01*
X141533333Y-102959580D02*
X141485714Y-103007200D01*
X141485714Y-103007200D02*
X141342857Y-103054819D01*
X141342857Y-103054819D02*
X141247619Y-103054819D01*
X141247619Y-103054819D02*
X141104762Y-103007200D01*
X141104762Y-103007200D02*
X141009524Y-102911961D01*
X141009524Y-102911961D02*
X140961905Y-102816723D01*
X140961905Y-102816723D02*
X140914286Y-102626247D01*
X140914286Y-102626247D02*
X140914286Y-102483390D01*
X140914286Y-102483390D02*
X140961905Y-102292914D01*
X140961905Y-102292914D02*
X141009524Y-102197676D01*
X141009524Y-102197676D02*
X141104762Y-102102438D01*
X141104762Y-102102438D02*
X141247619Y-102054819D01*
X141247619Y-102054819D02*
X141342857Y-102054819D01*
X141342857Y-102054819D02*
X141485714Y-102102438D01*
X141485714Y-102102438D02*
X141533333Y-102150057D01*
X142390476Y-102054819D02*
X142200000Y-102054819D01*
X142200000Y-102054819D02*
X142104762Y-102102438D01*
X142104762Y-102102438D02*
X142057143Y-102150057D01*
X142057143Y-102150057D02*
X141961905Y-102292914D01*
X141961905Y-102292914D02*
X141914286Y-102483390D01*
X141914286Y-102483390D02*
X141914286Y-102864342D01*
X141914286Y-102864342D02*
X141961905Y-102959580D01*
X141961905Y-102959580D02*
X142009524Y-103007200D01*
X142009524Y-103007200D02*
X142104762Y-103054819D01*
X142104762Y-103054819D02*
X142295238Y-103054819D01*
X142295238Y-103054819D02*
X142390476Y-103007200D01*
X142390476Y-103007200D02*
X142438095Y-102959580D01*
X142438095Y-102959580D02*
X142485714Y-102864342D01*
X142485714Y-102864342D02*
X142485714Y-102626247D01*
X142485714Y-102626247D02*
X142438095Y-102531009D01*
X142438095Y-102531009D02*
X142390476Y-102483390D01*
X142390476Y-102483390D02*
X142295238Y-102435771D01*
X142295238Y-102435771D02*
X142104762Y-102435771D01*
X142104762Y-102435771D02*
X142009524Y-102483390D01*
X142009524Y-102483390D02*
X141961905Y-102531009D01*
X141961905Y-102531009D02*
X141914286Y-102626247D01*
X137533333Y-107854819D02*
X137200000Y-107378628D01*
X136961905Y-107854819D02*
X136961905Y-106854819D01*
X136961905Y-106854819D02*
X137342857Y-106854819D01*
X137342857Y-106854819D02*
X137438095Y-106902438D01*
X137438095Y-106902438D02*
X137485714Y-106950057D01*
X137485714Y-106950057D02*
X137533333Y-107045295D01*
X137533333Y-107045295D02*
X137533333Y-107188152D01*
X137533333Y-107188152D02*
X137485714Y-107283390D01*
X137485714Y-107283390D02*
X137438095Y-107331009D01*
X137438095Y-107331009D02*
X137342857Y-107378628D01*
X137342857Y-107378628D02*
X136961905Y-107378628D01*
X137914286Y-106950057D02*
X137961905Y-106902438D01*
X137961905Y-106902438D02*
X138057143Y-106854819D01*
X138057143Y-106854819D02*
X138295238Y-106854819D01*
X138295238Y-106854819D02*
X138390476Y-106902438D01*
X138390476Y-106902438D02*
X138438095Y-106950057D01*
X138438095Y-106950057D02*
X138485714Y-107045295D01*
X138485714Y-107045295D02*
X138485714Y-107140533D01*
X138485714Y-107140533D02*
X138438095Y-107283390D01*
X138438095Y-107283390D02*
X137866667Y-107854819D01*
X137866667Y-107854819D02*
X138485714Y-107854819D01*
X138466666Y-80604819D02*
X138466666Y-81319104D01*
X138466666Y-81319104D02*
X138419047Y-81461961D01*
X138419047Y-81461961D02*
X138323809Y-81557200D01*
X138323809Y-81557200D02*
X138180952Y-81604819D01*
X138180952Y-81604819D02*
X138085714Y-81604819D01*
X139466666Y-81604819D02*
X138895238Y-81604819D01*
X139180952Y-81604819D02*
X139180952Y-80604819D01*
X139180952Y-80604819D02*
X139085714Y-80747676D01*
X139085714Y-80747676D02*
X138990476Y-80842914D01*
X138990476Y-80842914D02*
X138895238Y-80890533D01*
X149438095Y-102954819D02*
X149438095Y-103764342D01*
X149438095Y-103764342D02*
X149485714Y-103859580D01*
X149485714Y-103859580D02*
X149533333Y-103907200D01*
X149533333Y-103907200D02*
X149628571Y-103954819D01*
X149628571Y-103954819D02*
X149819047Y-103954819D01*
X149819047Y-103954819D02*
X149914285Y-103907200D01*
X149914285Y-103907200D02*
X149961904Y-103859580D01*
X149961904Y-103859580D02*
X150009523Y-103764342D01*
X150009523Y-103764342D02*
X150009523Y-102954819D01*
X151009523Y-103954819D02*
X150438095Y-103954819D01*
X150723809Y-103954819D02*
X150723809Y-102954819D01*
X150723809Y-102954819D02*
X150628571Y-103097676D01*
X150628571Y-103097676D02*
X150533333Y-103192914D01*
X150533333Y-103192914D02*
X150438095Y-103240533D01*
X144700000Y-95354819D02*
X144700000Y-95592914D01*
X144461905Y-95497676D02*
X144700000Y-95592914D01*
X144700000Y-95592914D02*
X144938095Y-95497676D01*
X144557143Y-95783390D02*
X144700000Y-95592914D01*
X144700000Y-95592914D02*
X144842857Y-95783390D01*
X144700000Y-95354819D02*
X144700000Y-95592914D01*
X144461905Y-95497676D02*
X144700000Y-95592914D01*
X144700000Y-95592914D02*
X144938095Y-95497676D01*
X144557143Y-95783390D02*
X144700000Y-95592914D01*
X144700000Y-95592914D02*
X144842857Y-95783390D01*
X143633333Y-107359580D02*
X143585714Y-107407200D01*
X143585714Y-107407200D02*
X143442857Y-107454819D01*
X143442857Y-107454819D02*
X143347619Y-107454819D01*
X143347619Y-107454819D02*
X143204762Y-107407200D01*
X143204762Y-107407200D02*
X143109524Y-107311961D01*
X143109524Y-107311961D02*
X143061905Y-107216723D01*
X143061905Y-107216723D02*
X143014286Y-107026247D01*
X143014286Y-107026247D02*
X143014286Y-106883390D01*
X143014286Y-106883390D02*
X143061905Y-106692914D01*
X143061905Y-106692914D02*
X143109524Y-106597676D01*
X143109524Y-106597676D02*
X143204762Y-106502438D01*
X143204762Y-106502438D02*
X143347619Y-106454819D01*
X143347619Y-106454819D02*
X143442857Y-106454819D01*
X143442857Y-106454819D02*
X143585714Y-106502438D01*
X143585714Y-106502438D02*
X143633333Y-106550057D01*
X143966667Y-106454819D02*
X144633333Y-106454819D01*
X144633333Y-106454819D02*
X144204762Y-107454819D01*
X153666666Y-80569819D02*
X153666666Y-81284104D01*
X153666666Y-81284104D02*
X153619047Y-81426961D01*
X153619047Y-81426961D02*
X153523809Y-81522200D01*
X153523809Y-81522200D02*
X153380952Y-81569819D01*
X153380952Y-81569819D02*
X153285714Y-81569819D01*
X154047619Y-80569819D02*
X154666666Y-80569819D01*
X154666666Y-80569819D02*
X154333333Y-80950771D01*
X154333333Y-80950771D02*
X154476190Y-80950771D01*
X154476190Y-80950771D02*
X154571428Y-80998390D01*
X154571428Y-80998390D02*
X154619047Y-81046009D01*
X154619047Y-81046009D02*
X154666666Y-81141247D01*
X154666666Y-81141247D02*
X154666666Y-81379342D01*
X154666666Y-81379342D02*
X154619047Y-81474580D01*
X154619047Y-81474580D02*
X154571428Y-81522200D01*
X154571428Y-81522200D02*
X154476190Y-81569819D01*
X154476190Y-81569819D02*
X154190476Y-81569819D01*
X154190476Y-81569819D02*
X154095238Y-81522200D01*
X154095238Y-81522200D02*
X154047619Y-81474580D01*
X132138095Y-111154819D02*
X132138095Y-110154819D01*
X132138095Y-110631009D02*
X132709523Y-110631009D01*
X132709523Y-111154819D02*
X132709523Y-110154819D01*
X133090476Y-110154819D02*
X133709523Y-110154819D01*
X133709523Y-110154819D02*
X133376190Y-110535771D01*
X133376190Y-110535771D02*
X133519047Y-110535771D01*
X133519047Y-110535771D02*
X133614285Y-110583390D01*
X133614285Y-110583390D02*
X133661904Y-110631009D01*
X133661904Y-110631009D02*
X133709523Y-110726247D01*
X133709523Y-110726247D02*
X133709523Y-110964342D01*
X133709523Y-110964342D02*
X133661904Y-111059580D01*
X133661904Y-111059580D02*
X133614285Y-111107200D01*
X133614285Y-111107200D02*
X133519047Y-111154819D01*
X133519047Y-111154819D02*
X133233333Y-111154819D01*
X133233333Y-111154819D02*
X133138095Y-111107200D01*
X133138095Y-111107200D02*
X133090476Y-111059580D01*
X132433333Y-107854819D02*
X132100000Y-107378628D01*
X131861905Y-107854819D02*
X131861905Y-106854819D01*
X131861905Y-106854819D02*
X132242857Y-106854819D01*
X132242857Y-106854819D02*
X132338095Y-106902438D01*
X132338095Y-106902438D02*
X132385714Y-106950057D01*
X132385714Y-106950057D02*
X132433333Y-107045295D01*
X132433333Y-107045295D02*
X132433333Y-107188152D01*
X132433333Y-107188152D02*
X132385714Y-107283390D01*
X132385714Y-107283390D02*
X132338095Y-107331009D01*
X132338095Y-107331009D02*
X132242857Y-107378628D01*
X132242857Y-107378628D02*
X131861905Y-107378628D01*
X133385714Y-107854819D02*
X132814286Y-107854819D01*
X133100000Y-107854819D02*
X133100000Y-106854819D01*
X133100000Y-106854819D02*
X133004762Y-106997676D01*
X133004762Y-106997676D02*
X132909524Y-107092914D01*
X132909524Y-107092914D02*
X132814286Y-107140533D01*
X141533333Y-93597080D02*
X141485714Y-93644700D01*
X141485714Y-93644700D02*
X141342857Y-93692319D01*
X141342857Y-93692319D02*
X141247619Y-93692319D01*
X141247619Y-93692319D02*
X141104762Y-93644700D01*
X141104762Y-93644700D02*
X141009524Y-93549461D01*
X141009524Y-93549461D02*
X140961905Y-93454223D01*
X140961905Y-93454223D02*
X140914286Y-93263747D01*
X140914286Y-93263747D02*
X140914286Y-93120890D01*
X140914286Y-93120890D02*
X140961905Y-92930414D01*
X140961905Y-92930414D02*
X141009524Y-92835176D01*
X141009524Y-92835176D02*
X141104762Y-92739938D01*
X141104762Y-92739938D02*
X141247619Y-92692319D01*
X141247619Y-92692319D02*
X141342857Y-92692319D01*
X141342857Y-92692319D02*
X141485714Y-92739938D01*
X141485714Y-92739938D02*
X141533333Y-92787557D01*
X142390476Y-93025652D02*
X142390476Y-93692319D01*
X142152381Y-92644700D02*
X141914286Y-93358985D01*
X141914286Y-93358985D02*
X142533333Y-93358985D01*
X152633333Y-104559580D02*
X152585714Y-104607200D01*
X152585714Y-104607200D02*
X152442857Y-104654819D01*
X152442857Y-104654819D02*
X152347619Y-104654819D01*
X152347619Y-104654819D02*
X152204762Y-104607200D01*
X152204762Y-104607200D02*
X152109524Y-104511961D01*
X152109524Y-104511961D02*
X152061905Y-104416723D01*
X152061905Y-104416723D02*
X152014286Y-104226247D01*
X152014286Y-104226247D02*
X152014286Y-104083390D01*
X152014286Y-104083390D02*
X152061905Y-103892914D01*
X152061905Y-103892914D02*
X152109524Y-103797676D01*
X152109524Y-103797676D02*
X152204762Y-103702438D01*
X152204762Y-103702438D02*
X152347619Y-103654819D01*
X152347619Y-103654819D02*
X152442857Y-103654819D01*
X152442857Y-103654819D02*
X152585714Y-103702438D01*
X152585714Y-103702438D02*
X152633333Y-103750057D01*
X153014286Y-103750057D02*
X153061905Y-103702438D01*
X153061905Y-103702438D02*
X153157143Y-103654819D01*
X153157143Y-103654819D02*
X153395238Y-103654819D01*
X153395238Y-103654819D02*
X153490476Y-103702438D01*
X153490476Y-103702438D02*
X153538095Y-103750057D01*
X153538095Y-103750057D02*
X153585714Y-103845295D01*
X153585714Y-103845295D02*
X153585714Y-103940533D01*
X153585714Y-103940533D02*
X153538095Y-104083390D01*
X153538095Y-104083390D02*
X152966667Y-104654819D01*
X152966667Y-104654819D02*
X153585714Y-104654819D01*
X138733333Y-102959580D02*
X138685714Y-103007200D01*
X138685714Y-103007200D02*
X138542857Y-103054819D01*
X138542857Y-103054819D02*
X138447619Y-103054819D01*
X138447619Y-103054819D02*
X138304762Y-103007200D01*
X138304762Y-103007200D02*
X138209524Y-102911961D01*
X138209524Y-102911961D02*
X138161905Y-102816723D01*
X138161905Y-102816723D02*
X138114286Y-102626247D01*
X138114286Y-102626247D02*
X138114286Y-102483390D01*
X138114286Y-102483390D02*
X138161905Y-102292914D01*
X138161905Y-102292914D02*
X138209524Y-102197676D01*
X138209524Y-102197676D02*
X138304762Y-102102438D01*
X138304762Y-102102438D02*
X138447619Y-102054819D01*
X138447619Y-102054819D02*
X138542857Y-102054819D01*
X138542857Y-102054819D02*
X138685714Y-102102438D01*
X138685714Y-102102438D02*
X138733333Y-102150057D01*
X139638095Y-102054819D02*
X139161905Y-102054819D01*
X139161905Y-102054819D02*
X139114286Y-102531009D01*
X139114286Y-102531009D02*
X139161905Y-102483390D01*
X139161905Y-102483390D02*
X139257143Y-102435771D01*
X139257143Y-102435771D02*
X139495238Y-102435771D01*
X139495238Y-102435771D02*
X139590476Y-102483390D01*
X139590476Y-102483390D02*
X139638095Y-102531009D01*
X139638095Y-102531009D02*
X139685714Y-102626247D01*
X139685714Y-102626247D02*
X139685714Y-102864342D01*
X139685714Y-102864342D02*
X139638095Y-102959580D01*
X139638095Y-102959580D02*
X139590476Y-103007200D01*
X139590476Y-103007200D02*
X139495238Y-103054819D01*
X139495238Y-103054819D02*
X139257143Y-103054819D01*
X139257143Y-103054819D02*
X139161905Y-103007200D01*
X139161905Y-103007200D02*
X139114286Y-102959580D01*
X155533333Y-104559580D02*
X155485714Y-104607200D01*
X155485714Y-104607200D02*
X155342857Y-104654819D01*
X155342857Y-104654819D02*
X155247619Y-104654819D01*
X155247619Y-104654819D02*
X155104762Y-104607200D01*
X155104762Y-104607200D02*
X155009524Y-104511961D01*
X155009524Y-104511961D02*
X154961905Y-104416723D01*
X154961905Y-104416723D02*
X154914286Y-104226247D01*
X154914286Y-104226247D02*
X154914286Y-104083390D01*
X154914286Y-104083390D02*
X154961905Y-103892914D01*
X154961905Y-103892914D02*
X155009524Y-103797676D01*
X155009524Y-103797676D02*
X155104762Y-103702438D01*
X155104762Y-103702438D02*
X155247619Y-103654819D01*
X155247619Y-103654819D02*
X155342857Y-103654819D01*
X155342857Y-103654819D02*
X155485714Y-103702438D01*
X155485714Y-103702438D02*
X155533333Y-103750057D01*
X156485714Y-104654819D02*
X155914286Y-104654819D01*
X156200000Y-104654819D02*
X156200000Y-103654819D01*
X156200000Y-103654819D02*
X156104762Y-103797676D01*
X156104762Y-103797676D02*
X156009524Y-103892914D01*
X156009524Y-103892914D02*
X155914286Y-103940533D01*
X155433333Y-94859580D02*
X155385714Y-94907200D01*
X155385714Y-94907200D02*
X155242857Y-94954819D01*
X155242857Y-94954819D02*
X155147619Y-94954819D01*
X155147619Y-94954819D02*
X155004762Y-94907200D01*
X155004762Y-94907200D02*
X154909524Y-94811961D01*
X154909524Y-94811961D02*
X154861905Y-94716723D01*
X154861905Y-94716723D02*
X154814286Y-94526247D01*
X154814286Y-94526247D02*
X154814286Y-94383390D01*
X154814286Y-94383390D02*
X154861905Y-94192914D01*
X154861905Y-94192914D02*
X154909524Y-94097676D01*
X154909524Y-94097676D02*
X155004762Y-94002438D01*
X155004762Y-94002438D02*
X155147619Y-93954819D01*
X155147619Y-93954819D02*
X155242857Y-93954819D01*
X155242857Y-93954819D02*
X155385714Y-94002438D01*
X155385714Y-94002438D02*
X155433333Y-94050057D01*
X155909524Y-94954819D02*
X156100000Y-94954819D01*
X156100000Y-94954819D02*
X156195238Y-94907200D01*
X156195238Y-94907200D02*
X156242857Y-94859580D01*
X156242857Y-94859580D02*
X156338095Y-94716723D01*
X156338095Y-94716723D02*
X156385714Y-94526247D01*
X156385714Y-94526247D02*
X156385714Y-94145295D01*
X156385714Y-94145295D02*
X156338095Y-94050057D01*
X156338095Y-94050057D02*
X156290476Y-94002438D01*
X156290476Y-94002438D02*
X156195238Y-93954819D01*
X156195238Y-93954819D02*
X156004762Y-93954819D01*
X156004762Y-93954819D02*
X155909524Y-94002438D01*
X155909524Y-94002438D02*
X155861905Y-94050057D01*
X155861905Y-94050057D02*
X155814286Y-94145295D01*
X155814286Y-94145295D02*
X155814286Y-94383390D01*
X155814286Y-94383390D02*
X155861905Y-94478628D01*
X155861905Y-94478628D02*
X155909524Y-94526247D01*
X155909524Y-94526247D02*
X156004762Y-94573866D01*
X156004762Y-94573866D02*
X156195238Y-94573866D01*
X156195238Y-94573866D02*
X156290476Y-94526247D01*
X156290476Y-94526247D02*
X156338095Y-94478628D01*
X156338095Y-94478628D02*
X156385714Y-94383390D01*
X152633333Y-94859580D02*
X152585714Y-94907200D01*
X152585714Y-94907200D02*
X152442857Y-94954819D01*
X152442857Y-94954819D02*
X152347619Y-94954819D01*
X152347619Y-94954819D02*
X152204762Y-94907200D01*
X152204762Y-94907200D02*
X152109524Y-94811961D01*
X152109524Y-94811961D02*
X152061905Y-94716723D01*
X152061905Y-94716723D02*
X152014286Y-94526247D01*
X152014286Y-94526247D02*
X152014286Y-94383390D01*
X152014286Y-94383390D02*
X152061905Y-94192914D01*
X152061905Y-94192914D02*
X152109524Y-94097676D01*
X152109524Y-94097676D02*
X152204762Y-94002438D01*
X152204762Y-94002438D02*
X152347619Y-93954819D01*
X152347619Y-93954819D02*
X152442857Y-93954819D01*
X152442857Y-93954819D02*
X152585714Y-94002438D01*
X152585714Y-94002438D02*
X152633333Y-94050057D01*
X153204762Y-94383390D02*
X153109524Y-94335771D01*
X153109524Y-94335771D02*
X153061905Y-94288152D01*
X153061905Y-94288152D02*
X153014286Y-94192914D01*
X153014286Y-94192914D02*
X153014286Y-94145295D01*
X153014286Y-94145295D02*
X153061905Y-94050057D01*
X153061905Y-94050057D02*
X153109524Y-94002438D01*
X153109524Y-94002438D02*
X153204762Y-93954819D01*
X153204762Y-93954819D02*
X153395238Y-93954819D01*
X153395238Y-93954819D02*
X153490476Y-94002438D01*
X153490476Y-94002438D02*
X153538095Y-94050057D01*
X153538095Y-94050057D02*
X153585714Y-94145295D01*
X153585714Y-94145295D02*
X153585714Y-94192914D01*
X153585714Y-94192914D02*
X153538095Y-94288152D01*
X153538095Y-94288152D02*
X153490476Y-94335771D01*
X153490476Y-94335771D02*
X153395238Y-94383390D01*
X153395238Y-94383390D02*
X153204762Y-94383390D01*
X153204762Y-94383390D02*
X153109524Y-94431009D01*
X153109524Y-94431009D02*
X153061905Y-94478628D01*
X153061905Y-94478628D02*
X153014286Y-94573866D01*
X153014286Y-94573866D02*
X153014286Y-94764342D01*
X153014286Y-94764342D02*
X153061905Y-94859580D01*
X153061905Y-94859580D02*
X153109524Y-94907200D01*
X153109524Y-94907200D02*
X153204762Y-94954819D01*
X153204762Y-94954819D02*
X153395238Y-94954819D01*
X153395238Y-94954819D02*
X153490476Y-94907200D01*
X153490476Y-94907200D02*
X153538095Y-94859580D01*
X153538095Y-94859580D02*
X153585714Y-94764342D01*
X153585714Y-94764342D02*
X153585714Y-94573866D01*
X153585714Y-94573866D02*
X153538095Y-94478628D01*
X153538095Y-94478628D02*
X153490476Y-94431009D01*
X153490476Y-94431009D02*
X153395238Y-94383390D01*
X138766666Y-110354819D02*
X138766666Y-111069104D01*
X138766666Y-111069104D02*
X138719047Y-111211961D01*
X138719047Y-111211961D02*
X138623809Y-111307200D01*
X138623809Y-111307200D02*
X138480952Y-111354819D01*
X138480952Y-111354819D02*
X138385714Y-111354819D01*
X139671428Y-110688152D02*
X139671428Y-111354819D01*
X139433333Y-110307200D02*
X139195238Y-111021485D01*
X139195238Y-111021485D02*
X139814285Y-111021485D01*
X146166666Y-80604819D02*
X146166666Y-81319104D01*
X146166666Y-81319104D02*
X146119047Y-81461961D01*
X146119047Y-81461961D02*
X146023809Y-81557200D01*
X146023809Y-81557200D02*
X145880952Y-81604819D01*
X145880952Y-81604819D02*
X145785714Y-81604819D01*
X146595238Y-80700057D02*
X146642857Y-80652438D01*
X146642857Y-80652438D02*
X146738095Y-80604819D01*
X146738095Y-80604819D02*
X146976190Y-80604819D01*
X146976190Y-80604819D02*
X147071428Y-80652438D01*
X147071428Y-80652438D02*
X147119047Y-80700057D01*
X147119047Y-80700057D02*
X147166666Y-80795295D01*
X147166666Y-80795295D02*
X147166666Y-80890533D01*
X147166666Y-80890533D02*
X147119047Y-81033390D01*
X147119047Y-81033390D02*
X146547619Y-81604819D01*
X146547619Y-81604819D02*
X147166666Y-81604819D01*
X133266666Y-102054819D02*
X133266666Y-102769104D01*
X133266666Y-102769104D02*
X133219047Y-102911961D01*
X133219047Y-102911961D02*
X133123809Y-103007200D01*
X133123809Y-103007200D02*
X132980952Y-103054819D01*
X132980952Y-103054819D02*
X132885714Y-103054819D01*
X134219047Y-102054819D02*
X133742857Y-102054819D01*
X133742857Y-102054819D02*
X133695238Y-102531009D01*
X133695238Y-102531009D02*
X133742857Y-102483390D01*
X133742857Y-102483390D02*
X133838095Y-102435771D01*
X133838095Y-102435771D02*
X134076190Y-102435771D01*
X134076190Y-102435771D02*
X134171428Y-102483390D01*
X134171428Y-102483390D02*
X134219047Y-102531009D01*
X134219047Y-102531009D02*
X134266666Y-102626247D01*
X134266666Y-102626247D02*
X134266666Y-102864342D01*
X134266666Y-102864342D02*
X134219047Y-102959580D01*
X134219047Y-102959580D02*
X134171428Y-103007200D01*
X134171428Y-103007200D02*
X134076190Y-103054819D01*
X134076190Y-103054819D02*
X133838095Y-103054819D01*
X133838095Y-103054819D02*
X133742857Y-103007200D01*
X133742857Y-103007200D02*
X133695238Y-102959580D01*
X156938095Y-111054819D02*
X156938095Y-110054819D01*
X156938095Y-110531009D02*
X157509523Y-110531009D01*
X157509523Y-111054819D02*
X157509523Y-110054819D01*
X158414285Y-110388152D02*
X158414285Y-111054819D01*
X158176190Y-110007200D02*
X157938095Y-110721485D01*
X157938095Y-110721485D02*
X158557142Y-110721485D01*
D11*
%TO.C,C3*%
X138065000Y-95576248D02*
X138065000Y-96098752D01*
X139535000Y-95576248D02*
X139535000Y-96098752D01*
%TO.C,C6*%
X140965000Y-99676248D02*
X140965000Y-100198752D01*
X142435000Y-99676248D02*
X142435000Y-100198752D01*
%TO.C,R2*%
X139172936Y-104265000D02*
X139627064Y-104265000D01*
X139172936Y-105735000D02*
X139627064Y-105735000D01*
%TO.C,J1*%
X135950000Y-81950000D02*
X135950000Y-83200000D01*
X136240000Y-82240000D02*
X141360000Y-82240000D01*
X136240000Y-88210000D02*
X136240000Y-82240000D01*
X136250000Y-82250000D02*
X136250000Y-83000000D01*
X136250000Y-83000000D02*
X138050000Y-83000000D01*
X136250000Y-84500000D02*
X137000000Y-84500000D01*
X137000000Y-84500000D02*
X137000000Y-87450000D01*
X137000000Y-87450000D02*
X138800000Y-87450000D01*
X137200000Y-81950000D02*
X135950000Y-81950000D01*
X137665000Y-88210000D02*
X136240000Y-88210000D01*
X137665000Y-89050000D02*
X137665000Y-88210000D01*
X138050000Y-82250000D02*
X136250000Y-82250000D01*
X138050000Y-82250000D02*
X139550000Y-82250000D01*
X138050000Y-83000000D02*
X138050000Y-82250000D01*
X138050000Y-83000000D02*
X138050000Y-82250000D01*
X139550000Y-82250000D02*
X139550000Y-83000000D01*
X139550000Y-82250000D02*
X139550000Y-83000000D01*
X139550000Y-83000000D02*
X138050000Y-83000000D01*
X139550000Y-83000000D02*
X141350000Y-83000000D01*
X139935000Y-88210000D02*
X139935000Y-89050000D01*
X140600000Y-84500000D02*
X140600000Y-87450000D01*
X140600000Y-87450000D02*
X138800000Y-87450000D01*
X141350000Y-82250000D02*
X139550000Y-82250000D01*
X141350000Y-83000000D02*
X141350000Y-82250000D01*
X141350000Y-84500000D02*
X140600000Y-84500000D01*
X141360000Y-82240000D02*
X141360000Y-88210000D01*
X141360000Y-88210000D02*
X139935000Y-88210000D01*
X139935000Y-89050000D02*
G75*
G02*
X137665000Y-89050000I-1135000J0D01*
G01*
D12*
%TO.C,U1*%
X145178300Y-95975001D02*
X145178300Y-96440260D01*
X145178300Y-101859742D02*
X145178300Y-102325001D01*
X145178300Y-102325001D02*
X145640260Y-102325001D01*
X145640260Y-95975001D02*
X145178300Y-95975001D01*
X149059740Y-102325001D02*
X149521700Y-102325001D01*
X149521700Y-95975001D02*
X149059740Y-95975001D01*
X149521700Y-96440260D02*
X149521700Y-95975001D01*
X149521700Y-102325001D02*
X149521700Y-101859742D01*
D13*
G36*
X144746500Y-101590502D02*
G01*
X144492500Y-101590502D01*
X144492500Y-101209502D01*
X144746500Y-101209502D01*
X144746500Y-101590502D01*
G37*
G36*
X147290501Y-95543201D02*
G01*
X146909500Y-95543201D01*
X146909500Y-95289201D01*
X147290501Y-95289201D01*
X147290501Y-95543201D01*
G37*
G36*
X150207500Y-100090502D02*
G01*
X149953500Y-100090502D01*
X149953500Y-99709502D01*
X150207500Y-99709502D01*
X150207500Y-100090502D01*
G37*
D11*
%TO.C,C7*%
X143065000Y-104561252D02*
X143065000Y-104038748D01*
X144535000Y-104561252D02*
X144535000Y-104038748D01*
%TO.C,J3*%
X151150000Y-81915000D02*
X151150000Y-83165000D01*
X151440000Y-82205000D02*
X156560000Y-82205000D01*
X151440000Y-88175000D02*
X151440000Y-82205000D01*
X151450000Y-82215000D02*
X151450000Y-82965000D01*
X151450000Y-82965000D02*
X153250000Y-82965000D01*
X151450000Y-84465000D02*
X152200000Y-84465000D01*
X152200000Y-84465000D02*
X152200000Y-87415000D01*
X152200000Y-87415000D02*
X154000000Y-87415000D01*
X152400000Y-81915000D02*
X151150000Y-81915000D01*
X152865000Y-88175000D02*
X151440000Y-88175000D01*
X152865000Y-89015000D02*
X152865000Y-88175000D01*
X153250000Y-82215000D02*
X151450000Y-82215000D01*
X153250000Y-82215000D02*
X154750000Y-82215000D01*
X153250000Y-82965000D02*
X153250000Y-82215000D01*
X153250000Y-82965000D02*
X153250000Y-82215000D01*
X154750000Y-82215000D02*
X154750000Y-82965000D01*
X154750000Y-82215000D02*
X154750000Y-82965000D01*
X154750000Y-82965000D02*
X153250000Y-82965000D01*
X154750000Y-82965000D02*
X156550000Y-82965000D01*
X155135000Y-88175000D02*
X155135000Y-89015000D01*
X155800000Y-84465000D02*
X155800000Y-87415000D01*
X155800000Y-87415000D02*
X154000000Y-87415000D01*
X156550000Y-82215000D02*
X154750000Y-82215000D01*
X156550000Y-82965000D02*
X156550000Y-82215000D01*
X156550000Y-84465000D02*
X155800000Y-84465000D01*
X156560000Y-82205000D02*
X156560000Y-88175000D01*
X156560000Y-88175000D02*
X155135000Y-88175000D01*
X155135000Y-89015000D02*
G75*
G02*
X152865000Y-89015000I-1135000J0D01*
G01*
%TO.C,R1*%
X134172936Y-104265000D02*
X134627064Y-104265000D01*
X134172936Y-105735000D02*
X134627064Y-105735000D01*
%TO.C,C4*%
X140965000Y-95576248D02*
X140965000Y-96098752D01*
X142435000Y-95576248D02*
X142435000Y-96098752D01*
%TO.C,C2*%
X154865000Y-101238748D02*
X154865000Y-101761252D01*
X156335000Y-101238748D02*
X156335000Y-101761252D01*
%TO.C,C5*%
X138065000Y-99676248D02*
X138065000Y-100198752D01*
X139535000Y-99676248D02*
X139535000Y-100198752D01*
%TO.C,C1*%
X152165000Y-101238748D02*
X152165000Y-101761252D01*
X153635000Y-101238748D02*
X153635000Y-101761252D01*
%TO.C,C9*%
X154865000Y-97423752D02*
X154865000Y-96901248D01*
X156335000Y-97423752D02*
X156335000Y-96901248D01*
%TO.C,C8*%
X152165000Y-97423752D02*
X152165000Y-96901248D01*
X153635000Y-97423752D02*
X153635000Y-96901248D01*
%TO.C,J4*%
X140250000Y-108350000D02*
X140250000Y-109600000D01*
X140540000Y-108640000D02*
X140540000Y-114610000D01*
X140540000Y-114610000D02*
X153160000Y-114610000D01*
X140550000Y-108650000D02*
X140550000Y-109400000D01*
X140550000Y-109400000D02*
X142350000Y-109400000D01*
X140550000Y-110900000D02*
X141300000Y-110900000D01*
X141300000Y-110900000D02*
X141300000Y-112240000D01*
X141500000Y-108350000D02*
X140250000Y-108350000D01*
X142350000Y-108650000D02*
X140550000Y-108650000D01*
X142350000Y-109400000D02*
X142350000Y-108650000D01*
X143850000Y-108650000D02*
X143850000Y-109400000D01*
X143850000Y-109400000D02*
X149850000Y-109400000D01*
X146850000Y-113850000D02*
X142360000Y-113850000D01*
X149850000Y-108650000D02*
X143850000Y-108650000D01*
X149850000Y-109400000D02*
X149850000Y-108650000D01*
X151350000Y-108650000D02*
X151350000Y-109400000D01*
X151350000Y-109400000D02*
X153150000Y-109400000D01*
X152400000Y-110900000D02*
X152400000Y-113850000D01*
X152400000Y-113850000D02*
X146850000Y-113850000D01*
X153150000Y-108650000D02*
X151350000Y-108650000D01*
X153150000Y-109400000D02*
X153150000Y-108650000D01*
X153150000Y-110900000D02*
X152400000Y-110900000D01*
X153160000Y-108640000D02*
X140540000Y-108640000D01*
X153160000Y-114610000D02*
X153160000Y-108640000D01*
%TO.C,J2*%
X143650000Y-81950000D02*
X143650000Y-83200000D01*
X143940000Y-82240000D02*
X149060000Y-82240000D01*
X143940000Y-88210000D02*
X143940000Y-82240000D01*
X143950000Y-82250000D02*
X143950000Y-83000000D01*
X143950000Y-83000000D02*
X145750000Y-83000000D01*
X143950000Y-84500000D02*
X144700000Y-84500000D01*
X144700000Y-84500000D02*
X144700000Y-87450000D01*
X144700000Y-87450000D02*
X146500000Y-87450000D01*
X144900000Y-81950000D02*
X143650000Y-81950000D01*
X145365000Y-88210000D02*
X143940000Y-88210000D01*
X145365000Y-89050000D02*
X145365000Y-88210000D01*
X145750000Y-82250000D02*
X143950000Y-82250000D01*
X145750000Y-82250000D02*
X147250000Y-82250000D01*
X145750000Y-83000000D02*
X145750000Y-82250000D01*
X145750000Y-83000000D02*
X145750000Y-82250000D01*
X147250000Y-82250000D02*
X147250000Y-83000000D01*
X147250000Y-82250000D02*
X147250000Y-83000000D01*
X147250000Y-83000000D02*
X145750000Y-83000000D01*
X147250000Y-83000000D02*
X149050000Y-83000000D01*
X147635000Y-88210000D02*
X147635000Y-89050000D01*
X148300000Y-84500000D02*
X148300000Y-87450000D01*
X148300000Y-87450000D02*
X146500000Y-87450000D01*
X149050000Y-82250000D02*
X147250000Y-82250000D01*
X149050000Y-83000000D02*
X149050000Y-82250000D01*
X149050000Y-84500000D02*
X148300000Y-84500000D01*
X149060000Y-82240000D02*
X149060000Y-88210000D01*
X149060000Y-88210000D02*
X147635000Y-88210000D01*
X147635000Y-89050000D02*
G75*
G02*
X145365000Y-89050000I-1135000J0D01*
G01*
%TO.C,J5*%
X129090000Y-93740000D02*
X129090000Y-101360000D01*
X129090000Y-101360000D02*
X135060000Y-101360000D01*
X129850000Y-97550000D02*
X129850000Y-95560000D01*
X129850000Y-100600000D02*
X129850000Y-97550000D01*
X132800000Y-93750000D02*
X132800000Y-94500000D01*
X132800000Y-94500000D02*
X131460000Y-94500000D01*
X132800000Y-100600000D02*
X129850000Y-100600000D01*
X132800000Y-101350000D02*
X132800000Y-100600000D01*
X134300000Y-93750000D02*
X134300000Y-95550000D01*
X134300000Y-95550000D02*
X135050000Y-95550000D01*
X134300000Y-97050000D02*
X134300000Y-98050000D01*
X134300000Y-98050000D02*
X135050000Y-98050000D01*
X134300000Y-99550000D02*
X134300000Y-101350000D01*
X134300000Y-101350000D02*
X135050000Y-101350000D01*
X135050000Y-93750000D02*
X134300000Y-93750000D01*
X135050000Y-95550000D02*
X135050000Y-93750000D01*
X135050000Y-97050000D02*
X134300000Y-97050000D01*
X135050000Y-98050000D02*
X135050000Y-97050000D01*
X135050000Y-99550000D02*
X134300000Y-99550000D01*
X135050000Y-101350000D02*
X135050000Y-99550000D01*
X135060000Y-93740000D02*
X129090000Y-93740000D01*
X135060000Y-101360000D02*
X135060000Y-93740000D01*
X135350000Y-93450000D02*
X134100000Y-93450000D01*
X135350000Y-94700000D02*
X135350000Y-93450000D01*
%TD*%
M02*
