%TF.GenerationSoftware,KiCad,Pcbnew,8.0.3*%
%TF.CreationDate,2025-11-12T17:38:37-08:00*%
%TF.ProjectId,Capstone_Signal_Processing,43617073-746f-46e6-955f-5369676e616c,rev?*%
%TF.SameCoordinates,Original*%
%TF.FileFunction,Copper,L3,Inr*%
%TF.FilePolarity,Positive*%
%FSLAX46Y46*%
G04 Gerber Fmt 4.6, Leading zero omitted, Abs format (unit mm)*
G04 Created by KiCad (PCBNEW 8.0.3) date 2025-11-12 17:38:37*
%MOMM*%
%LPD*%
G01*
G04 APERTURE LIST*
G04 Aperture macros list*
%AMRoundRect*
0 Rectangle with rounded corners*
0 $1 Rounding radius*
0 $2 $3 $4 $5 $6 $7 $8 $9 X,Y pos of 4 corners*
0 Add a 4 corners polygon primitive as box body*
4,1,4,$2,$3,$4,$5,$6,$7,$8,$9,$2,$3,0*
0 Add four circle primitives for the rounded corners*
1,1,$1+$1,$2,$3*
1,1,$1+$1,$4,$5*
1,1,$1+$1,$6,$7*
1,1,$1+$1,$8,$9*
0 Add four rect primitives between the rounded corners*
20,1,$1+$1,$2,$3,$4,$5,0*
20,1,$1+$1,$4,$5,$6,$7,0*
20,1,$1+$1,$6,$7,$8,$9,0*
20,1,$1+$1,$8,$9,$2,$3,0*%
G04 Aperture macros list end*
%TA.AperFunction,ComponentPad*%
%ADD10C,4.400000*%
%TD*%
%TA.AperFunction,ComponentPad*%
%ADD11RoundRect,0.250000X-0.600000X-0.725000X0.600000X-0.725000X0.600000X0.725000X-0.600000X0.725000X0*%
%TD*%
%TA.AperFunction,ComponentPad*%
%ADD12O,1.700000X1.950000*%
%TD*%
%TA.AperFunction,ComponentPad*%
%ADD13RoundRect,0.250000X-0.750000X0.600000X-0.750000X-0.600000X0.750000X-0.600000X0.750000X0.600000X0*%
%TD*%
%TA.AperFunction,ComponentPad*%
%ADD14O,2.000000X1.700000*%
%TD*%
%TA.AperFunction,ViaPad*%
%ADD15C,0.600000*%
%TD*%
G04 APERTURE END LIST*
D10*
%TO.N,GND*%
%TO.C,H1*%
X130500000Y-82100000D03*
%TD*%
%TO.N,GND*%
%TO.C,H2*%
X160200000Y-82100000D03*
%TD*%
D11*
%TO.N,/CH_X*%
%TO.C,J1*%
X138800000Y-84700000D03*
%TD*%
%TO.N,/CH_Z*%
%TO.C,J3*%
X154000000Y-84665000D03*
%TD*%
D10*
%TO.N,GND*%
%TO.C,H3*%
X130500000Y-113200000D03*
%TD*%
D11*
%TO.N,/SCLK*%
%TO.C,J4*%
X143100000Y-111100000D03*
D12*
%TO.N,/CS*%
X145600000Y-111100000D03*
%TO.N,/SDO*%
X148100000Y-111100000D03*
%TO.N,/SDI*%
X150600000Y-111100000D03*
%TD*%
D11*
%TO.N,/CH_Y*%
%TO.C,J2*%
X146500000Y-84700000D03*
%TD*%
D13*
%TO.N,+5V*%
%TO.C,J5*%
X132600000Y-96300000D03*
D14*
%TO.N,GND*%
X132600000Y-98800000D03*
%TD*%
D10*
%TO.N,GND*%
%TO.C,H4*%
X160200000Y-113200000D03*
%TD*%
D15*
%TO.N,GND*%
X160200000Y-110000000D03*
X130500000Y-110000000D03*
X130500000Y-85600000D03*
X136800000Y-98800000D03*
X151400000Y-96100000D03*
X147100000Y-93300000D03*
X136800000Y-96900000D03*
X157800000Y-99300000D03*
X160200000Y-85700000D03*
X145200000Y-95100000D03*
X142237500Y-105337500D03*
X149200000Y-95000000D03*
%TO.N,+3.3V*%
X151400000Y-100500000D03*
X141100000Y-107200000D03*
%TD*%
%TA.AperFunction,Conductor*%
%TO.N,GND*%
G36*
X129660967Y-113916602D02*
G01*
X129783398Y-114039033D01*
X129917262Y-114136290D01*
X128775030Y-115278522D01*
X128775030Y-115278523D01*
X128901862Y-115377889D01*
X128942495Y-115434729D01*
X128945947Y-115504513D01*
X128911123Y-115565086D01*
X128849079Y-115597216D01*
X128825389Y-115599500D01*
X128224500Y-115599500D01*
X128157461Y-115579815D01*
X128111706Y-115527011D01*
X128100500Y-115475500D01*
X128100500Y-114874610D01*
X128120185Y-114807571D01*
X128172989Y-114761816D01*
X128242147Y-114751872D01*
X128305703Y-114780897D01*
X128322111Y-114798137D01*
X128421476Y-114924968D01*
X129563708Y-113782736D01*
X129660967Y-113916602D01*
G37*
%TD.AperFunction*%
%TA.AperFunction,Conductor*%
G36*
X158592428Y-79720185D02*
G01*
X158638183Y-79772989D01*
X158648127Y-79842147D01*
X158619102Y-79905703D01*
X158601861Y-79922111D01*
X158475030Y-80021474D01*
X158475029Y-80021476D01*
X159617262Y-81163709D01*
X159483398Y-81260967D01*
X159360967Y-81383398D01*
X159263709Y-81517262D01*
X158121476Y-80375029D01*
X158121474Y-80375030D01*
X157973886Y-80563416D01*
X157973881Y-80563422D01*
X157804898Y-80842956D01*
X157804897Y-80842958D01*
X157670839Y-81140824D01*
X157670835Y-81140835D01*
X157573667Y-81452658D01*
X157514786Y-81773961D01*
X157495065Y-82100000D01*
X157514786Y-82426038D01*
X157573667Y-82747341D01*
X157670835Y-83059164D01*
X157670839Y-83059175D01*
X157804897Y-83357041D01*
X157804898Y-83357043D01*
X157973881Y-83636576D01*
X158121476Y-83824968D01*
X159263708Y-82682736D01*
X159360967Y-82816602D01*
X159483398Y-82939033D01*
X159617262Y-83036290D01*
X158475030Y-84178522D01*
X158475030Y-84178523D01*
X158663423Y-84326118D01*
X158942956Y-84495101D01*
X158942958Y-84495102D01*
X159240824Y-84629160D01*
X159240835Y-84629164D01*
X159552658Y-84726332D01*
X159873961Y-84785213D01*
X160200000Y-84804934D01*
X160526038Y-84785213D01*
X160847341Y-84726332D01*
X161159164Y-84629164D01*
X161159175Y-84629160D01*
X161457041Y-84495102D01*
X161457043Y-84495101D01*
X161736586Y-84326112D01*
X161924968Y-84178523D01*
X161924968Y-84178522D01*
X160782737Y-83036290D01*
X160916602Y-82939033D01*
X161039033Y-82816602D01*
X161136290Y-82682736D01*
X162278522Y-83824968D01*
X162278523Y-83824968D01*
X162377889Y-83698138D01*
X162434729Y-83657505D01*
X162504514Y-83654053D01*
X162565086Y-83688877D01*
X162597216Y-83750921D01*
X162599500Y-83774611D01*
X162599500Y-111525389D01*
X162579815Y-111592428D01*
X162527011Y-111638183D01*
X162457853Y-111648127D01*
X162394297Y-111619102D01*
X162377889Y-111601862D01*
X162278522Y-111475030D01*
X161136290Y-112617261D01*
X161039033Y-112483398D01*
X160916602Y-112360967D01*
X160782736Y-112263709D01*
X161924968Y-111121476D01*
X161736576Y-110973881D01*
X161457043Y-110804898D01*
X161457041Y-110804897D01*
X161159175Y-110670839D01*
X161159164Y-110670835D01*
X160847341Y-110573667D01*
X160526038Y-110514786D01*
X160200000Y-110495065D01*
X159873961Y-110514786D01*
X159552658Y-110573667D01*
X159240835Y-110670835D01*
X159240824Y-110670839D01*
X158942958Y-110804897D01*
X158942956Y-110804898D01*
X158663422Y-110973881D01*
X158663416Y-110973886D01*
X158475030Y-111121474D01*
X158475029Y-111121476D01*
X159617262Y-112263709D01*
X159483398Y-112360967D01*
X159360967Y-112483398D01*
X159263709Y-112617262D01*
X158121476Y-111475029D01*
X158121474Y-111475030D01*
X157973886Y-111663416D01*
X157973881Y-111663422D01*
X157804898Y-111942956D01*
X157804897Y-111942958D01*
X157670839Y-112240824D01*
X157670835Y-112240835D01*
X157573667Y-112552658D01*
X157514786Y-112873961D01*
X157495065Y-113200000D01*
X157514786Y-113526038D01*
X157573667Y-113847341D01*
X157670835Y-114159164D01*
X157670839Y-114159175D01*
X157804897Y-114457041D01*
X157804898Y-114457043D01*
X157973881Y-114736576D01*
X158121476Y-114924968D01*
X159263708Y-113782736D01*
X159360967Y-113916602D01*
X159483398Y-114039033D01*
X159617262Y-114136290D01*
X158475030Y-115278522D01*
X158475030Y-115278523D01*
X158601862Y-115377889D01*
X158642495Y-115434729D01*
X158645947Y-115504513D01*
X158611123Y-115565086D01*
X158549079Y-115597216D01*
X158525389Y-115599500D01*
X132174611Y-115599500D01*
X132107572Y-115579815D01*
X132061817Y-115527011D01*
X132051873Y-115457853D01*
X132080898Y-115394297D01*
X132098138Y-115377889D01*
X132224968Y-115278523D01*
X132224968Y-115278522D01*
X131082737Y-114136290D01*
X131216602Y-114039033D01*
X131339033Y-113916602D01*
X131436290Y-113782737D01*
X132578522Y-114924968D01*
X132578523Y-114924968D01*
X132726112Y-114736586D01*
X132895101Y-114457043D01*
X132895102Y-114457041D01*
X133029160Y-114159175D01*
X133029164Y-114159164D01*
X133126332Y-113847341D01*
X133185213Y-113526038D01*
X133204934Y-113200000D01*
X133193818Y-113016228D01*
X140649500Y-113016228D01*
X140649500Y-113183771D01*
X140682182Y-113348074D01*
X140682184Y-113348082D01*
X140746295Y-113502860D01*
X140839373Y-113642162D01*
X140957837Y-113760626D01*
X140981632Y-113776525D01*
X141097137Y-113853703D01*
X141251918Y-113917816D01*
X141416228Y-113950499D01*
X141416232Y-113950500D01*
X141416233Y-113950500D01*
X141583768Y-113950500D01*
X141583769Y-113950499D01*
X141748082Y-113917816D01*
X141902863Y-113853703D01*
X142042162Y-113760626D01*
X142160626Y-113642162D01*
X142253703Y-113502863D01*
X142317816Y-113348082D01*
X142350500Y-113183767D01*
X142350500Y-113016233D01*
X142317816Y-112851918D01*
X142271916Y-112741108D01*
X142264448Y-112671641D01*
X142295723Y-112609162D01*
X142355811Y-112573509D01*
X142399081Y-112570299D01*
X142402300Y-112570627D01*
X142449991Y-112575500D01*
X143750008Y-112575499D01*
X143852797Y-112564999D01*
X144019334Y-112509814D01*
X144168656Y-112417712D01*
X144292712Y-112293656D01*
X144384814Y-112144334D01*
X144384814Y-112144331D01*
X144388178Y-112138879D01*
X144440126Y-112092154D01*
X144509088Y-112080931D01*
X144573170Y-112108774D01*
X144581398Y-112116294D01*
X144720213Y-112255109D01*
X144892179Y-112380048D01*
X144892181Y-112380049D01*
X144892184Y-112380051D01*
X145081588Y-112476557D01*
X145283757Y-112542246D01*
X145493713Y-112575500D01*
X145493714Y-112575500D01*
X145706286Y-112575500D01*
X145706287Y-112575500D01*
X145916243Y-112542246D01*
X146118412Y-112476557D01*
X146307816Y-112380051D01*
X146354275Y-112346297D01*
X146479786Y-112255109D01*
X146479788Y-112255106D01*
X146479792Y-112255104D01*
X146630104Y-112104792D01*
X146749683Y-111940204D01*
X146805011Y-111897540D01*
X146874624Y-111891561D01*
X146936420Y-111924166D01*
X146950313Y-111940199D01*
X147052560Y-112080931D01*
X147069896Y-112104792D01*
X147220213Y-112255109D01*
X147392179Y-112380048D01*
X147392181Y-112380049D01*
X147392184Y-112380051D01*
X147581588Y-112476557D01*
X147783757Y-112542246D01*
X147993713Y-112575500D01*
X147993714Y-112575500D01*
X148206286Y-112575500D01*
X148206287Y-112575500D01*
X148416243Y-112542246D01*
X148618412Y-112476557D01*
X148807816Y-112380051D01*
X148854275Y-112346297D01*
X148979786Y-112255109D01*
X148979788Y-112255106D01*
X148979792Y-112255104D01*
X149130104Y-112104792D01*
X149249683Y-111940204D01*
X149305011Y-111897540D01*
X149374624Y-111891561D01*
X149436420Y-111924166D01*
X149450313Y-111940199D01*
X149552560Y-112080931D01*
X149569896Y-112104792D01*
X149720213Y-112255109D01*
X149892179Y-112380048D01*
X149892181Y-112380049D01*
X149892184Y-112380051D01*
X150081588Y-112476557D01*
X150283757Y-112542246D01*
X150493713Y-112575500D01*
X150493714Y-112575500D01*
X150706286Y-112575500D01*
X150706287Y-112575500D01*
X150916243Y-112542246D01*
X151118412Y-112476557D01*
X151307816Y-112380051D01*
X151354275Y-112346297D01*
X151479786Y-112255109D01*
X151479788Y-112255106D01*
X151479792Y-112255104D01*
X151630104Y-112104792D01*
X151630106Y-112104788D01*
X151630109Y-112104786D01*
X151755048Y-111932820D01*
X151755047Y-111932820D01*
X151755051Y-111932816D01*
X151851557Y-111743412D01*
X151917246Y-111541243D01*
X151950500Y-111331287D01*
X151950500Y-110868713D01*
X151917246Y-110658757D01*
X151851557Y-110456588D01*
X151755051Y-110267184D01*
X151755049Y-110267181D01*
X151755048Y-110267179D01*
X151630109Y-110095213D01*
X151479786Y-109944890D01*
X151307820Y-109819951D01*
X151118414Y-109723444D01*
X151118413Y-109723443D01*
X151118412Y-109723443D01*
X150916243Y-109657754D01*
X150916241Y-109657753D01*
X150916240Y-109657753D01*
X150754957Y-109632208D01*
X150706287Y-109624500D01*
X150493713Y-109624500D01*
X150445042Y-109632208D01*
X150283760Y-109657753D01*
X150081585Y-109723444D01*
X149892179Y-109819951D01*
X149720213Y-109944890D01*
X149569894Y-110095209D01*
X149569890Y-110095214D01*
X149450318Y-110259793D01*
X149394989Y-110302459D01*
X149325375Y-110308438D01*
X149263580Y-110275833D01*
X149249682Y-110259793D01*
X149130109Y-110095214D01*
X149130105Y-110095209D01*
X148979786Y-109944890D01*
X148807820Y-109819951D01*
X148618414Y-109723444D01*
X148618413Y-109723443D01*
X148618412Y-109723443D01*
X148416243Y-109657754D01*
X148416241Y-109657753D01*
X148416240Y-109657753D01*
X148254957Y-109632208D01*
X148206287Y-109624500D01*
X147993713Y-109624500D01*
X147945042Y-109632208D01*
X147783760Y-109657753D01*
X147581585Y-109723444D01*
X147392179Y-109819951D01*
X147220213Y-109944890D01*
X147069894Y-110095209D01*
X147069890Y-110095214D01*
X146950318Y-110259793D01*
X146894989Y-110302459D01*
X146825375Y-110308438D01*
X146763580Y-110275833D01*
X146749682Y-110259793D01*
X146630109Y-110095214D01*
X146630105Y-110095209D01*
X146479786Y-109944890D01*
X146307820Y-109819951D01*
X146118414Y-109723444D01*
X146118413Y-109723443D01*
X146118412Y-109723443D01*
X145916243Y-109657754D01*
X145916241Y-109657753D01*
X145916240Y-109657753D01*
X145754957Y-109632208D01*
X145706287Y-109624500D01*
X145493713Y-109624500D01*
X145445042Y-109632208D01*
X145283760Y-109657753D01*
X145081585Y-109723444D01*
X144892179Y-109819951D01*
X144720215Y-109944889D01*
X144581398Y-110083706D01*
X144520075Y-110117190D01*
X144450383Y-110112206D01*
X144394450Y-110070334D01*
X144388178Y-110061120D01*
X144292712Y-109906344D01*
X144168657Y-109782289D01*
X144168656Y-109782288D01*
X144019334Y-109690186D01*
X143852797Y-109635001D01*
X143852795Y-109635000D01*
X143750010Y-109624500D01*
X142449998Y-109624500D01*
X142449981Y-109624501D01*
X142347203Y-109635000D01*
X142347200Y-109635001D01*
X142180668Y-109690185D01*
X142180663Y-109690187D01*
X142031342Y-109782289D01*
X141907289Y-109906342D01*
X141815187Y-110055663D01*
X141815185Y-110055668D01*
X141810325Y-110070334D01*
X141760001Y-110222203D01*
X141760001Y-110222204D01*
X141760000Y-110222204D01*
X141749500Y-110324983D01*
X141749500Y-111875001D01*
X141749501Y-111875018D01*
X141760000Y-111977796D01*
X141760001Y-111977799D01*
X141801830Y-112104028D01*
X141804232Y-112173856D01*
X141768500Y-112233898D01*
X141705980Y-112265091D01*
X141659934Y-112264650D01*
X141608015Y-112254323D01*
X141583767Y-112249500D01*
X141416233Y-112249500D01*
X141416228Y-112249500D01*
X141251925Y-112282182D01*
X141251917Y-112282184D01*
X141097139Y-112346295D01*
X140957837Y-112439373D01*
X140839373Y-112557837D01*
X140746295Y-112697139D01*
X140682184Y-112851917D01*
X140682182Y-112851925D01*
X140649500Y-113016228D01*
X133193818Y-113016228D01*
X133185213Y-112873961D01*
X133126332Y-112552658D01*
X133029164Y-112240835D01*
X133029160Y-112240824D01*
X132895102Y-111942958D01*
X132895101Y-111942956D01*
X132726118Y-111663423D01*
X132578522Y-111475030D01*
X131436290Y-112617262D01*
X131339033Y-112483398D01*
X131216602Y-112360967D01*
X131082736Y-112263709D01*
X132224968Y-111121476D01*
X132036576Y-110973881D01*
X131757043Y-110804898D01*
X131757041Y-110804897D01*
X131459175Y-110670839D01*
X131459164Y-110670835D01*
X131147341Y-110573667D01*
X130826038Y-110514786D01*
X130500000Y-110495065D01*
X130173961Y-110514786D01*
X129852658Y-110573667D01*
X129540835Y-110670835D01*
X129540824Y-110670839D01*
X129242958Y-110804897D01*
X129242956Y-110804898D01*
X128963422Y-110973881D01*
X128963416Y-110973886D01*
X128775030Y-111121474D01*
X128775029Y-111121476D01*
X129917262Y-112263709D01*
X129783398Y-112360967D01*
X129660967Y-112483398D01*
X129563709Y-112617262D01*
X128421476Y-111475029D01*
X128421475Y-111475030D01*
X128322111Y-111601861D01*
X128265272Y-111642493D01*
X128195487Y-111645946D01*
X128134914Y-111611122D01*
X128102784Y-111549079D01*
X128100500Y-111525388D01*
X128100500Y-107199996D01*
X140294435Y-107199996D01*
X140294435Y-107200003D01*
X140314630Y-107379249D01*
X140314631Y-107379254D01*
X140374211Y-107549523D01*
X140470184Y-107702262D01*
X140597738Y-107829816D01*
X140750478Y-107925789D01*
X140920745Y-107985368D01*
X140920750Y-107985369D01*
X141099996Y-108005565D01*
X141100000Y-108005565D01*
X141100004Y-108005565D01*
X141279249Y-107985369D01*
X141279252Y-107985368D01*
X141279255Y-107985368D01*
X141449522Y-107925789D01*
X141602262Y-107829816D01*
X141729816Y-107702262D01*
X141825789Y-107549522D01*
X141885368Y-107379255D01*
X141905565Y-107200000D01*
X141885368Y-107020745D01*
X141825789Y-106850478D01*
X141729816Y-106697738D01*
X141602262Y-106570184D01*
X141449523Y-106474211D01*
X141279254Y-106414631D01*
X141279249Y-106414630D01*
X141100004Y-106394435D01*
X141099996Y-106394435D01*
X140920750Y-106414630D01*
X140920745Y-106414631D01*
X140750476Y-106474211D01*
X140597737Y-106570184D01*
X140470184Y-106697737D01*
X140374211Y-106850476D01*
X140314631Y-107020745D01*
X140314630Y-107020750D01*
X140294435Y-107199996D01*
X128100500Y-107199996D01*
X128100500Y-100499996D01*
X150594435Y-100499996D01*
X150594435Y-100500003D01*
X150614630Y-100679249D01*
X150614631Y-100679254D01*
X150674211Y-100849523D01*
X150770184Y-101002262D01*
X150897738Y-101129816D01*
X151050478Y-101225789D01*
X151220745Y-101285368D01*
X151220750Y-101285369D01*
X151399996Y-101305565D01*
X151400000Y-101305565D01*
X151400004Y-101305565D01*
X151579249Y-101285369D01*
X151579252Y-101285368D01*
X151579255Y-101285368D01*
X151749522Y-101225789D01*
X151902262Y-101129816D01*
X152029816Y-101002262D01*
X152125789Y-100849522D01*
X152185368Y-100679255D01*
X152205565Y-100500000D01*
X152185368Y-100320745D01*
X152125789Y-100150478D01*
X152029816Y-99997738D01*
X151902262Y-99870184D01*
X151749523Y-99774211D01*
X151579254Y-99714631D01*
X151579249Y-99714630D01*
X151400004Y-99694435D01*
X151399996Y-99694435D01*
X151220750Y-99714630D01*
X151220745Y-99714631D01*
X151050476Y-99774211D01*
X150897737Y-99870184D01*
X150770184Y-99997737D01*
X150674211Y-100150476D01*
X150614631Y-100320745D01*
X150614630Y-100320750D01*
X150594435Y-100499996D01*
X128100500Y-100499996D01*
X128100500Y-94616228D01*
X129749500Y-94616228D01*
X129749500Y-94783771D01*
X129782182Y-94948074D01*
X129782184Y-94948082D01*
X129846295Y-95102860D01*
X129939373Y-95242162D01*
X130057837Y-95360626D01*
X130150494Y-95422537D01*
X130197137Y-95453703D01*
X130351918Y-95517816D01*
X130499643Y-95547200D01*
X130516228Y-95550499D01*
X130516232Y-95550500D01*
X130516233Y-95550500D01*
X130683768Y-95550500D01*
X130683769Y-95550499D01*
X130848082Y-95517816D01*
X130932786Y-95482729D01*
X131002254Y-95475261D01*
X131064733Y-95506536D01*
X131100386Y-95566624D01*
X131103596Y-95609893D01*
X131099500Y-95649981D01*
X131099500Y-96950001D01*
X131099501Y-96950018D01*
X131110000Y-97052796D01*
X131110001Y-97052799D01*
X131165185Y-97219331D01*
X131165187Y-97219336D01*
X131257289Y-97368657D01*
X131381344Y-97492712D01*
X131536558Y-97588448D01*
X131583283Y-97640396D01*
X131594506Y-97709358D01*
X131566663Y-97773441D01*
X131559144Y-97781668D01*
X131420271Y-97920541D01*
X131295379Y-98092442D01*
X131198904Y-98281782D01*
X131133242Y-98483870D01*
X131133242Y-98483873D01*
X131122769Y-98550000D01*
X132166988Y-98550000D01*
X132134075Y-98607007D01*
X132100000Y-98734174D01*
X132100000Y-98865826D01*
X132134075Y-98992993D01*
X132166988Y-99050000D01*
X131122769Y-99050000D01*
X131133242Y-99116126D01*
X131133242Y-99116129D01*
X131198904Y-99318217D01*
X131295379Y-99507557D01*
X131420272Y-99679459D01*
X131420276Y-99679464D01*
X131570535Y-99829723D01*
X131570540Y-99829727D01*
X131742442Y-99954620D01*
X131931782Y-100051095D01*
X132133870Y-100116757D01*
X132343754Y-100150000D01*
X132350000Y-100150000D01*
X132350000Y-99233012D01*
X132407007Y-99265925D01*
X132534174Y-99300000D01*
X132665826Y-99300000D01*
X132792993Y-99265925D01*
X132850000Y-99233012D01*
X132850000Y-100150000D01*
X132856246Y-100150000D01*
X133066127Y-100116757D01*
X133066130Y-100116757D01*
X133268217Y-100051095D01*
X133457557Y-99954620D01*
X133629459Y-99829727D01*
X133629464Y-99829723D01*
X133779723Y-99679464D01*
X133779727Y-99679459D01*
X133904620Y-99507557D01*
X134001095Y-99318217D01*
X134066757Y-99116129D01*
X134066757Y-99116126D01*
X134077231Y-99050000D01*
X133033012Y-99050000D01*
X133065925Y-98992993D01*
X133100000Y-98865826D01*
X133100000Y-98734174D01*
X133065925Y-98607007D01*
X133033012Y-98550000D01*
X134077231Y-98550000D01*
X134066757Y-98483873D01*
X134066757Y-98483870D01*
X134001095Y-98281782D01*
X133904620Y-98092442D01*
X133779727Y-97920540D01*
X133779723Y-97920535D01*
X133640856Y-97781668D01*
X133607371Y-97720345D01*
X133612355Y-97650653D01*
X133654227Y-97594720D01*
X133663441Y-97588448D01*
X133669331Y-97584814D01*
X133669334Y-97584814D01*
X133818656Y-97492712D01*
X133942712Y-97368656D01*
X134034814Y-97219334D01*
X134089999Y-97052797D01*
X134100500Y-96950009D01*
X134100499Y-95649992D01*
X134089999Y-95547203D01*
X134034814Y-95380666D01*
X133942712Y-95231344D01*
X133818656Y-95107288D01*
X133669334Y-95015186D01*
X133502797Y-94960001D01*
X133502795Y-94960000D01*
X133400010Y-94949500D01*
X131799998Y-94949500D01*
X131799981Y-94949501D01*
X131697203Y-94960000D01*
X131697200Y-94960001D01*
X131597735Y-94992961D01*
X131527906Y-94995363D01*
X131467865Y-94959631D01*
X131436672Y-94897110D01*
X131437114Y-94851063D01*
X131450500Y-94783767D01*
X131450500Y-94616233D01*
X131417816Y-94451918D01*
X131353703Y-94297137D01*
X131322537Y-94250494D01*
X131260626Y-94157837D01*
X131142162Y-94039373D01*
X131002860Y-93946295D01*
X130848082Y-93882184D01*
X130848074Y-93882182D01*
X130683771Y-93849500D01*
X130683767Y-93849500D01*
X130516233Y-93849500D01*
X130516228Y-93849500D01*
X130351925Y-93882182D01*
X130351917Y-93882184D01*
X130197139Y-93946295D01*
X130057837Y-94039373D01*
X129939373Y-94157837D01*
X129846295Y-94297139D01*
X129782184Y-94451917D01*
X129782182Y-94451925D01*
X129749500Y-94616228D01*
X128100500Y-94616228D01*
X128100500Y-88961421D01*
X137674500Y-88961421D01*
X137674500Y-89138578D01*
X137702214Y-89313556D01*
X137756956Y-89482039D01*
X137756957Y-89482042D01*
X137837386Y-89639890D01*
X137941517Y-89783214D01*
X138066786Y-89908483D01*
X138210110Y-90012614D01*
X138287529Y-90052061D01*
X138367957Y-90093042D01*
X138367960Y-90093043D01*
X138452201Y-90120414D01*
X138536445Y-90147786D01*
X138711421Y-90175500D01*
X138711422Y-90175500D01*
X138888578Y-90175500D01*
X138888579Y-90175500D01*
X139063555Y-90147786D01*
X139232042Y-90093042D01*
X139389890Y-90012614D01*
X139533214Y-89908483D01*
X139658483Y-89783214D01*
X139762614Y-89639890D01*
X139843042Y-89482042D01*
X139897786Y-89313555D01*
X139925500Y-89138579D01*
X139925500Y-88961421D01*
X145374500Y-88961421D01*
X145374500Y-89138578D01*
X145402214Y-89313556D01*
X145456956Y-89482039D01*
X145456957Y-89482042D01*
X145537386Y-89639890D01*
X145641517Y-89783214D01*
X145766786Y-89908483D01*
X145910110Y-90012614D01*
X145987529Y-90052061D01*
X146067957Y-90093042D01*
X146067960Y-90093043D01*
X146152201Y-90120414D01*
X146236445Y-90147786D01*
X146411421Y-90175500D01*
X146411422Y-90175500D01*
X146588578Y-90175500D01*
X146588579Y-90175500D01*
X146763555Y-90147786D01*
X146932042Y-90093042D01*
X147089890Y-90012614D01*
X147233214Y-89908483D01*
X147358483Y-89783214D01*
X147462614Y-89639890D01*
X147543042Y-89482042D01*
X147597786Y-89313555D01*
X147625500Y-89138579D01*
X147625500Y-88961421D01*
X147619956Y-88926421D01*
X152874500Y-88926421D01*
X152874500Y-89103578D01*
X152902214Y-89278556D01*
X152956956Y-89447039D01*
X152956957Y-89447042D01*
X152974791Y-89482042D01*
X153037386Y-89604890D01*
X153141517Y-89748214D01*
X153266786Y-89873483D01*
X153410110Y-89977614D01*
X153478799Y-90012613D01*
X153567957Y-90058042D01*
X153567960Y-90058043D01*
X153652201Y-90085414D01*
X153736445Y-90112786D01*
X153911421Y-90140500D01*
X153911422Y-90140500D01*
X154088578Y-90140500D01*
X154088579Y-90140500D01*
X154263555Y-90112786D01*
X154432042Y-90058042D01*
X154589890Y-89977614D01*
X154733214Y-89873483D01*
X154858483Y-89748214D01*
X154962614Y-89604890D01*
X155043042Y-89447042D01*
X155097786Y-89278555D01*
X155125500Y-89103579D01*
X155125500Y-88926421D01*
X155097786Y-88751445D01*
X155043042Y-88582958D01*
X155043042Y-88582957D01*
X154962613Y-88425109D01*
X154858483Y-88281786D01*
X154733214Y-88156517D01*
X154589890Y-88052386D01*
X154432042Y-87971957D01*
X154432039Y-87971956D01*
X154263556Y-87917214D01*
X154176067Y-87903357D01*
X154088579Y-87889500D01*
X153911421Y-87889500D01*
X153853095Y-87898738D01*
X153736443Y-87917214D01*
X153567960Y-87971956D01*
X153567957Y-87971957D01*
X153410109Y-88052386D01*
X153328338Y-88111796D01*
X153266786Y-88156517D01*
X153266784Y-88156519D01*
X153266783Y-88156519D01*
X153141519Y-88281783D01*
X153141519Y-88281784D01*
X153141517Y-88281786D01*
X153116088Y-88316786D01*
X153037386Y-88425109D01*
X152956957Y-88582957D01*
X152956956Y-88582960D01*
X152902214Y-88751443D01*
X152874500Y-88926421D01*
X147619956Y-88926421D01*
X147597786Y-88786445D01*
X147543042Y-88617958D01*
X147543042Y-88617957D01*
X147462613Y-88460109D01*
X147358483Y-88316786D01*
X147233214Y-88191517D01*
X147089890Y-88087386D01*
X146932042Y-88006957D01*
X146932039Y-88006956D01*
X146763556Y-87952214D01*
X146676067Y-87938357D01*
X146588579Y-87924500D01*
X146411421Y-87924500D01*
X146353095Y-87933738D01*
X146236443Y-87952214D01*
X146067960Y-88006956D01*
X146067957Y-88006957D01*
X145910109Y-88087386D01*
X145828338Y-88146796D01*
X145766786Y-88191517D01*
X145766784Y-88191519D01*
X145766783Y-88191519D01*
X145641519Y-88316783D01*
X145641519Y-88316784D01*
X145641517Y-88316786D01*
X145596796Y-88378338D01*
X145537386Y-88460109D01*
X145456957Y-88617957D01*
X145456956Y-88617960D01*
X145402214Y-88786443D01*
X145374500Y-88961421D01*
X139925500Y-88961421D01*
X139897786Y-88786445D01*
X139843042Y-88617958D01*
X139843042Y-88617957D01*
X139762613Y-88460109D01*
X139658483Y-88316786D01*
X139533214Y-88191517D01*
X139389890Y-88087386D01*
X139232042Y-88006957D01*
X139232039Y-88006956D01*
X139063556Y-87952214D01*
X138976067Y-87938357D01*
X138888579Y-87924500D01*
X138711421Y-87924500D01*
X138653095Y-87933738D01*
X138536443Y-87952214D01*
X138367960Y-88006956D01*
X138367957Y-88006957D01*
X138210109Y-88087386D01*
X138128338Y-88146796D01*
X138066786Y-88191517D01*
X138066784Y-88191519D01*
X138066783Y-88191519D01*
X137941519Y-88316783D01*
X137941519Y-88316784D01*
X137941517Y-88316786D01*
X137896796Y-88378338D01*
X137837386Y-88460109D01*
X137756957Y-88617957D01*
X137756956Y-88617960D01*
X137702214Y-88786443D01*
X137674500Y-88961421D01*
X128100500Y-88961421D01*
X128100500Y-83774610D01*
X128120185Y-83707571D01*
X128172989Y-83661816D01*
X128242147Y-83651872D01*
X128305703Y-83680897D01*
X128322111Y-83698137D01*
X128421476Y-83824968D01*
X129563708Y-82682736D01*
X129660967Y-82816602D01*
X129783398Y-82939033D01*
X129917262Y-83036290D01*
X128775030Y-84178522D01*
X128775030Y-84178523D01*
X128963423Y-84326118D01*
X129242956Y-84495101D01*
X129242958Y-84495102D01*
X129540824Y-84629160D01*
X129540835Y-84629164D01*
X129852658Y-84726332D01*
X130173961Y-84785213D01*
X130500000Y-84804934D01*
X130826038Y-84785213D01*
X131147341Y-84726332D01*
X131459164Y-84629164D01*
X131459175Y-84629160D01*
X131757041Y-84495102D01*
X131757043Y-84495101D01*
X132036586Y-84326112D01*
X132224968Y-84178523D01*
X132224968Y-84178522D01*
X131971429Y-83924983D01*
X137449500Y-83924983D01*
X137449500Y-85475001D01*
X137449501Y-85475018D01*
X137460000Y-85577796D01*
X137460001Y-85577799D01*
X137503587Y-85709331D01*
X137515186Y-85744334D01*
X137607288Y-85893656D01*
X137731344Y-86017712D01*
X137880666Y-86109814D01*
X138047203Y-86164999D01*
X138149991Y-86175500D01*
X139450008Y-86175499D01*
X139552797Y-86164999D01*
X139719334Y-86109814D01*
X139868656Y-86017712D01*
X139992712Y-85893656D01*
X140084814Y-85744334D01*
X140139999Y-85577797D01*
X140150500Y-85475009D01*
X140150499Y-83924992D01*
X140150498Y-83924983D01*
X145149500Y-83924983D01*
X145149500Y-85475001D01*
X145149501Y-85475018D01*
X145160000Y-85577796D01*
X145160001Y-85577799D01*
X145203587Y-85709331D01*
X145215186Y-85744334D01*
X145307288Y-85893656D01*
X145431344Y-86017712D01*
X145580666Y-86109814D01*
X145747203Y-86164999D01*
X145849991Y-86175500D01*
X147150008Y-86175499D01*
X147252797Y-86164999D01*
X147419334Y-86109814D01*
X147568656Y-86017712D01*
X147692712Y-85893656D01*
X147784814Y-85744334D01*
X147839999Y-85577797D01*
X147850500Y-85475009D01*
X147850499Y-83924992D01*
X147846923Y-83889983D01*
X152649500Y-83889983D01*
X152649500Y-85440001D01*
X152649501Y-85440018D01*
X152660000Y-85542796D01*
X152660001Y-85542799D01*
X152715185Y-85709331D01*
X152715186Y-85709334D01*
X152807288Y-85858656D01*
X152931344Y-85982712D01*
X153080666Y-86074814D01*
X153247203Y-86129999D01*
X153349991Y-86140500D01*
X154650008Y-86140499D01*
X154752797Y-86129999D01*
X154919334Y-86074814D01*
X155068656Y-85982712D01*
X155192712Y-85858656D01*
X155284814Y-85709334D01*
X155339999Y-85542797D01*
X155350500Y-85440009D01*
X155350499Y-83889992D01*
X155339999Y-83787203D01*
X155284814Y-83620666D01*
X155192712Y-83471344D01*
X155068656Y-83347288D01*
X154919334Y-83255186D01*
X154752797Y-83200001D01*
X154752795Y-83200000D01*
X154650010Y-83189500D01*
X153349998Y-83189500D01*
X153349981Y-83189501D01*
X153247203Y-83200000D01*
X153247200Y-83200001D01*
X153080668Y-83255185D01*
X153080663Y-83255187D01*
X152931342Y-83347289D01*
X152807289Y-83471342D01*
X152715187Y-83620663D01*
X152715185Y-83620668D01*
X152703589Y-83655663D01*
X152660001Y-83787203D01*
X152660001Y-83787204D01*
X152660000Y-83787204D01*
X152649500Y-83889983D01*
X147846923Y-83889983D01*
X147839999Y-83822203D01*
X147784814Y-83655666D01*
X147692712Y-83506344D01*
X147568656Y-83382288D01*
X147419334Y-83290186D01*
X147252797Y-83235001D01*
X147252795Y-83235000D01*
X147150010Y-83224500D01*
X145849998Y-83224500D01*
X145849981Y-83224501D01*
X145747203Y-83235000D01*
X145747200Y-83235001D01*
X145580668Y-83290185D01*
X145580663Y-83290187D01*
X145431342Y-83382289D01*
X145307289Y-83506342D01*
X145215187Y-83655663D01*
X145215185Y-83655668D01*
X145213148Y-83661816D01*
X145160001Y-83822203D01*
X145160001Y-83822204D01*
X145160000Y-83822204D01*
X145149500Y-83924983D01*
X140150498Y-83924983D01*
X140139999Y-83822203D01*
X140084814Y-83655666D01*
X139992712Y-83506344D01*
X139868656Y-83382288D01*
X139719334Y-83290186D01*
X139552797Y-83235001D01*
X139552795Y-83235000D01*
X139450010Y-83224500D01*
X138149998Y-83224500D01*
X138149981Y-83224501D01*
X138047203Y-83235000D01*
X138047200Y-83235001D01*
X137880668Y-83290185D01*
X137880663Y-83290187D01*
X137731342Y-83382289D01*
X137607289Y-83506342D01*
X137515187Y-83655663D01*
X137515185Y-83655668D01*
X137513148Y-83661816D01*
X137460001Y-83822203D01*
X137460001Y-83822204D01*
X137460000Y-83822204D01*
X137449500Y-83924983D01*
X131971429Y-83924983D01*
X131082737Y-83036290D01*
X131216602Y-82939033D01*
X131339033Y-82816602D01*
X131436290Y-82682737D01*
X132578522Y-83824968D01*
X132578523Y-83824968D01*
X132726112Y-83636586D01*
X132895101Y-83357043D01*
X132895102Y-83357041D01*
X133029160Y-83059175D01*
X133029164Y-83059164D01*
X133126332Y-82747341D01*
X133185213Y-82426038D01*
X133204934Y-82100000D01*
X133185213Y-81773961D01*
X133126332Y-81452658D01*
X133029164Y-81140835D01*
X133029160Y-81140824D01*
X132895102Y-80842958D01*
X132895101Y-80842956D01*
X132726118Y-80563423D01*
X132578522Y-80375030D01*
X131436290Y-81517262D01*
X131339033Y-81383398D01*
X131216602Y-81260967D01*
X131082736Y-81163709D01*
X132224968Y-80021476D01*
X132224968Y-80021475D01*
X132098138Y-79922111D01*
X132057505Y-79865271D01*
X132054053Y-79795487D01*
X132088877Y-79734914D01*
X132150921Y-79702784D01*
X132174611Y-79700500D01*
X158525389Y-79700500D01*
X158592428Y-79720185D01*
G37*
%TD.AperFunction*%
%TA.AperFunction,Conductor*%
G36*
X162278522Y-114924968D02*
G01*
X162278523Y-114924968D01*
X162377889Y-114798138D01*
X162434729Y-114757505D01*
X162504514Y-114754053D01*
X162565086Y-114788877D01*
X162597216Y-114850921D01*
X162599500Y-114874611D01*
X162599500Y-115475500D01*
X162579815Y-115542539D01*
X162527011Y-115588294D01*
X162475500Y-115599500D01*
X161874611Y-115599500D01*
X161807572Y-115579815D01*
X161761817Y-115527011D01*
X161751873Y-115457853D01*
X161780898Y-115394297D01*
X161798138Y-115377889D01*
X161924968Y-115278523D01*
X161924968Y-115278522D01*
X160782737Y-114136290D01*
X160916602Y-114039033D01*
X161039033Y-113916602D01*
X161136290Y-113782736D01*
X162278522Y-114924968D01*
G37*
%TD.AperFunction*%
%TA.AperFunction,Conductor*%
G36*
X128892428Y-79720185D02*
G01*
X128938183Y-79772989D01*
X128948127Y-79842147D01*
X128919102Y-79905703D01*
X128901861Y-79922111D01*
X128775030Y-80021474D01*
X128775029Y-80021476D01*
X129917262Y-81163709D01*
X129783398Y-81260967D01*
X129660967Y-81383398D01*
X129563709Y-81517262D01*
X128421476Y-80375029D01*
X128421475Y-80375030D01*
X128322111Y-80501861D01*
X128265272Y-80542493D01*
X128195487Y-80545946D01*
X128134914Y-80511122D01*
X128102784Y-80449079D01*
X128100500Y-80425388D01*
X128100500Y-79824500D01*
X128120185Y-79757461D01*
X128172989Y-79711706D01*
X128224500Y-79700500D01*
X128825389Y-79700500D01*
X128892428Y-79720185D01*
G37*
%TD.AperFunction*%
%TA.AperFunction,Conductor*%
G36*
X162542539Y-79720185D02*
G01*
X162588294Y-79772989D01*
X162599500Y-79824500D01*
X162599500Y-80425389D01*
X162579815Y-80492428D01*
X162527011Y-80538183D01*
X162457853Y-80548127D01*
X162394297Y-80519102D01*
X162377889Y-80501862D01*
X162278522Y-80375030D01*
X161136290Y-81517261D01*
X161039033Y-81383398D01*
X160916602Y-81260967D01*
X160782736Y-81163709D01*
X161924968Y-80021476D01*
X161924968Y-80021475D01*
X161798138Y-79922111D01*
X161757505Y-79865271D01*
X161754053Y-79795487D01*
X161788877Y-79734914D01*
X161850921Y-79702784D01*
X161874611Y-79700500D01*
X162475500Y-79700500D01*
X162542539Y-79720185D01*
G37*
%TD.AperFunction*%
%TD*%
M02*
