%TF.GenerationSoftware,KiCad,Pcbnew,8.0.3*%
%TF.CreationDate,2025-11-12T17:38:37-08:00*%
%TF.ProjectId,Capstone_Signal_Processing,43617073-746f-46e6-955f-5369676e616c,rev?*%
%TF.SameCoordinates,Original*%
%TF.FileFunction,Legend,Bot*%
%TF.FilePolarity,Positive*%
%FSLAX46Y46*%
G04 Gerber Fmt 4.6, Leading zero omitted, Abs format (unit mm)*
G04 Created by KiCad (PCBNEW 8.0.3) date 2025-11-12 17:38:37*
%MOMM*%
%LPD*%
G01*
G04 APERTURE LIST*
%ADD10C,0.150000*%
G04 APERTURE END LIST*
D10*
X156363220Y-91716177D02*
X156029887Y-91716177D01*
X155887030Y-92239987D02*
X156363220Y-92239987D01*
X156363220Y-92239987D02*
X156363220Y-91239987D01*
X156363220Y-91239987D02*
X155887030Y-91239987D01*
X154887030Y-92144748D02*
X154934649Y-92192368D01*
X154934649Y-92192368D02*
X155077506Y-92239987D01*
X155077506Y-92239987D02*
X155172744Y-92239987D01*
X155172744Y-92239987D02*
X155315601Y-92192368D01*
X155315601Y-92192368D02*
X155410839Y-92097129D01*
X155410839Y-92097129D02*
X155458458Y-92001891D01*
X155458458Y-92001891D02*
X155506077Y-91811415D01*
X155506077Y-91811415D02*
X155506077Y-91668558D01*
X155506077Y-91668558D02*
X155458458Y-91478082D01*
X155458458Y-91478082D02*
X155410839Y-91382844D01*
X155410839Y-91382844D02*
X155315601Y-91287606D01*
X155315601Y-91287606D02*
X155172744Y-91239987D01*
X155172744Y-91239987D02*
X155077506Y-91239987D01*
X155077506Y-91239987D02*
X154934649Y-91287606D01*
X154934649Y-91287606D02*
X154887030Y-91335225D01*
X154458458Y-91716177D02*
X154125125Y-91716177D01*
X153982268Y-92239987D02*
X154458458Y-92239987D01*
X154458458Y-92239987D02*
X154458458Y-91239987D01*
X154458458Y-91239987D02*
X153982268Y-91239987D01*
X152220363Y-92144748D02*
X152267982Y-92192368D01*
X152267982Y-92192368D02*
X152410839Y-92239987D01*
X152410839Y-92239987D02*
X152506077Y-92239987D01*
X152506077Y-92239987D02*
X152648934Y-92192368D01*
X152648934Y-92192368D02*
X152744172Y-92097129D01*
X152744172Y-92097129D02*
X152791791Y-92001891D01*
X152791791Y-92001891D02*
X152839410Y-91811415D01*
X152839410Y-91811415D02*
X152839410Y-91668558D01*
X152839410Y-91668558D02*
X152791791Y-91478082D01*
X152791791Y-91478082D02*
X152744172Y-91382844D01*
X152744172Y-91382844D02*
X152648934Y-91287606D01*
X152648934Y-91287606D02*
X152506077Y-91239987D01*
X152506077Y-91239987D02*
X152410839Y-91239987D01*
X152410839Y-91239987D02*
X152267982Y-91287606D01*
X152267982Y-91287606D02*
X152220363Y-91335225D01*
X151363220Y-92239987D02*
X151363220Y-91716177D01*
X151363220Y-91716177D02*
X151410839Y-91620939D01*
X151410839Y-91620939D02*
X151506077Y-91573320D01*
X151506077Y-91573320D02*
X151696553Y-91573320D01*
X151696553Y-91573320D02*
X151791791Y-91620939D01*
X151363220Y-92192368D02*
X151458458Y-92239987D01*
X151458458Y-92239987D02*
X151696553Y-92239987D01*
X151696553Y-92239987D02*
X151791791Y-92192368D01*
X151791791Y-92192368D02*
X151839410Y-92097129D01*
X151839410Y-92097129D02*
X151839410Y-92001891D01*
X151839410Y-92001891D02*
X151791791Y-91906653D01*
X151791791Y-91906653D02*
X151696553Y-91859034D01*
X151696553Y-91859034D02*
X151458458Y-91859034D01*
X151458458Y-91859034D02*
X151363220Y-91811415D01*
X150887029Y-91573320D02*
X150887029Y-92573320D01*
X150887029Y-91620939D02*
X150791791Y-91573320D01*
X150791791Y-91573320D02*
X150601315Y-91573320D01*
X150601315Y-91573320D02*
X150506077Y-91620939D01*
X150506077Y-91620939D02*
X150458458Y-91668558D01*
X150458458Y-91668558D02*
X150410839Y-91763796D01*
X150410839Y-91763796D02*
X150410839Y-92049510D01*
X150410839Y-92049510D02*
X150458458Y-92144748D01*
X150458458Y-92144748D02*
X150506077Y-92192368D01*
X150506077Y-92192368D02*
X150601315Y-92239987D01*
X150601315Y-92239987D02*
X150791791Y-92239987D01*
X150791791Y-92239987D02*
X150887029Y-92192368D01*
X150029886Y-92192368D02*
X149934648Y-92239987D01*
X149934648Y-92239987D02*
X149744172Y-92239987D01*
X149744172Y-92239987D02*
X149648934Y-92192368D01*
X149648934Y-92192368D02*
X149601315Y-92097129D01*
X149601315Y-92097129D02*
X149601315Y-92049510D01*
X149601315Y-92049510D02*
X149648934Y-91954272D01*
X149648934Y-91954272D02*
X149744172Y-91906653D01*
X149744172Y-91906653D02*
X149887029Y-91906653D01*
X149887029Y-91906653D02*
X149982267Y-91859034D01*
X149982267Y-91859034D02*
X150029886Y-91763796D01*
X150029886Y-91763796D02*
X150029886Y-91716177D01*
X150029886Y-91716177D02*
X149982267Y-91620939D01*
X149982267Y-91620939D02*
X149887029Y-91573320D01*
X149887029Y-91573320D02*
X149744172Y-91573320D01*
X149744172Y-91573320D02*
X149648934Y-91620939D01*
X149315600Y-91573320D02*
X148934648Y-91573320D01*
X149172743Y-91239987D02*
X149172743Y-92097129D01*
X149172743Y-92097129D02*
X149125124Y-92192368D01*
X149125124Y-92192368D02*
X149029886Y-92239987D01*
X149029886Y-92239987D02*
X148934648Y-92239987D01*
X148458457Y-92239987D02*
X148553695Y-92192368D01*
X148553695Y-92192368D02*
X148601314Y-92144748D01*
X148601314Y-92144748D02*
X148648933Y-92049510D01*
X148648933Y-92049510D02*
X148648933Y-91763796D01*
X148648933Y-91763796D02*
X148601314Y-91668558D01*
X148601314Y-91668558D02*
X148553695Y-91620939D01*
X148553695Y-91620939D02*
X148458457Y-91573320D01*
X148458457Y-91573320D02*
X148315600Y-91573320D01*
X148315600Y-91573320D02*
X148220362Y-91620939D01*
X148220362Y-91620939D02*
X148172743Y-91668558D01*
X148172743Y-91668558D02*
X148125124Y-91763796D01*
X148125124Y-91763796D02*
X148125124Y-92049510D01*
X148125124Y-92049510D02*
X148172743Y-92144748D01*
X148172743Y-92144748D02*
X148220362Y-92192368D01*
X148220362Y-92192368D02*
X148315600Y-92239987D01*
X148315600Y-92239987D02*
X148458457Y-92239987D01*
X147696552Y-91573320D02*
X147696552Y-92239987D01*
X147696552Y-91668558D02*
X147648933Y-91620939D01*
X147648933Y-91620939D02*
X147553695Y-91573320D01*
X147553695Y-91573320D02*
X147410838Y-91573320D01*
X147410838Y-91573320D02*
X147315600Y-91620939D01*
X147315600Y-91620939D02*
X147267981Y-91716177D01*
X147267981Y-91716177D02*
X147267981Y-92239987D01*
X146410838Y-92192368D02*
X146506076Y-92239987D01*
X146506076Y-92239987D02*
X146696552Y-92239987D01*
X146696552Y-92239987D02*
X146791790Y-92192368D01*
X146791790Y-92192368D02*
X146839409Y-92097129D01*
X146839409Y-92097129D02*
X146839409Y-91716177D01*
X146839409Y-91716177D02*
X146791790Y-91620939D01*
X146791790Y-91620939D02*
X146696552Y-91573320D01*
X146696552Y-91573320D02*
X146506076Y-91573320D01*
X146506076Y-91573320D02*
X146410838Y-91620939D01*
X146410838Y-91620939D02*
X146363219Y-91716177D01*
X146363219Y-91716177D02*
X146363219Y-91811415D01*
X146363219Y-91811415D02*
X146839409Y-91906653D01*
X145220361Y-91335225D02*
X145172742Y-91287606D01*
X145172742Y-91287606D02*
X145077504Y-91239987D01*
X145077504Y-91239987D02*
X144839409Y-91239987D01*
X144839409Y-91239987D02*
X144744171Y-91287606D01*
X144744171Y-91287606D02*
X144696552Y-91335225D01*
X144696552Y-91335225D02*
X144648933Y-91430463D01*
X144648933Y-91430463D02*
X144648933Y-91525701D01*
X144648933Y-91525701D02*
X144696552Y-91668558D01*
X144696552Y-91668558D02*
X145267980Y-92239987D01*
X145267980Y-92239987D02*
X144648933Y-92239987D01*
X143744171Y-91239987D02*
X144220361Y-91239987D01*
X144220361Y-91239987D02*
X144267980Y-91716177D01*
X144267980Y-91716177D02*
X144220361Y-91668558D01*
X144220361Y-91668558D02*
X144125123Y-91620939D01*
X144125123Y-91620939D02*
X143887028Y-91620939D01*
X143887028Y-91620939D02*
X143791790Y-91668558D01*
X143791790Y-91668558D02*
X143744171Y-91716177D01*
X143744171Y-91716177D02*
X143696552Y-91811415D01*
X143696552Y-91811415D02*
X143696552Y-92049510D01*
X143696552Y-92049510D02*
X143744171Y-92144748D01*
X143744171Y-92144748D02*
X143791790Y-92192368D01*
X143791790Y-92192368D02*
X143887028Y-92239987D01*
X143887028Y-92239987D02*
X144125123Y-92239987D01*
X144125123Y-92239987D02*
X144220361Y-92192368D01*
X144220361Y-92192368D02*
X144267980Y-92144748D01*
X142553695Y-91192368D02*
X143410837Y-92478082D01*
X142267980Y-91335225D02*
X142220361Y-91287606D01*
X142220361Y-91287606D02*
X142125123Y-91239987D01*
X142125123Y-91239987D02*
X141887028Y-91239987D01*
X141887028Y-91239987D02*
X141791790Y-91287606D01*
X141791790Y-91287606D02*
X141744171Y-91335225D01*
X141744171Y-91335225D02*
X141696552Y-91430463D01*
X141696552Y-91430463D02*
X141696552Y-91525701D01*
X141696552Y-91525701D02*
X141744171Y-91668558D01*
X141744171Y-91668558D02*
X142315599Y-92239987D01*
X142315599Y-92239987D02*
X141696552Y-92239987D01*
X140839409Y-91239987D02*
X141029885Y-91239987D01*
X141029885Y-91239987D02*
X141125123Y-91287606D01*
X141125123Y-91287606D02*
X141172742Y-91335225D01*
X141172742Y-91335225D02*
X141267980Y-91478082D01*
X141267980Y-91478082D02*
X141315599Y-91668558D01*
X141315599Y-91668558D02*
X141315599Y-92049510D01*
X141315599Y-92049510D02*
X141267980Y-92144748D01*
X141267980Y-92144748D02*
X141220361Y-92192368D01*
X141220361Y-92192368D02*
X141125123Y-92239987D01*
X141125123Y-92239987D02*
X140934647Y-92239987D01*
X140934647Y-92239987D02*
X140839409Y-92192368D01*
X140839409Y-92192368D02*
X140791790Y-92144748D01*
X140791790Y-92144748D02*
X140744171Y-92049510D01*
X140744171Y-92049510D02*
X140744171Y-91811415D01*
X140744171Y-91811415D02*
X140791790Y-91716177D01*
X140791790Y-91716177D02*
X140839409Y-91668558D01*
X140839409Y-91668558D02*
X140934647Y-91620939D01*
X140934647Y-91620939D02*
X141125123Y-91620939D01*
X141125123Y-91620939D02*
X141220361Y-91668558D01*
X141220361Y-91668558D02*
X141267980Y-91716177D01*
X141267980Y-91716177D02*
X141315599Y-91811415D01*
X156506077Y-92849931D02*
X155934649Y-92849931D01*
X156220363Y-93849931D02*
X156220363Y-92849931D01*
X155220363Y-93802312D02*
X155315601Y-93849931D01*
X155315601Y-93849931D02*
X155506077Y-93849931D01*
X155506077Y-93849931D02*
X155601315Y-93802312D01*
X155601315Y-93802312D02*
X155648934Y-93707073D01*
X155648934Y-93707073D02*
X155648934Y-93326121D01*
X155648934Y-93326121D02*
X155601315Y-93230883D01*
X155601315Y-93230883D02*
X155506077Y-93183264D01*
X155506077Y-93183264D02*
X155315601Y-93183264D01*
X155315601Y-93183264D02*
X155220363Y-93230883D01*
X155220363Y-93230883D02*
X155172744Y-93326121D01*
X155172744Y-93326121D02*
X155172744Y-93421359D01*
X155172744Y-93421359D02*
X155648934Y-93516597D01*
X154315601Y-93849931D02*
X154315601Y-93326121D01*
X154315601Y-93326121D02*
X154363220Y-93230883D01*
X154363220Y-93230883D02*
X154458458Y-93183264D01*
X154458458Y-93183264D02*
X154648934Y-93183264D01*
X154648934Y-93183264D02*
X154744172Y-93230883D01*
X154315601Y-93802312D02*
X154410839Y-93849931D01*
X154410839Y-93849931D02*
X154648934Y-93849931D01*
X154648934Y-93849931D02*
X154744172Y-93802312D01*
X154744172Y-93802312D02*
X154791791Y-93707073D01*
X154791791Y-93707073D02*
X154791791Y-93611835D01*
X154791791Y-93611835D02*
X154744172Y-93516597D01*
X154744172Y-93516597D02*
X154648934Y-93468978D01*
X154648934Y-93468978D02*
X154410839Y-93468978D01*
X154410839Y-93468978D02*
X154315601Y-93421359D01*
X153839410Y-93849931D02*
X153839410Y-93183264D01*
X153839410Y-93278502D02*
X153791791Y-93230883D01*
X153791791Y-93230883D02*
X153696553Y-93183264D01*
X153696553Y-93183264D02*
X153553696Y-93183264D01*
X153553696Y-93183264D02*
X153458458Y-93230883D01*
X153458458Y-93230883D02*
X153410839Y-93326121D01*
X153410839Y-93326121D02*
X153410839Y-93849931D01*
X153410839Y-93326121D02*
X153363220Y-93230883D01*
X153363220Y-93230883D02*
X153267982Y-93183264D01*
X153267982Y-93183264D02*
X153125125Y-93183264D01*
X153125125Y-93183264D02*
X153029886Y-93230883D01*
X153029886Y-93230883D02*
X152982267Y-93326121D01*
X152982267Y-93326121D02*
X152982267Y-93849931D01*
X151458458Y-92849931D02*
X151458458Y-93564216D01*
X151458458Y-93564216D02*
X151506077Y-93707073D01*
X151506077Y-93707073D02*
X151601315Y-93802312D01*
X151601315Y-93802312D02*
X151744172Y-93849931D01*
X151744172Y-93849931D02*
X151839410Y-93849931D01*
X150553696Y-93849931D02*
X150553696Y-93326121D01*
X150553696Y-93326121D02*
X150601315Y-93230883D01*
X150601315Y-93230883D02*
X150696553Y-93183264D01*
X150696553Y-93183264D02*
X150887029Y-93183264D01*
X150887029Y-93183264D02*
X150982267Y-93230883D01*
X150553696Y-93802312D02*
X150648934Y-93849931D01*
X150648934Y-93849931D02*
X150887029Y-93849931D01*
X150887029Y-93849931D02*
X150982267Y-93802312D01*
X150982267Y-93802312D02*
X151029886Y-93707073D01*
X151029886Y-93707073D02*
X151029886Y-93611835D01*
X151029886Y-93611835D02*
X150982267Y-93516597D01*
X150982267Y-93516597D02*
X150887029Y-93468978D01*
X150887029Y-93468978D02*
X150648934Y-93468978D01*
X150648934Y-93468978D02*
X150553696Y-93421359D01*
X150172743Y-93849931D02*
X149648934Y-93183264D01*
X150172743Y-93183264D02*
X149648934Y-93849931D01*
X149267981Y-93849931D02*
X149267981Y-93183264D01*
X149267981Y-92849931D02*
X149315600Y-92897550D01*
X149315600Y-92897550D02*
X149267981Y-92945169D01*
X149267981Y-92945169D02*
X149220362Y-92897550D01*
X149220362Y-92897550D02*
X149267981Y-92849931D01*
X149267981Y-92849931D02*
X149267981Y-92945169D01*
X148839410Y-93802312D02*
X148744172Y-93849931D01*
X148744172Y-93849931D02*
X148553696Y-93849931D01*
X148553696Y-93849931D02*
X148458458Y-93802312D01*
X148458458Y-93802312D02*
X148410839Y-93707073D01*
X148410839Y-93707073D02*
X148410839Y-93659454D01*
X148410839Y-93659454D02*
X148458458Y-93564216D01*
X148458458Y-93564216D02*
X148553696Y-93516597D01*
X148553696Y-93516597D02*
X148696553Y-93516597D01*
X148696553Y-93516597D02*
X148791791Y-93468978D01*
X148791791Y-93468978D02*
X148839410Y-93373740D01*
X148839410Y-93373740D02*
X148839410Y-93326121D01*
X148839410Y-93326121D02*
X148791791Y-93230883D01*
X148791791Y-93230883D02*
X148696553Y-93183264D01*
X148696553Y-93183264D02*
X148553696Y-93183264D01*
X148553696Y-93183264D02*
X148458458Y-93230883D01*
X147696553Y-94230883D02*
X147744172Y-94183264D01*
X147744172Y-94183264D02*
X147839410Y-94040407D01*
X147839410Y-94040407D02*
X147887029Y-93945169D01*
X147887029Y-93945169D02*
X147934648Y-93802312D01*
X147934648Y-93802312D02*
X147982267Y-93564216D01*
X147982267Y-93564216D02*
X147982267Y-93373740D01*
X147982267Y-93373740D02*
X147934648Y-93135645D01*
X147934648Y-93135645D02*
X147887029Y-92992788D01*
X147887029Y-92992788D02*
X147839410Y-92897550D01*
X147839410Y-92897550D02*
X147744172Y-92754692D01*
X147744172Y-92754692D02*
X147696553Y-92707073D01*
X147125124Y-92849931D02*
X147029886Y-92849931D01*
X147029886Y-92849931D02*
X146934648Y-92897550D01*
X146934648Y-92897550D02*
X146887029Y-92945169D01*
X146887029Y-92945169D02*
X146839410Y-93040407D01*
X146839410Y-93040407D02*
X146791791Y-93230883D01*
X146791791Y-93230883D02*
X146791791Y-93468978D01*
X146791791Y-93468978D02*
X146839410Y-93659454D01*
X146839410Y-93659454D02*
X146887029Y-93754692D01*
X146887029Y-93754692D02*
X146934648Y-93802312D01*
X146934648Y-93802312D02*
X147029886Y-93849931D01*
X147029886Y-93849931D02*
X147125124Y-93849931D01*
X147125124Y-93849931D02*
X147220362Y-93802312D01*
X147220362Y-93802312D02*
X147267981Y-93754692D01*
X147267981Y-93754692D02*
X147315600Y-93659454D01*
X147315600Y-93659454D02*
X147363219Y-93468978D01*
X147363219Y-93468978D02*
X147363219Y-93230883D01*
X147363219Y-93230883D02*
X147315600Y-93040407D01*
X147315600Y-93040407D02*
X147267981Y-92945169D01*
X147267981Y-92945169D02*
X147220362Y-92897550D01*
X147220362Y-92897550D02*
X147125124Y-92849931D01*
X145839410Y-93849931D02*
X146410838Y-93849931D01*
X146125124Y-93849931D02*
X146125124Y-92849931D01*
X146125124Y-92849931D02*
X146220362Y-92992788D01*
X146220362Y-92992788D02*
X146315600Y-93088026D01*
X146315600Y-93088026D02*
X146410838Y-93135645D01*
X145506076Y-94230883D02*
X145458457Y-94183264D01*
X145458457Y-94183264D02*
X145363219Y-94040407D01*
X145363219Y-94040407D02*
X145315600Y-93945169D01*
X145315600Y-93945169D02*
X145267981Y-93802312D01*
X145267981Y-93802312D02*
X145220362Y-93564216D01*
X145220362Y-93564216D02*
X145220362Y-93373740D01*
X145220362Y-93373740D02*
X145267981Y-93135645D01*
X145267981Y-93135645D02*
X145315600Y-92992788D01*
X145315600Y-92992788D02*
X145363219Y-92897550D01*
X145363219Y-92897550D02*
X145458457Y-92754692D01*
X145458457Y-92754692D02*
X145506076Y-92707073D01*
X156410839Y-95412256D02*
X156267982Y-95459875D01*
X156267982Y-95459875D02*
X156029887Y-95459875D01*
X156029887Y-95459875D02*
X155934649Y-95412256D01*
X155934649Y-95412256D02*
X155887030Y-95364636D01*
X155887030Y-95364636D02*
X155839411Y-95269398D01*
X155839411Y-95269398D02*
X155839411Y-95174160D01*
X155839411Y-95174160D02*
X155887030Y-95078922D01*
X155887030Y-95078922D02*
X155934649Y-95031303D01*
X155934649Y-95031303D02*
X156029887Y-94983684D01*
X156029887Y-94983684D02*
X156220363Y-94936065D01*
X156220363Y-94936065D02*
X156315601Y-94888446D01*
X156315601Y-94888446D02*
X156363220Y-94840827D01*
X156363220Y-94840827D02*
X156410839Y-94745589D01*
X156410839Y-94745589D02*
X156410839Y-94650351D01*
X156410839Y-94650351D02*
X156363220Y-94555113D01*
X156363220Y-94555113D02*
X156315601Y-94507494D01*
X156315601Y-94507494D02*
X156220363Y-94459875D01*
X156220363Y-94459875D02*
X155982268Y-94459875D01*
X155982268Y-94459875D02*
X155839411Y-94507494D01*
X155410839Y-95459875D02*
X155410839Y-94793208D01*
X155410839Y-94459875D02*
X155458458Y-94507494D01*
X155458458Y-94507494D02*
X155410839Y-94555113D01*
X155410839Y-94555113D02*
X155363220Y-94507494D01*
X155363220Y-94507494D02*
X155410839Y-94459875D01*
X155410839Y-94459875D02*
X155410839Y-94555113D01*
X154506078Y-94793208D02*
X154506078Y-95602732D01*
X154506078Y-95602732D02*
X154553697Y-95697970D01*
X154553697Y-95697970D02*
X154601316Y-95745589D01*
X154601316Y-95745589D02*
X154696554Y-95793208D01*
X154696554Y-95793208D02*
X154839411Y-95793208D01*
X154839411Y-95793208D02*
X154934649Y-95745589D01*
X154506078Y-95412256D02*
X154601316Y-95459875D01*
X154601316Y-95459875D02*
X154791792Y-95459875D01*
X154791792Y-95459875D02*
X154887030Y-95412256D01*
X154887030Y-95412256D02*
X154934649Y-95364636D01*
X154934649Y-95364636D02*
X154982268Y-95269398D01*
X154982268Y-95269398D02*
X154982268Y-94983684D01*
X154982268Y-94983684D02*
X154934649Y-94888446D01*
X154934649Y-94888446D02*
X154887030Y-94840827D01*
X154887030Y-94840827D02*
X154791792Y-94793208D01*
X154791792Y-94793208D02*
X154601316Y-94793208D01*
X154601316Y-94793208D02*
X154506078Y-94840827D01*
X154029887Y-94793208D02*
X154029887Y-95459875D01*
X154029887Y-94888446D02*
X153982268Y-94840827D01*
X153982268Y-94840827D02*
X153887030Y-94793208D01*
X153887030Y-94793208D02*
X153744173Y-94793208D01*
X153744173Y-94793208D02*
X153648935Y-94840827D01*
X153648935Y-94840827D02*
X153601316Y-94936065D01*
X153601316Y-94936065D02*
X153601316Y-95459875D01*
X152696554Y-95459875D02*
X152696554Y-94936065D01*
X152696554Y-94936065D02*
X152744173Y-94840827D01*
X152744173Y-94840827D02*
X152839411Y-94793208D01*
X152839411Y-94793208D02*
X153029887Y-94793208D01*
X153029887Y-94793208D02*
X153125125Y-94840827D01*
X152696554Y-95412256D02*
X152791792Y-95459875D01*
X152791792Y-95459875D02*
X153029887Y-95459875D01*
X153029887Y-95459875D02*
X153125125Y-95412256D01*
X153125125Y-95412256D02*
X153172744Y-95317017D01*
X153172744Y-95317017D02*
X153172744Y-95221779D01*
X153172744Y-95221779D02*
X153125125Y-95126541D01*
X153125125Y-95126541D02*
X153029887Y-95078922D01*
X153029887Y-95078922D02*
X152791792Y-95078922D01*
X152791792Y-95078922D02*
X152696554Y-95031303D01*
X152077506Y-95459875D02*
X152172744Y-95412256D01*
X152172744Y-95412256D02*
X152220363Y-95317017D01*
X152220363Y-95317017D02*
X152220363Y-94459875D01*
X150934648Y-95459875D02*
X150934648Y-94459875D01*
X150934648Y-94459875D02*
X150553696Y-94459875D01*
X150553696Y-94459875D02*
X150458458Y-94507494D01*
X150458458Y-94507494D02*
X150410839Y-94555113D01*
X150410839Y-94555113D02*
X150363220Y-94650351D01*
X150363220Y-94650351D02*
X150363220Y-94793208D01*
X150363220Y-94793208D02*
X150410839Y-94888446D01*
X150410839Y-94888446D02*
X150458458Y-94936065D01*
X150458458Y-94936065D02*
X150553696Y-94983684D01*
X150553696Y-94983684D02*
X150934648Y-94983684D01*
X149934648Y-95459875D02*
X149934648Y-94793208D01*
X149934648Y-94983684D02*
X149887029Y-94888446D01*
X149887029Y-94888446D02*
X149839410Y-94840827D01*
X149839410Y-94840827D02*
X149744172Y-94793208D01*
X149744172Y-94793208D02*
X149648934Y-94793208D01*
X149172743Y-95459875D02*
X149267981Y-95412256D01*
X149267981Y-95412256D02*
X149315600Y-95364636D01*
X149315600Y-95364636D02*
X149363219Y-95269398D01*
X149363219Y-95269398D02*
X149363219Y-94983684D01*
X149363219Y-94983684D02*
X149315600Y-94888446D01*
X149315600Y-94888446D02*
X149267981Y-94840827D01*
X149267981Y-94840827D02*
X149172743Y-94793208D01*
X149172743Y-94793208D02*
X149029886Y-94793208D01*
X149029886Y-94793208D02*
X148934648Y-94840827D01*
X148934648Y-94840827D02*
X148887029Y-94888446D01*
X148887029Y-94888446D02*
X148839410Y-94983684D01*
X148839410Y-94983684D02*
X148839410Y-95269398D01*
X148839410Y-95269398D02*
X148887029Y-95364636D01*
X148887029Y-95364636D02*
X148934648Y-95412256D01*
X148934648Y-95412256D02*
X149029886Y-95459875D01*
X149029886Y-95459875D02*
X149172743Y-95459875D01*
X147982267Y-95412256D02*
X148077505Y-95459875D01*
X148077505Y-95459875D02*
X148267981Y-95459875D01*
X148267981Y-95459875D02*
X148363219Y-95412256D01*
X148363219Y-95412256D02*
X148410838Y-95364636D01*
X148410838Y-95364636D02*
X148458457Y-95269398D01*
X148458457Y-95269398D02*
X148458457Y-94983684D01*
X148458457Y-94983684D02*
X148410838Y-94888446D01*
X148410838Y-94888446D02*
X148363219Y-94840827D01*
X148363219Y-94840827D02*
X148267981Y-94793208D01*
X148267981Y-94793208D02*
X148077505Y-94793208D01*
X148077505Y-94793208D02*
X147982267Y-94840827D01*
X147172743Y-95412256D02*
X147267981Y-95459875D01*
X147267981Y-95459875D02*
X147458457Y-95459875D01*
X147458457Y-95459875D02*
X147553695Y-95412256D01*
X147553695Y-95412256D02*
X147601314Y-95317017D01*
X147601314Y-95317017D02*
X147601314Y-94936065D01*
X147601314Y-94936065D02*
X147553695Y-94840827D01*
X147553695Y-94840827D02*
X147458457Y-94793208D01*
X147458457Y-94793208D02*
X147267981Y-94793208D01*
X147267981Y-94793208D02*
X147172743Y-94840827D01*
X147172743Y-94840827D02*
X147125124Y-94936065D01*
X147125124Y-94936065D02*
X147125124Y-95031303D01*
X147125124Y-95031303D02*
X147601314Y-95126541D01*
X146744171Y-95412256D02*
X146648933Y-95459875D01*
X146648933Y-95459875D02*
X146458457Y-95459875D01*
X146458457Y-95459875D02*
X146363219Y-95412256D01*
X146363219Y-95412256D02*
X146315600Y-95317017D01*
X146315600Y-95317017D02*
X146315600Y-95269398D01*
X146315600Y-95269398D02*
X146363219Y-95174160D01*
X146363219Y-95174160D02*
X146458457Y-95126541D01*
X146458457Y-95126541D02*
X146601314Y-95126541D01*
X146601314Y-95126541D02*
X146696552Y-95078922D01*
X146696552Y-95078922D02*
X146744171Y-94983684D01*
X146744171Y-94983684D02*
X146744171Y-94936065D01*
X146744171Y-94936065D02*
X146696552Y-94840827D01*
X146696552Y-94840827D02*
X146601314Y-94793208D01*
X146601314Y-94793208D02*
X146458457Y-94793208D01*
X146458457Y-94793208D02*
X146363219Y-94840827D01*
X145934647Y-95412256D02*
X145839409Y-95459875D01*
X145839409Y-95459875D02*
X145648933Y-95459875D01*
X145648933Y-95459875D02*
X145553695Y-95412256D01*
X145553695Y-95412256D02*
X145506076Y-95317017D01*
X145506076Y-95317017D02*
X145506076Y-95269398D01*
X145506076Y-95269398D02*
X145553695Y-95174160D01*
X145553695Y-95174160D02*
X145648933Y-95126541D01*
X145648933Y-95126541D02*
X145791790Y-95126541D01*
X145791790Y-95126541D02*
X145887028Y-95078922D01*
X145887028Y-95078922D02*
X145934647Y-94983684D01*
X145934647Y-94983684D02*
X145934647Y-94936065D01*
X145934647Y-94936065D02*
X145887028Y-94840827D01*
X145887028Y-94840827D02*
X145791790Y-94793208D01*
X145791790Y-94793208D02*
X145648933Y-94793208D01*
X145648933Y-94793208D02*
X145553695Y-94840827D01*
X145077504Y-95459875D02*
X145077504Y-94793208D01*
X145077504Y-94459875D02*
X145125123Y-94507494D01*
X145125123Y-94507494D02*
X145077504Y-94555113D01*
X145077504Y-94555113D02*
X145029885Y-94507494D01*
X145029885Y-94507494D02*
X145077504Y-94459875D01*
X145077504Y-94459875D02*
X145077504Y-94555113D01*
X144601314Y-94793208D02*
X144601314Y-95459875D01*
X144601314Y-94888446D02*
X144553695Y-94840827D01*
X144553695Y-94840827D02*
X144458457Y-94793208D01*
X144458457Y-94793208D02*
X144315600Y-94793208D01*
X144315600Y-94793208D02*
X144220362Y-94840827D01*
X144220362Y-94840827D02*
X144172743Y-94936065D01*
X144172743Y-94936065D02*
X144172743Y-95459875D01*
X143267981Y-94793208D02*
X143267981Y-95602732D01*
X143267981Y-95602732D02*
X143315600Y-95697970D01*
X143315600Y-95697970D02*
X143363219Y-95745589D01*
X143363219Y-95745589D02*
X143458457Y-95793208D01*
X143458457Y-95793208D02*
X143601314Y-95793208D01*
X143601314Y-95793208D02*
X143696552Y-95745589D01*
X143267981Y-95412256D02*
X143363219Y-95459875D01*
X143363219Y-95459875D02*
X143553695Y-95459875D01*
X143553695Y-95459875D02*
X143648933Y-95412256D01*
X143648933Y-95412256D02*
X143696552Y-95364636D01*
X143696552Y-95364636D02*
X143744171Y-95269398D01*
X143744171Y-95269398D02*
X143744171Y-94983684D01*
X143744171Y-94983684D02*
X143696552Y-94888446D01*
X143696552Y-94888446D02*
X143648933Y-94840827D01*
X143648933Y-94840827D02*
X143553695Y-94793208D01*
X143553695Y-94793208D02*
X143363219Y-94793208D01*
X143363219Y-94793208D02*
X143267981Y-94840827D01*
X142506076Y-95840827D02*
X142553695Y-95793208D01*
X142553695Y-95793208D02*
X142648933Y-95650351D01*
X142648933Y-95650351D02*
X142696552Y-95555113D01*
X142696552Y-95555113D02*
X142744171Y-95412256D01*
X142744171Y-95412256D02*
X142791790Y-95174160D01*
X142791790Y-95174160D02*
X142791790Y-94983684D01*
X142791790Y-94983684D02*
X142744171Y-94745589D01*
X142744171Y-94745589D02*
X142696552Y-94602732D01*
X142696552Y-94602732D02*
X142648933Y-94507494D01*
X142648933Y-94507494D02*
X142553695Y-94364636D01*
X142553695Y-94364636D02*
X142506076Y-94317017D01*
X142172742Y-95174160D02*
X141696552Y-95174160D01*
X142267980Y-95459875D02*
X141934647Y-94459875D01*
X141934647Y-94459875D02*
X141601314Y-95459875D01*
X141267980Y-95459875D02*
X141267980Y-94459875D01*
X141267980Y-94459875D02*
X141029885Y-94459875D01*
X141029885Y-94459875D02*
X140887028Y-94507494D01*
X140887028Y-94507494D02*
X140791790Y-94602732D01*
X140791790Y-94602732D02*
X140744171Y-94697970D01*
X140744171Y-94697970D02*
X140696552Y-94888446D01*
X140696552Y-94888446D02*
X140696552Y-95031303D01*
X140696552Y-95031303D02*
X140744171Y-95221779D01*
X140744171Y-95221779D02*
X140791790Y-95317017D01*
X140791790Y-95317017D02*
X140887028Y-95412256D01*
X140887028Y-95412256D02*
X141029885Y-95459875D01*
X141029885Y-95459875D02*
X141267980Y-95459875D01*
X139696552Y-95364636D02*
X139744171Y-95412256D01*
X139744171Y-95412256D02*
X139887028Y-95459875D01*
X139887028Y-95459875D02*
X139982266Y-95459875D01*
X139982266Y-95459875D02*
X140125123Y-95412256D01*
X140125123Y-95412256D02*
X140220361Y-95317017D01*
X140220361Y-95317017D02*
X140267980Y-95221779D01*
X140267980Y-95221779D02*
X140315599Y-95031303D01*
X140315599Y-95031303D02*
X140315599Y-94888446D01*
X140315599Y-94888446D02*
X140267980Y-94697970D01*
X140267980Y-94697970D02*
X140220361Y-94602732D01*
X140220361Y-94602732D02*
X140125123Y-94507494D01*
X140125123Y-94507494D02*
X139982266Y-94459875D01*
X139982266Y-94459875D02*
X139887028Y-94459875D01*
X139887028Y-94459875D02*
X139744171Y-94507494D01*
X139744171Y-94507494D02*
X139696552Y-94555113D01*
X139363218Y-95840827D02*
X139315599Y-95793208D01*
X139315599Y-95793208D02*
X139220361Y-95650351D01*
X139220361Y-95650351D02*
X139172742Y-95555113D01*
X139172742Y-95555113D02*
X139125123Y-95412256D01*
X139125123Y-95412256D02*
X139077504Y-95174160D01*
X139077504Y-95174160D02*
X139077504Y-94983684D01*
X139077504Y-94983684D02*
X139125123Y-94745589D01*
X139125123Y-94745589D02*
X139172742Y-94602732D01*
X139172742Y-94602732D02*
X139220361Y-94507494D01*
X139220361Y-94507494D02*
X139315599Y-94364636D01*
X139315599Y-94364636D02*
X139363218Y-94317017D01*
X156363220Y-97069819D02*
X156363220Y-96069819D01*
X156363220Y-96069819D02*
X156029887Y-96784104D01*
X156029887Y-96784104D02*
X155696554Y-96069819D01*
X155696554Y-96069819D02*
X155696554Y-97069819D01*
X155077506Y-97069819D02*
X155172744Y-97022200D01*
X155172744Y-97022200D02*
X155220363Y-96974580D01*
X155220363Y-96974580D02*
X155267982Y-96879342D01*
X155267982Y-96879342D02*
X155267982Y-96593628D01*
X155267982Y-96593628D02*
X155220363Y-96498390D01*
X155220363Y-96498390D02*
X155172744Y-96450771D01*
X155172744Y-96450771D02*
X155077506Y-96403152D01*
X155077506Y-96403152D02*
X154934649Y-96403152D01*
X154934649Y-96403152D02*
X154839411Y-96450771D01*
X154839411Y-96450771D02*
X154791792Y-96498390D01*
X154791792Y-96498390D02*
X154744173Y-96593628D01*
X154744173Y-96593628D02*
X154744173Y-96879342D01*
X154744173Y-96879342D02*
X154791792Y-96974580D01*
X154791792Y-96974580D02*
X154839411Y-97022200D01*
X154839411Y-97022200D02*
X154934649Y-97069819D01*
X154934649Y-97069819D02*
X155077506Y-97069819D01*
X153887030Y-97069819D02*
X153887030Y-96069819D01*
X153887030Y-97022200D02*
X153982268Y-97069819D01*
X153982268Y-97069819D02*
X154172744Y-97069819D01*
X154172744Y-97069819D02*
X154267982Y-97022200D01*
X154267982Y-97022200D02*
X154315601Y-96974580D01*
X154315601Y-96974580D02*
X154363220Y-96879342D01*
X154363220Y-96879342D02*
X154363220Y-96593628D01*
X154363220Y-96593628D02*
X154315601Y-96498390D01*
X154315601Y-96498390D02*
X154267982Y-96450771D01*
X154267982Y-96450771D02*
X154172744Y-96403152D01*
X154172744Y-96403152D02*
X153982268Y-96403152D01*
X153982268Y-96403152D02*
X153887030Y-96450771D01*
X152982268Y-96403152D02*
X152982268Y-97069819D01*
X153410839Y-96403152D02*
X153410839Y-96926961D01*
X153410839Y-96926961D02*
X153363220Y-97022200D01*
X153363220Y-97022200D02*
X153267982Y-97069819D01*
X153267982Y-97069819D02*
X153125125Y-97069819D01*
X153125125Y-97069819D02*
X153029887Y-97022200D01*
X153029887Y-97022200D02*
X152982268Y-96974580D01*
X152363220Y-97069819D02*
X152458458Y-97022200D01*
X152458458Y-97022200D02*
X152506077Y-96926961D01*
X152506077Y-96926961D02*
X152506077Y-96069819D01*
X151601315Y-97022200D02*
X151696553Y-97069819D01*
X151696553Y-97069819D02*
X151887029Y-97069819D01*
X151887029Y-97069819D02*
X151982267Y-97022200D01*
X151982267Y-97022200D02*
X152029886Y-96926961D01*
X152029886Y-96926961D02*
X152029886Y-96546009D01*
X152029886Y-96546009D02*
X151982267Y-96450771D01*
X151982267Y-96450771D02*
X151887029Y-96403152D01*
X151887029Y-96403152D02*
X151696553Y-96403152D01*
X151696553Y-96403152D02*
X151601315Y-96450771D01*
X151601315Y-96450771D02*
X151553696Y-96546009D01*
X151553696Y-96546009D02*
X151553696Y-96641247D01*
X151553696Y-96641247D02*
X152029886Y-96736485D01*
X150029886Y-96546009D02*
X149887029Y-96593628D01*
X149887029Y-96593628D02*
X149839410Y-96641247D01*
X149839410Y-96641247D02*
X149791791Y-96736485D01*
X149791791Y-96736485D02*
X149791791Y-96879342D01*
X149791791Y-96879342D02*
X149839410Y-96974580D01*
X149839410Y-96974580D02*
X149887029Y-97022200D01*
X149887029Y-97022200D02*
X149982267Y-97069819D01*
X149982267Y-97069819D02*
X150363219Y-97069819D01*
X150363219Y-97069819D02*
X150363219Y-96069819D01*
X150363219Y-96069819D02*
X150029886Y-96069819D01*
X150029886Y-96069819D02*
X149934648Y-96117438D01*
X149934648Y-96117438D02*
X149887029Y-96165057D01*
X149887029Y-96165057D02*
X149839410Y-96260295D01*
X149839410Y-96260295D02*
X149839410Y-96355533D01*
X149839410Y-96355533D02*
X149887029Y-96450771D01*
X149887029Y-96450771D02*
X149934648Y-96498390D01*
X149934648Y-96498390D02*
X150029886Y-96546009D01*
X150029886Y-96546009D02*
X150363219Y-96546009D01*
X149458457Y-96403152D02*
X149220362Y-97069819D01*
X148982267Y-96403152D02*
X149220362Y-97069819D01*
X149220362Y-97069819D02*
X149315600Y-97307914D01*
X149315600Y-97307914D02*
X149363219Y-97355533D01*
X149363219Y-97355533D02*
X149458457Y-97403152D01*
X147553695Y-96069819D02*
X147553695Y-96784104D01*
X147553695Y-96784104D02*
X147601314Y-96926961D01*
X147601314Y-96926961D02*
X147696552Y-97022200D01*
X147696552Y-97022200D02*
X147839409Y-97069819D01*
X147839409Y-97069819D02*
X147934647Y-97069819D01*
X146648933Y-97069819D02*
X146648933Y-96546009D01*
X146648933Y-96546009D02*
X146696552Y-96450771D01*
X146696552Y-96450771D02*
X146791790Y-96403152D01*
X146791790Y-96403152D02*
X146982266Y-96403152D01*
X146982266Y-96403152D02*
X147077504Y-96450771D01*
X146648933Y-97022200D02*
X146744171Y-97069819D01*
X146744171Y-97069819D02*
X146982266Y-97069819D01*
X146982266Y-97069819D02*
X147077504Y-97022200D01*
X147077504Y-97022200D02*
X147125123Y-96926961D01*
X147125123Y-96926961D02*
X147125123Y-96831723D01*
X147125123Y-96831723D02*
X147077504Y-96736485D01*
X147077504Y-96736485D02*
X146982266Y-96688866D01*
X146982266Y-96688866D02*
X146744171Y-96688866D01*
X146744171Y-96688866D02*
X146648933Y-96641247D01*
X145744171Y-97022200D02*
X145839409Y-97069819D01*
X145839409Y-97069819D02*
X146029885Y-97069819D01*
X146029885Y-97069819D02*
X146125123Y-97022200D01*
X146125123Y-97022200D02*
X146172742Y-96974580D01*
X146172742Y-96974580D02*
X146220361Y-96879342D01*
X146220361Y-96879342D02*
X146220361Y-96593628D01*
X146220361Y-96593628D02*
X146172742Y-96498390D01*
X146172742Y-96498390D02*
X146125123Y-96450771D01*
X146125123Y-96450771D02*
X146029885Y-96403152D01*
X146029885Y-96403152D02*
X145839409Y-96403152D01*
X145839409Y-96403152D02*
X145744171Y-96450771D01*
X145315599Y-97069819D02*
X145315599Y-96069819D01*
X145220361Y-96688866D02*
X144934647Y-97069819D01*
X144934647Y-96403152D02*
X145315599Y-96784104D01*
X143172742Y-96974580D02*
X143220361Y-97022200D01*
X143220361Y-97022200D02*
X143363218Y-97069819D01*
X143363218Y-97069819D02*
X143458456Y-97069819D01*
X143458456Y-97069819D02*
X143601313Y-97022200D01*
X143601313Y-97022200D02*
X143696551Y-96926961D01*
X143696551Y-96926961D02*
X143744170Y-96831723D01*
X143744170Y-96831723D02*
X143791789Y-96641247D01*
X143791789Y-96641247D02*
X143791789Y-96498390D01*
X143791789Y-96498390D02*
X143744170Y-96307914D01*
X143744170Y-96307914D02*
X143696551Y-96212676D01*
X143696551Y-96212676D02*
X143601313Y-96117438D01*
X143601313Y-96117438D02*
X143458456Y-96069819D01*
X143458456Y-96069819D02*
X143363218Y-96069819D01*
X143363218Y-96069819D02*
X143220361Y-96117438D01*
X143220361Y-96117438D02*
X143172742Y-96165057D01*
X142315599Y-96403152D02*
X142315599Y-97069819D01*
X142744170Y-96403152D02*
X142744170Y-96926961D01*
X142744170Y-96926961D02*
X142696551Y-97022200D01*
X142696551Y-97022200D02*
X142601313Y-97069819D01*
X142601313Y-97069819D02*
X142458456Y-97069819D01*
X142458456Y-97069819D02*
X142363218Y-97022200D01*
X142363218Y-97022200D02*
X142315599Y-96974580D01*
X141839408Y-96403152D02*
X141839408Y-97069819D01*
X141839408Y-96498390D02*
X141791789Y-96450771D01*
X141791789Y-96450771D02*
X141696551Y-96403152D01*
X141696551Y-96403152D02*
X141553694Y-96403152D01*
X141553694Y-96403152D02*
X141458456Y-96450771D01*
X141458456Y-96450771D02*
X141410837Y-96546009D01*
X141410837Y-96546009D02*
X141410837Y-97069819D01*
X140934646Y-96403152D02*
X140934646Y-97069819D01*
X140934646Y-96498390D02*
X140887027Y-96450771D01*
X140887027Y-96450771D02*
X140791789Y-96403152D01*
X140791789Y-96403152D02*
X140648932Y-96403152D01*
X140648932Y-96403152D02*
X140553694Y-96450771D01*
X140553694Y-96450771D02*
X140506075Y-96546009D01*
X140506075Y-96546009D02*
X140506075Y-97069819D01*
X140029884Y-97069819D02*
X140029884Y-96403152D01*
X140029884Y-96069819D02*
X140077503Y-96117438D01*
X140077503Y-96117438D02*
X140029884Y-96165057D01*
X140029884Y-96165057D02*
X139982265Y-96117438D01*
X139982265Y-96117438D02*
X140029884Y-96069819D01*
X140029884Y-96069819D02*
X140029884Y-96165057D01*
X139553694Y-96403152D02*
X139553694Y-97069819D01*
X139553694Y-96498390D02*
X139506075Y-96450771D01*
X139506075Y-96450771D02*
X139410837Y-96403152D01*
X139410837Y-96403152D02*
X139267980Y-96403152D01*
X139267980Y-96403152D02*
X139172742Y-96450771D01*
X139172742Y-96450771D02*
X139125123Y-96546009D01*
X139125123Y-96546009D02*
X139125123Y-97069819D01*
X138220361Y-96403152D02*
X138220361Y-97212676D01*
X138220361Y-97212676D02*
X138267980Y-97307914D01*
X138267980Y-97307914D02*
X138315599Y-97355533D01*
X138315599Y-97355533D02*
X138410837Y-97403152D01*
X138410837Y-97403152D02*
X138553694Y-97403152D01*
X138553694Y-97403152D02*
X138648932Y-97355533D01*
X138220361Y-97022200D02*
X138315599Y-97069819D01*
X138315599Y-97069819D02*
X138506075Y-97069819D01*
X138506075Y-97069819D02*
X138601313Y-97022200D01*
X138601313Y-97022200D02*
X138648932Y-96974580D01*
X138648932Y-96974580D02*
X138696551Y-96879342D01*
X138696551Y-96879342D02*
X138696551Y-96593628D01*
X138696551Y-96593628D02*
X138648932Y-96498390D01*
X138648932Y-96498390D02*
X138601313Y-96450771D01*
X138601313Y-96450771D02*
X138506075Y-96403152D01*
X138506075Y-96403152D02*
X138315599Y-96403152D01*
X138315599Y-96403152D02*
X138220361Y-96450771D01*
X137744170Y-97069819D02*
X137744170Y-96069819D01*
X137315599Y-97069819D02*
X137315599Y-96546009D01*
X137315599Y-96546009D02*
X137363218Y-96450771D01*
X137363218Y-96450771D02*
X137458456Y-96403152D01*
X137458456Y-96403152D02*
X137601313Y-96403152D01*
X137601313Y-96403152D02*
X137696551Y-96450771D01*
X137696551Y-96450771D02*
X137744170Y-96498390D01*
X136410837Y-97069819D02*
X136410837Y-96546009D01*
X136410837Y-96546009D02*
X136458456Y-96450771D01*
X136458456Y-96450771D02*
X136553694Y-96403152D01*
X136553694Y-96403152D02*
X136744170Y-96403152D01*
X136744170Y-96403152D02*
X136839408Y-96450771D01*
X136410837Y-97022200D02*
X136506075Y-97069819D01*
X136506075Y-97069819D02*
X136744170Y-97069819D01*
X136744170Y-97069819D02*
X136839408Y-97022200D01*
X136839408Y-97022200D02*
X136887027Y-96926961D01*
X136887027Y-96926961D02*
X136887027Y-96831723D01*
X136887027Y-96831723D02*
X136839408Y-96736485D01*
X136839408Y-96736485D02*
X136744170Y-96688866D01*
X136744170Y-96688866D02*
X136506075Y-96688866D01*
X136506075Y-96688866D02*
X136410837Y-96641247D01*
X135934646Y-97069819D02*
X135934646Y-96403152D01*
X135934646Y-96498390D02*
X135887027Y-96450771D01*
X135887027Y-96450771D02*
X135791789Y-96403152D01*
X135791789Y-96403152D02*
X135648932Y-96403152D01*
X135648932Y-96403152D02*
X135553694Y-96450771D01*
X135553694Y-96450771D02*
X135506075Y-96546009D01*
X135506075Y-96546009D02*
X135506075Y-97069819D01*
X135506075Y-96546009D02*
X135458456Y-96450771D01*
X135458456Y-96450771D02*
X135363218Y-96403152D01*
X135363218Y-96403152D02*
X135220361Y-96403152D01*
X135220361Y-96403152D02*
X135125122Y-96450771D01*
X135125122Y-96450771D02*
X135077503Y-96546009D01*
X135077503Y-96546009D02*
X135077503Y-97069819D01*
M02*
