%TF.GenerationSoftware,KiCad,Pcbnew,8.0.3*%
%TF.CreationDate,2025-11-12T17:38:37-08:00*%
%TF.ProjectId,Capstone_Signal_Processing,43617073-746f-46e6-955f-5369676e616c,rev?*%
%TF.SameCoordinates,Original*%
%TF.FileFunction,Soldermask,Top*%
%TF.FilePolarity,Negative*%
%FSLAX46Y46*%
G04 Gerber Fmt 4.6, Leading zero omitted, Abs format (unit mm)*
G04 Created by KiCad (PCBNEW 8.0.3) date 2025-11-12 17:38:37*
%MOMM*%
%LPD*%
G01*
G04 APERTURE LIST*
G04 Aperture macros list*
%AMRoundRect*
0 Rectangle with rounded corners*
0 $1 Rounding radius*
0 $2 $3 $4 $5 $6 $7 $8 $9 X,Y pos of 4 corners*
0 Add a 4 corners polygon primitive as box body*
4,1,4,$2,$3,$4,$5,$6,$7,$8,$9,$2,$3,0*
0 Add four circle primitives for the rounded corners*
1,1,$1+$1,$2,$3*
1,1,$1+$1,$4,$5*
1,1,$1+$1,$6,$7*
1,1,$1+$1,$8,$9*
0 Add four rect primitives between the rounded corners*
20,1,$1+$1,$2,$3,$4,$5,0*
20,1,$1+$1,$4,$5,$6,$7,0*
20,1,$1+$1,$6,$7,$8,$9,0*
20,1,$1+$1,$8,$9,$2,$3,0*%
G04 Aperture macros list end*
%ADD10C,4.400000*%
%ADD11RoundRect,0.250000X-0.475000X0.337500X-0.475000X-0.337500X0.475000X-0.337500X0.475000X0.337500X0*%
%ADD12RoundRect,0.250000X-0.350000X-0.450000X0.350000X-0.450000X0.350000X0.450000X-0.350000X0.450000X0*%
%ADD13C,1.750000*%
%ADD14RoundRect,0.250000X-0.600000X-0.725000X0.600000X-0.725000X0.600000X0.725000X-0.600000X0.725000X0*%
%ADD15R,0.762000X0.254000*%
%ADD16R,0.254000X0.762000*%
%ADD17R,2.692400X4.699000*%
%ADD18RoundRect,0.250000X0.475000X-0.337500X0.475000X0.337500X-0.475000X0.337500X-0.475000X-0.337500X0*%
%ADD19C,1.200000*%
%ADD20O,1.700000X1.950000*%
%ADD21RoundRect,0.250000X-0.750000X0.600000X-0.750000X-0.600000X0.750000X-0.600000X0.750000X0.600000X0*%
%ADD22O,2.000000X1.700000*%
G04 APERTURE END LIST*
D10*
%TO.C,H1*%
X130500000Y-82100000D03*
%TD*%
D11*
%TO.C,C3*%
X138800000Y-94800000D03*
X138800000Y-96875000D03*
%TD*%
D10*
%TO.C,H2*%
X160200000Y-82100000D03*
%TD*%
D11*
%TO.C,C6*%
X141700000Y-98900000D03*
X141700000Y-100975000D03*
%TD*%
D12*
%TO.C,R2*%
X138400000Y-105000000D03*
X140400000Y-105000000D03*
%TD*%
D13*
%TO.C,J1*%
X138800000Y-89050000D03*
D14*
X138800000Y-84700000D03*
%TD*%
D15*
%TO.C,U1*%
X145381500Y-96900000D03*
X145381500Y-97400002D03*
X145381500Y-97900001D03*
X145381500Y-98400000D03*
X145381500Y-98900001D03*
X145381500Y-99400001D03*
X145381500Y-99900002D03*
X145381500Y-100400001D03*
X145381500Y-100900000D03*
X145381500Y-101400002D03*
D16*
X146100000Y-102121801D03*
X146599999Y-102121801D03*
X147100000Y-102121801D03*
X147600000Y-102121801D03*
X148100001Y-102121801D03*
X148600000Y-102121801D03*
D15*
X149318500Y-101400002D03*
X149318500Y-100900000D03*
X149318500Y-100400001D03*
X149318500Y-99900002D03*
X149318500Y-99400001D03*
X149318500Y-98900001D03*
X149318500Y-98400000D03*
X149318500Y-97900001D03*
X149318500Y-97400002D03*
X149318500Y-96900000D03*
D16*
X148600000Y-96178201D03*
X148100001Y-96178201D03*
X147600000Y-96178201D03*
X147100000Y-96178201D03*
X146599999Y-96178201D03*
X146100000Y-96178201D03*
D17*
X147350000Y-99150001D03*
%TD*%
D18*
%TO.C,C7*%
X143800000Y-105337500D03*
X143800000Y-103262500D03*
%TD*%
D13*
%TO.C,J3*%
X154000000Y-89015000D03*
D14*
X154000000Y-84665000D03*
%TD*%
D10*
%TO.C,H3*%
X130500000Y-113200000D03*
%TD*%
D12*
%TO.C,R1*%
X133400000Y-105000000D03*
X135400000Y-105000000D03*
%TD*%
D11*
%TO.C,C4*%
X141700000Y-94800000D03*
X141700000Y-96875000D03*
%TD*%
%TO.C,C2*%
X155600000Y-100462500D03*
X155600000Y-102537500D03*
%TD*%
%TO.C,C5*%
X138800000Y-98900000D03*
X138800000Y-100975000D03*
%TD*%
%TO.C,C1*%
X152900000Y-100462500D03*
X152900000Y-102537500D03*
%TD*%
D18*
%TO.C,C9*%
X155600000Y-98200000D03*
X155600000Y-96125000D03*
%TD*%
%TO.C,C8*%
X152900000Y-98200000D03*
X152900000Y-96125000D03*
%TD*%
D19*
%TO.C,J4*%
X141500000Y-113100000D03*
D14*
X143100000Y-111100000D03*
D20*
X145600000Y-111100000D03*
X148100000Y-111100000D03*
X150600000Y-111100000D03*
%TD*%
D13*
%TO.C,J2*%
X146500000Y-89050000D03*
D14*
X146500000Y-84700000D03*
%TD*%
D19*
%TO.C,J5*%
X130600000Y-94700000D03*
D21*
X132600000Y-96300000D03*
D22*
X132600000Y-98800000D03*
%TD*%
D10*
%TO.C,H4*%
X160200000Y-113200000D03*
%TD*%
M02*
