%TF.GenerationSoftware,KiCad,Pcbnew,8.0.3*%
%TF.CreationDate,2025-11-12T17:38:55-08:00*%
%TF.ProjectId,Capstone_Signal_Processing,43617073-746f-46e6-955f-5369676e616c,rev?*%
%TF.SameCoordinates,Original*%
%TF.FileFunction,Drillmap*%
%TF.FilePolarity,Positive*%
%FSLAX45Y45*%
G04 Gerber Fmt 4.5, Leading zero omitted, Abs format (unit mm)*
G04 Created by KiCad (PCBNEW 8.0.3) date 2025-11-12 17:38:55*
%MOMM*%
%LPD*%
G01*
G04 APERTURE LIST*
%ADD10C,0.050000*%
%ADD11C,0.200000*%
%ADD12C,0.120000*%
%ADD13C,0.175000*%
G04 APERTURE END LIST*
D10*
X12760000Y-7920000D02*
X16310000Y-7920000D01*
X16310000Y-11610000D01*
X12760000Y-11610000D01*
X12760000Y-7920000D01*
D11*
D12*
X13000000Y-9410000D02*
X13120000Y-9530000D01*
X13120000Y-9410000D02*
X13000000Y-9530000D01*
X14090000Y-11250000D02*
X14210000Y-11370000D01*
X14210000Y-11250000D02*
X14090000Y-11370000D01*
D13*
X13967500Y-8905000D02*
G75*
G02*
X13792500Y-8905000I-87500J0D01*
G01*
X13792500Y-8905000D02*
G75*
G02*
X13967500Y-8905000I87500J0D01*
G01*
X14737500Y-8905000D02*
G75*
G02*
X14562500Y-8905000I-87500J0D01*
G01*
X14562500Y-8905000D02*
G75*
G02*
X14737500Y-8905000I87500J0D01*
G01*
X15487500Y-8901500D02*
G75*
G02*
X15312500Y-8901500I-87500J0D01*
G01*
X15312500Y-8901500D02*
G75*
G02*
X15487500Y-8901500I87500J0D01*
G01*
D11*
X13018277Y-11923984D02*
X13018277Y-11723984D01*
X13018277Y-11723984D02*
X13065896Y-11723984D01*
X13065896Y-11723984D02*
X13094467Y-11733508D01*
X13094467Y-11733508D02*
X13113515Y-11752555D01*
X13113515Y-11752555D02*
X13123039Y-11771603D01*
X13123039Y-11771603D02*
X13132562Y-11809698D01*
X13132562Y-11809698D02*
X13132562Y-11838269D01*
X13132562Y-11838269D02*
X13123039Y-11876365D01*
X13123039Y-11876365D02*
X13113515Y-11895412D01*
X13113515Y-11895412D02*
X13094467Y-11914460D01*
X13094467Y-11914460D02*
X13065896Y-11923984D01*
X13065896Y-11923984D02*
X13018277Y-11923984D01*
X13218277Y-11923984D02*
X13218277Y-11790650D01*
X13218277Y-11828746D02*
X13227801Y-11809698D01*
X13227801Y-11809698D02*
X13237324Y-11800174D01*
X13237324Y-11800174D02*
X13256372Y-11790650D01*
X13256372Y-11790650D02*
X13275420Y-11790650D01*
X13342086Y-11923984D02*
X13342086Y-11790650D01*
X13342086Y-11723984D02*
X13332562Y-11733508D01*
X13332562Y-11733508D02*
X13342086Y-11743031D01*
X13342086Y-11743031D02*
X13351610Y-11733508D01*
X13351610Y-11733508D02*
X13342086Y-11723984D01*
X13342086Y-11723984D02*
X13342086Y-11743031D01*
X13465896Y-11923984D02*
X13446848Y-11914460D01*
X13446848Y-11914460D02*
X13437324Y-11895412D01*
X13437324Y-11895412D02*
X13437324Y-11723984D01*
X13570658Y-11923984D02*
X13551610Y-11914460D01*
X13551610Y-11914460D02*
X13542086Y-11895412D01*
X13542086Y-11895412D02*
X13542086Y-11723984D01*
X13799229Y-11923984D02*
X13799229Y-11723984D01*
X13799229Y-11723984D02*
X13865896Y-11866841D01*
X13865896Y-11866841D02*
X13932562Y-11723984D01*
X13932562Y-11723984D02*
X13932562Y-11923984D01*
X14113515Y-11923984D02*
X14113515Y-11819222D01*
X14113515Y-11819222D02*
X14103991Y-11800174D01*
X14103991Y-11800174D02*
X14084943Y-11790650D01*
X14084943Y-11790650D02*
X14046848Y-11790650D01*
X14046848Y-11790650D02*
X14027801Y-11800174D01*
X14113515Y-11914460D02*
X14094467Y-11923984D01*
X14094467Y-11923984D02*
X14046848Y-11923984D01*
X14046848Y-11923984D02*
X14027801Y-11914460D01*
X14027801Y-11914460D02*
X14018277Y-11895412D01*
X14018277Y-11895412D02*
X14018277Y-11876365D01*
X14018277Y-11876365D02*
X14027801Y-11857317D01*
X14027801Y-11857317D02*
X14046848Y-11847793D01*
X14046848Y-11847793D02*
X14094467Y-11847793D01*
X14094467Y-11847793D02*
X14113515Y-11838269D01*
X14208753Y-11790650D02*
X14208753Y-11990650D01*
X14208753Y-11800174D02*
X14227801Y-11790650D01*
X14227801Y-11790650D02*
X14265896Y-11790650D01*
X14265896Y-11790650D02*
X14284943Y-11800174D01*
X14284943Y-11800174D02*
X14294467Y-11809698D01*
X14294467Y-11809698D02*
X14303991Y-11828746D01*
X14303991Y-11828746D02*
X14303991Y-11885888D01*
X14303991Y-11885888D02*
X14294467Y-11904936D01*
X14294467Y-11904936D02*
X14284943Y-11914460D01*
X14284943Y-11914460D02*
X14265896Y-11923984D01*
X14265896Y-11923984D02*
X14227801Y-11923984D01*
X14227801Y-11923984D02*
X14208753Y-11914460D01*
X14389705Y-11904936D02*
X14399229Y-11914460D01*
X14399229Y-11914460D02*
X14389705Y-11923984D01*
X14389705Y-11923984D02*
X14380182Y-11914460D01*
X14380182Y-11914460D02*
X14389705Y-11904936D01*
X14389705Y-11904936D02*
X14389705Y-11923984D01*
X14389705Y-11800174D02*
X14399229Y-11809698D01*
X14399229Y-11809698D02*
X14389705Y-11819222D01*
X14389705Y-11819222D02*
X14380182Y-11809698D01*
X14380182Y-11809698D02*
X14389705Y-11800174D01*
X14389705Y-11800174D02*
X14389705Y-11819222D01*
D12*
X12637500Y-12192500D02*
X12757500Y-12312500D01*
X12757500Y-12192500D02*
X12637500Y-12312500D01*
D11*
X13123039Y-12343984D02*
X13008753Y-12343984D01*
X13065896Y-12343984D02*
X13065896Y-12143984D01*
X13065896Y-12143984D02*
X13046848Y-12172555D01*
X13046848Y-12172555D02*
X13027801Y-12191603D01*
X13027801Y-12191603D02*
X13008753Y-12201127D01*
X13208753Y-12324936D02*
X13218277Y-12334460D01*
X13218277Y-12334460D02*
X13208753Y-12343984D01*
X13208753Y-12343984D02*
X13199229Y-12334460D01*
X13199229Y-12334460D02*
X13208753Y-12324936D01*
X13208753Y-12324936D02*
X13208753Y-12343984D01*
X13294467Y-12163031D02*
X13303991Y-12153508D01*
X13303991Y-12153508D02*
X13323039Y-12143984D01*
X13323039Y-12143984D02*
X13370658Y-12143984D01*
X13370658Y-12143984D02*
X13389705Y-12153508D01*
X13389705Y-12153508D02*
X13399229Y-12163031D01*
X13399229Y-12163031D02*
X13408753Y-12182079D01*
X13408753Y-12182079D02*
X13408753Y-12201127D01*
X13408753Y-12201127D02*
X13399229Y-12229698D01*
X13399229Y-12229698D02*
X13284943Y-12343984D01*
X13284943Y-12343984D02*
X13408753Y-12343984D01*
X13532562Y-12143984D02*
X13551610Y-12143984D01*
X13551610Y-12143984D02*
X13570658Y-12153508D01*
X13570658Y-12153508D02*
X13580182Y-12163031D01*
X13580182Y-12163031D02*
X13589705Y-12182079D01*
X13589705Y-12182079D02*
X13599229Y-12220174D01*
X13599229Y-12220174D02*
X13599229Y-12267793D01*
X13599229Y-12267793D02*
X13589705Y-12305888D01*
X13589705Y-12305888D02*
X13580182Y-12324936D01*
X13580182Y-12324936D02*
X13570658Y-12334460D01*
X13570658Y-12334460D02*
X13551610Y-12343984D01*
X13551610Y-12343984D02*
X13532562Y-12343984D01*
X13532562Y-12343984D02*
X13513515Y-12334460D01*
X13513515Y-12334460D02*
X13503991Y-12324936D01*
X13503991Y-12324936D02*
X13494467Y-12305888D01*
X13494467Y-12305888D02*
X13484943Y-12267793D01*
X13484943Y-12267793D02*
X13484943Y-12220174D01*
X13484943Y-12220174D02*
X13494467Y-12182079D01*
X13494467Y-12182079D02*
X13503991Y-12163031D01*
X13503991Y-12163031D02*
X13513515Y-12153508D01*
X13513515Y-12153508D02*
X13532562Y-12143984D01*
X13723039Y-12143984D02*
X13742086Y-12143984D01*
X13742086Y-12143984D02*
X13761134Y-12153508D01*
X13761134Y-12153508D02*
X13770658Y-12163031D01*
X13770658Y-12163031D02*
X13780182Y-12182079D01*
X13780182Y-12182079D02*
X13789705Y-12220174D01*
X13789705Y-12220174D02*
X13789705Y-12267793D01*
X13789705Y-12267793D02*
X13780182Y-12305888D01*
X13780182Y-12305888D02*
X13770658Y-12324936D01*
X13770658Y-12324936D02*
X13761134Y-12334460D01*
X13761134Y-12334460D02*
X13742086Y-12343984D01*
X13742086Y-12343984D02*
X13723039Y-12343984D01*
X13723039Y-12343984D02*
X13703991Y-12334460D01*
X13703991Y-12334460D02*
X13694467Y-12324936D01*
X13694467Y-12324936D02*
X13684943Y-12305888D01*
X13684943Y-12305888D02*
X13675420Y-12267793D01*
X13675420Y-12267793D02*
X13675420Y-12220174D01*
X13675420Y-12220174D02*
X13684943Y-12182079D01*
X13684943Y-12182079D02*
X13694467Y-12163031D01*
X13694467Y-12163031D02*
X13703991Y-12153508D01*
X13703991Y-12153508D02*
X13723039Y-12143984D01*
X13875420Y-12343984D02*
X13875420Y-12210650D01*
X13875420Y-12229698D02*
X13884943Y-12220174D01*
X13884943Y-12220174D02*
X13903991Y-12210650D01*
X13903991Y-12210650D02*
X13932563Y-12210650D01*
X13932563Y-12210650D02*
X13951610Y-12220174D01*
X13951610Y-12220174D02*
X13961134Y-12239222D01*
X13961134Y-12239222D02*
X13961134Y-12343984D01*
X13961134Y-12239222D02*
X13970658Y-12220174D01*
X13970658Y-12220174D02*
X13989705Y-12210650D01*
X13989705Y-12210650D02*
X14018277Y-12210650D01*
X14018277Y-12210650D02*
X14037324Y-12220174D01*
X14037324Y-12220174D02*
X14046848Y-12239222D01*
X14046848Y-12239222D02*
X14046848Y-12343984D01*
X14142086Y-12343984D02*
X14142086Y-12210650D01*
X14142086Y-12229698D02*
X14151610Y-12220174D01*
X14151610Y-12220174D02*
X14170658Y-12210650D01*
X14170658Y-12210650D02*
X14199229Y-12210650D01*
X14199229Y-12210650D02*
X14218277Y-12220174D01*
X14218277Y-12220174D02*
X14227801Y-12239222D01*
X14227801Y-12239222D02*
X14227801Y-12343984D01*
X14227801Y-12239222D02*
X14237324Y-12220174D01*
X14237324Y-12220174D02*
X14256372Y-12210650D01*
X14256372Y-12210650D02*
X14284943Y-12210650D01*
X14284943Y-12210650D02*
X14303991Y-12220174D01*
X14303991Y-12220174D02*
X14313515Y-12239222D01*
X14313515Y-12239222D02*
X14313515Y-12343984D01*
X14703991Y-12134460D02*
X14532563Y-12391603D01*
X14961134Y-12143984D02*
X14980182Y-12143984D01*
X14980182Y-12143984D02*
X14999229Y-12153508D01*
X14999229Y-12153508D02*
X15008753Y-12163031D01*
X15008753Y-12163031D02*
X15018277Y-12182079D01*
X15018277Y-12182079D02*
X15027801Y-12220174D01*
X15027801Y-12220174D02*
X15027801Y-12267793D01*
X15027801Y-12267793D02*
X15018277Y-12305888D01*
X15018277Y-12305888D02*
X15008753Y-12324936D01*
X15008753Y-12324936D02*
X14999229Y-12334460D01*
X14999229Y-12334460D02*
X14980182Y-12343984D01*
X14980182Y-12343984D02*
X14961134Y-12343984D01*
X14961134Y-12343984D02*
X14942086Y-12334460D01*
X14942086Y-12334460D02*
X14932563Y-12324936D01*
X14932563Y-12324936D02*
X14923039Y-12305888D01*
X14923039Y-12305888D02*
X14913515Y-12267793D01*
X14913515Y-12267793D02*
X14913515Y-12220174D01*
X14913515Y-12220174D02*
X14923039Y-12182079D01*
X14923039Y-12182079D02*
X14932563Y-12163031D01*
X14932563Y-12163031D02*
X14942086Y-12153508D01*
X14942086Y-12153508D02*
X14961134Y-12143984D01*
X15113515Y-12324936D02*
X15123039Y-12334460D01*
X15123039Y-12334460D02*
X15113515Y-12343984D01*
X15113515Y-12343984D02*
X15103991Y-12334460D01*
X15103991Y-12334460D02*
X15113515Y-12324936D01*
X15113515Y-12324936D02*
X15113515Y-12343984D01*
X15246848Y-12143984D02*
X15265896Y-12143984D01*
X15265896Y-12143984D02*
X15284944Y-12153508D01*
X15284944Y-12153508D02*
X15294467Y-12163031D01*
X15294467Y-12163031D02*
X15303991Y-12182079D01*
X15303991Y-12182079D02*
X15313515Y-12220174D01*
X15313515Y-12220174D02*
X15313515Y-12267793D01*
X15313515Y-12267793D02*
X15303991Y-12305888D01*
X15303991Y-12305888D02*
X15294467Y-12324936D01*
X15294467Y-12324936D02*
X15284944Y-12334460D01*
X15284944Y-12334460D02*
X15265896Y-12343984D01*
X15265896Y-12343984D02*
X15246848Y-12343984D01*
X15246848Y-12343984D02*
X15227801Y-12334460D01*
X15227801Y-12334460D02*
X15218277Y-12324936D01*
X15218277Y-12324936D02*
X15208753Y-12305888D01*
X15208753Y-12305888D02*
X15199229Y-12267793D01*
X15199229Y-12267793D02*
X15199229Y-12220174D01*
X15199229Y-12220174D02*
X15208753Y-12182079D01*
X15208753Y-12182079D02*
X15218277Y-12163031D01*
X15218277Y-12163031D02*
X15227801Y-12153508D01*
X15227801Y-12153508D02*
X15246848Y-12143984D01*
X15484944Y-12210650D02*
X15484944Y-12343984D01*
X15437325Y-12134460D02*
X15389706Y-12277317D01*
X15389706Y-12277317D02*
X15513515Y-12277317D01*
X15570658Y-12143984D02*
X15703991Y-12143984D01*
X15703991Y-12143984D02*
X15618277Y-12343984D01*
X15770658Y-12163031D02*
X15780182Y-12153508D01*
X15780182Y-12153508D02*
X15799229Y-12143984D01*
X15799229Y-12143984D02*
X15846848Y-12143984D01*
X15846848Y-12143984D02*
X15865896Y-12153508D01*
X15865896Y-12153508D02*
X15875420Y-12163031D01*
X15875420Y-12163031D02*
X15884944Y-12182079D01*
X15884944Y-12182079D02*
X15884944Y-12201127D01*
X15884944Y-12201127D02*
X15875420Y-12229698D01*
X15875420Y-12229698D02*
X15761134Y-12343984D01*
X15761134Y-12343984D02*
X15884944Y-12343984D01*
X15961134Y-12143984D02*
X15961134Y-12182079D01*
X16037325Y-12143984D02*
X16037325Y-12182079D01*
X16332563Y-12420174D02*
X16323039Y-12410650D01*
X16323039Y-12410650D02*
X16303991Y-12382079D01*
X16303991Y-12382079D02*
X16294468Y-12363031D01*
X16294468Y-12363031D02*
X16284944Y-12334460D01*
X16284944Y-12334460D02*
X16275420Y-12286841D01*
X16275420Y-12286841D02*
X16275420Y-12248746D01*
X16275420Y-12248746D02*
X16284944Y-12201127D01*
X16284944Y-12201127D02*
X16294468Y-12172555D01*
X16294468Y-12172555D02*
X16303991Y-12153508D01*
X16303991Y-12153508D02*
X16323039Y-12124936D01*
X16323039Y-12124936D02*
X16332563Y-12115412D01*
X16399229Y-12163031D02*
X16408753Y-12153508D01*
X16408753Y-12153508D02*
X16427801Y-12143984D01*
X16427801Y-12143984D02*
X16475420Y-12143984D01*
X16475420Y-12143984D02*
X16494468Y-12153508D01*
X16494468Y-12153508D02*
X16503991Y-12163031D01*
X16503991Y-12163031D02*
X16513515Y-12182079D01*
X16513515Y-12182079D02*
X16513515Y-12201127D01*
X16513515Y-12201127D02*
X16503991Y-12229698D01*
X16503991Y-12229698D02*
X16389706Y-12343984D01*
X16389706Y-12343984D02*
X16513515Y-12343984D01*
X16751610Y-12343984D02*
X16751610Y-12143984D01*
X16837325Y-12343984D02*
X16837325Y-12239222D01*
X16837325Y-12239222D02*
X16827801Y-12220174D01*
X16827801Y-12220174D02*
X16808753Y-12210650D01*
X16808753Y-12210650D02*
X16780182Y-12210650D01*
X16780182Y-12210650D02*
X16761134Y-12220174D01*
X16761134Y-12220174D02*
X16751610Y-12229698D01*
X16961134Y-12343984D02*
X16942087Y-12334460D01*
X16942087Y-12334460D02*
X16932563Y-12324936D01*
X16932563Y-12324936D02*
X16923039Y-12305888D01*
X16923039Y-12305888D02*
X16923039Y-12248746D01*
X16923039Y-12248746D02*
X16932563Y-12229698D01*
X16932563Y-12229698D02*
X16942087Y-12220174D01*
X16942087Y-12220174D02*
X16961134Y-12210650D01*
X16961134Y-12210650D02*
X16989706Y-12210650D01*
X16989706Y-12210650D02*
X17008753Y-12220174D01*
X17008753Y-12220174D02*
X17018277Y-12229698D01*
X17018277Y-12229698D02*
X17027801Y-12248746D01*
X17027801Y-12248746D02*
X17027801Y-12305888D01*
X17027801Y-12305888D02*
X17018277Y-12324936D01*
X17018277Y-12324936D02*
X17008753Y-12334460D01*
X17008753Y-12334460D02*
X16989706Y-12343984D01*
X16989706Y-12343984D02*
X16961134Y-12343984D01*
X17142087Y-12343984D02*
X17123039Y-12334460D01*
X17123039Y-12334460D02*
X17113515Y-12315412D01*
X17113515Y-12315412D02*
X17113515Y-12143984D01*
X17294468Y-12334460D02*
X17275420Y-12343984D01*
X17275420Y-12343984D02*
X17237325Y-12343984D01*
X17237325Y-12343984D02*
X17218277Y-12334460D01*
X17218277Y-12334460D02*
X17208753Y-12315412D01*
X17208753Y-12315412D02*
X17208753Y-12239222D01*
X17208753Y-12239222D02*
X17218277Y-12220174D01*
X17218277Y-12220174D02*
X17237325Y-12210650D01*
X17237325Y-12210650D02*
X17275420Y-12210650D01*
X17275420Y-12210650D02*
X17294468Y-12220174D01*
X17294468Y-12220174D02*
X17303992Y-12239222D01*
X17303992Y-12239222D02*
X17303992Y-12258269D01*
X17303992Y-12258269D02*
X17208753Y-12277317D01*
X17380182Y-12334460D02*
X17399230Y-12343984D01*
X17399230Y-12343984D02*
X17437325Y-12343984D01*
X17437325Y-12343984D02*
X17456373Y-12334460D01*
X17456373Y-12334460D02*
X17465896Y-12315412D01*
X17465896Y-12315412D02*
X17465896Y-12305888D01*
X17465896Y-12305888D02*
X17456373Y-12286841D01*
X17456373Y-12286841D02*
X17437325Y-12277317D01*
X17437325Y-12277317D02*
X17408753Y-12277317D01*
X17408753Y-12277317D02*
X17389706Y-12267793D01*
X17389706Y-12267793D02*
X17380182Y-12248746D01*
X17380182Y-12248746D02*
X17380182Y-12239222D01*
X17380182Y-12239222D02*
X17389706Y-12220174D01*
X17389706Y-12220174D02*
X17408753Y-12210650D01*
X17408753Y-12210650D02*
X17437325Y-12210650D01*
X17437325Y-12210650D02*
X17456373Y-12220174D01*
X17532563Y-12420174D02*
X17542087Y-12410650D01*
X17542087Y-12410650D02*
X17561134Y-12382079D01*
X17561134Y-12382079D02*
X17570658Y-12363031D01*
X17570658Y-12363031D02*
X17580182Y-12334460D01*
X17580182Y-12334460D02*
X17589706Y-12286841D01*
X17589706Y-12286841D02*
X17589706Y-12248746D01*
X17589706Y-12248746D02*
X17580182Y-12201127D01*
X17580182Y-12201127D02*
X17570658Y-12172555D01*
X17570658Y-12172555D02*
X17561134Y-12153508D01*
X17561134Y-12153508D02*
X17542087Y-12124936D01*
X17542087Y-12124936D02*
X17532563Y-12115412D01*
X17894468Y-12420174D02*
X17884944Y-12410650D01*
X17884944Y-12410650D02*
X17865896Y-12382079D01*
X17865896Y-12382079D02*
X17856373Y-12363031D01*
X17856373Y-12363031D02*
X17846849Y-12334460D01*
X17846849Y-12334460D02*
X17837325Y-12286841D01*
X17837325Y-12286841D02*
X17837325Y-12248746D01*
X17837325Y-12248746D02*
X17846849Y-12201127D01*
X17846849Y-12201127D02*
X17856373Y-12172555D01*
X17856373Y-12172555D02*
X17865896Y-12153508D01*
X17865896Y-12153508D02*
X17884944Y-12124936D01*
X17884944Y-12124936D02*
X17894468Y-12115412D01*
X17970658Y-12210650D02*
X17970658Y-12343984D01*
X17970658Y-12229698D02*
X17980182Y-12220174D01*
X17980182Y-12220174D02*
X17999230Y-12210650D01*
X17999230Y-12210650D02*
X18027801Y-12210650D01*
X18027801Y-12210650D02*
X18046849Y-12220174D01*
X18046849Y-12220174D02*
X18056373Y-12239222D01*
X18056373Y-12239222D02*
X18056373Y-12343984D01*
X18180182Y-12343984D02*
X18161134Y-12334460D01*
X18161134Y-12334460D02*
X18151611Y-12324936D01*
X18151611Y-12324936D02*
X18142087Y-12305888D01*
X18142087Y-12305888D02*
X18142087Y-12248746D01*
X18142087Y-12248746D02*
X18151611Y-12229698D01*
X18151611Y-12229698D02*
X18161134Y-12220174D01*
X18161134Y-12220174D02*
X18180182Y-12210650D01*
X18180182Y-12210650D02*
X18208754Y-12210650D01*
X18208754Y-12210650D02*
X18227801Y-12220174D01*
X18227801Y-12220174D02*
X18237325Y-12229698D01*
X18237325Y-12229698D02*
X18246849Y-12248746D01*
X18246849Y-12248746D02*
X18246849Y-12305888D01*
X18246849Y-12305888D02*
X18237325Y-12324936D01*
X18237325Y-12324936D02*
X18227801Y-12334460D01*
X18227801Y-12334460D02*
X18208754Y-12343984D01*
X18208754Y-12343984D02*
X18180182Y-12343984D01*
X18303992Y-12210650D02*
X18380182Y-12210650D01*
X18332563Y-12143984D02*
X18332563Y-12315412D01*
X18332563Y-12315412D02*
X18342087Y-12334460D01*
X18342087Y-12334460D02*
X18361134Y-12343984D01*
X18361134Y-12343984D02*
X18380182Y-12343984D01*
X18599230Y-12210650D02*
X18599230Y-12410650D01*
X18599230Y-12220174D02*
X18618277Y-12210650D01*
X18618277Y-12210650D02*
X18656373Y-12210650D01*
X18656373Y-12210650D02*
X18675420Y-12220174D01*
X18675420Y-12220174D02*
X18684944Y-12229698D01*
X18684944Y-12229698D02*
X18694468Y-12248746D01*
X18694468Y-12248746D02*
X18694468Y-12305888D01*
X18694468Y-12305888D02*
X18684944Y-12324936D01*
X18684944Y-12324936D02*
X18675420Y-12334460D01*
X18675420Y-12334460D02*
X18656373Y-12343984D01*
X18656373Y-12343984D02*
X18618277Y-12343984D01*
X18618277Y-12343984D02*
X18599230Y-12334460D01*
X18808754Y-12343984D02*
X18789706Y-12334460D01*
X18789706Y-12334460D02*
X18780182Y-12315412D01*
X18780182Y-12315412D02*
X18780182Y-12143984D01*
X18970658Y-12343984D02*
X18970658Y-12239222D01*
X18970658Y-12239222D02*
X18961135Y-12220174D01*
X18961135Y-12220174D02*
X18942087Y-12210650D01*
X18942087Y-12210650D02*
X18903992Y-12210650D01*
X18903992Y-12210650D02*
X18884944Y-12220174D01*
X18970658Y-12334460D02*
X18951611Y-12343984D01*
X18951611Y-12343984D02*
X18903992Y-12343984D01*
X18903992Y-12343984D02*
X18884944Y-12334460D01*
X18884944Y-12334460D02*
X18875420Y-12315412D01*
X18875420Y-12315412D02*
X18875420Y-12296365D01*
X18875420Y-12296365D02*
X18884944Y-12277317D01*
X18884944Y-12277317D02*
X18903992Y-12267793D01*
X18903992Y-12267793D02*
X18951611Y-12267793D01*
X18951611Y-12267793D02*
X18970658Y-12258269D01*
X19037325Y-12210650D02*
X19113515Y-12210650D01*
X19065896Y-12143984D02*
X19065896Y-12315412D01*
X19065896Y-12315412D02*
X19075420Y-12334460D01*
X19075420Y-12334460D02*
X19094468Y-12343984D01*
X19094468Y-12343984D02*
X19113515Y-12343984D01*
X19256373Y-12334460D02*
X19237325Y-12343984D01*
X19237325Y-12343984D02*
X19199230Y-12343984D01*
X19199230Y-12343984D02*
X19180182Y-12334460D01*
X19180182Y-12334460D02*
X19170658Y-12315412D01*
X19170658Y-12315412D02*
X19170658Y-12239222D01*
X19170658Y-12239222D02*
X19180182Y-12220174D01*
X19180182Y-12220174D02*
X19199230Y-12210650D01*
X19199230Y-12210650D02*
X19237325Y-12210650D01*
X19237325Y-12210650D02*
X19256373Y-12220174D01*
X19256373Y-12220174D02*
X19265896Y-12239222D01*
X19265896Y-12239222D02*
X19265896Y-12258269D01*
X19265896Y-12258269D02*
X19170658Y-12277317D01*
X19437325Y-12343984D02*
X19437325Y-12143984D01*
X19437325Y-12334460D02*
X19418277Y-12343984D01*
X19418277Y-12343984D02*
X19380182Y-12343984D01*
X19380182Y-12343984D02*
X19361135Y-12334460D01*
X19361135Y-12334460D02*
X19351611Y-12324936D01*
X19351611Y-12324936D02*
X19342087Y-12305888D01*
X19342087Y-12305888D02*
X19342087Y-12248746D01*
X19342087Y-12248746D02*
X19351611Y-12229698D01*
X19351611Y-12229698D02*
X19361135Y-12220174D01*
X19361135Y-12220174D02*
X19380182Y-12210650D01*
X19380182Y-12210650D02*
X19418277Y-12210650D01*
X19418277Y-12210650D02*
X19437325Y-12220174D01*
X19513516Y-12420174D02*
X19523039Y-12410650D01*
X19523039Y-12410650D02*
X19542087Y-12382079D01*
X19542087Y-12382079D02*
X19551611Y-12363031D01*
X19551611Y-12363031D02*
X19561135Y-12334460D01*
X19561135Y-12334460D02*
X19570658Y-12286841D01*
X19570658Y-12286841D02*
X19570658Y-12248746D01*
X19570658Y-12248746D02*
X19561135Y-12201127D01*
X19561135Y-12201127D02*
X19551611Y-12172555D01*
X19551611Y-12172555D02*
X19542087Y-12153508D01*
X19542087Y-12153508D02*
X19523039Y-12124936D01*
X19523039Y-12124936D02*
X19513516Y-12115412D01*
D13*
X12757500Y-12516500D02*
G75*
G02*
X12582500Y-12516500I-87500J0D01*
G01*
X12582500Y-12516500D02*
G75*
G02*
X12757500Y-12516500I87500J0D01*
G01*
D11*
X13123039Y-12607984D02*
X13008753Y-12607984D01*
X13065896Y-12607984D02*
X13065896Y-12407984D01*
X13065896Y-12407984D02*
X13046848Y-12436555D01*
X13046848Y-12436555D02*
X13027801Y-12455603D01*
X13027801Y-12455603D02*
X13008753Y-12465127D01*
X13208753Y-12588936D02*
X13218277Y-12598460D01*
X13218277Y-12598460D02*
X13208753Y-12607984D01*
X13208753Y-12607984D02*
X13199229Y-12598460D01*
X13199229Y-12598460D02*
X13208753Y-12588936D01*
X13208753Y-12588936D02*
X13208753Y-12607984D01*
X13284943Y-12407984D02*
X13418277Y-12407984D01*
X13418277Y-12407984D02*
X13332562Y-12607984D01*
X13589705Y-12407984D02*
X13494467Y-12407984D01*
X13494467Y-12407984D02*
X13484943Y-12503222D01*
X13484943Y-12503222D02*
X13494467Y-12493698D01*
X13494467Y-12493698D02*
X13513515Y-12484174D01*
X13513515Y-12484174D02*
X13561134Y-12484174D01*
X13561134Y-12484174D02*
X13580182Y-12493698D01*
X13580182Y-12493698D02*
X13589705Y-12503222D01*
X13589705Y-12503222D02*
X13599229Y-12522269D01*
X13599229Y-12522269D02*
X13599229Y-12569888D01*
X13599229Y-12569888D02*
X13589705Y-12588936D01*
X13589705Y-12588936D02*
X13580182Y-12598460D01*
X13580182Y-12598460D02*
X13561134Y-12607984D01*
X13561134Y-12607984D02*
X13513515Y-12607984D01*
X13513515Y-12607984D02*
X13494467Y-12598460D01*
X13494467Y-12598460D02*
X13484943Y-12588936D01*
X13723039Y-12407984D02*
X13742086Y-12407984D01*
X13742086Y-12407984D02*
X13761134Y-12417508D01*
X13761134Y-12417508D02*
X13770658Y-12427031D01*
X13770658Y-12427031D02*
X13780182Y-12446079D01*
X13780182Y-12446079D02*
X13789705Y-12484174D01*
X13789705Y-12484174D02*
X13789705Y-12531793D01*
X13789705Y-12531793D02*
X13780182Y-12569888D01*
X13780182Y-12569888D02*
X13770658Y-12588936D01*
X13770658Y-12588936D02*
X13761134Y-12598460D01*
X13761134Y-12598460D02*
X13742086Y-12607984D01*
X13742086Y-12607984D02*
X13723039Y-12607984D01*
X13723039Y-12607984D02*
X13703991Y-12598460D01*
X13703991Y-12598460D02*
X13694467Y-12588936D01*
X13694467Y-12588936D02*
X13684943Y-12569888D01*
X13684943Y-12569888D02*
X13675420Y-12531793D01*
X13675420Y-12531793D02*
X13675420Y-12484174D01*
X13675420Y-12484174D02*
X13684943Y-12446079D01*
X13684943Y-12446079D02*
X13694467Y-12427031D01*
X13694467Y-12427031D02*
X13703991Y-12417508D01*
X13703991Y-12417508D02*
X13723039Y-12407984D01*
X13875420Y-12607984D02*
X13875420Y-12474650D01*
X13875420Y-12493698D02*
X13884943Y-12484174D01*
X13884943Y-12484174D02*
X13903991Y-12474650D01*
X13903991Y-12474650D02*
X13932563Y-12474650D01*
X13932563Y-12474650D02*
X13951610Y-12484174D01*
X13951610Y-12484174D02*
X13961134Y-12503222D01*
X13961134Y-12503222D02*
X13961134Y-12607984D01*
X13961134Y-12503222D02*
X13970658Y-12484174D01*
X13970658Y-12484174D02*
X13989705Y-12474650D01*
X13989705Y-12474650D02*
X14018277Y-12474650D01*
X14018277Y-12474650D02*
X14037324Y-12484174D01*
X14037324Y-12484174D02*
X14046848Y-12503222D01*
X14046848Y-12503222D02*
X14046848Y-12607984D01*
X14142086Y-12607984D02*
X14142086Y-12474650D01*
X14142086Y-12493698D02*
X14151610Y-12484174D01*
X14151610Y-12484174D02*
X14170658Y-12474650D01*
X14170658Y-12474650D02*
X14199229Y-12474650D01*
X14199229Y-12474650D02*
X14218277Y-12484174D01*
X14218277Y-12484174D02*
X14227801Y-12503222D01*
X14227801Y-12503222D02*
X14227801Y-12607984D01*
X14227801Y-12503222D02*
X14237324Y-12484174D01*
X14237324Y-12484174D02*
X14256372Y-12474650D01*
X14256372Y-12474650D02*
X14284943Y-12474650D01*
X14284943Y-12474650D02*
X14303991Y-12484174D01*
X14303991Y-12484174D02*
X14313515Y-12503222D01*
X14313515Y-12503222D02*
X14313515Y-12607984D01*
X14703991Y-12398460D02*
X14532563Y-12655603D01*
X14961134Y-12407984D02*
X14980182Y-12407984D01*
X14980182Y-12407984D02*
X14999229Y-12417508D01*
X14999229Y-12417508D02*
X15008753Y-12427031D01*
X15008753Y-12427031D02*
X15018277Y-12446079D01*
X15018277Y-12446079D02*
X15027801Y-12484174D01*
X15027801Y-12484174D02*
X15027801Y-12531793D01*
X15027801Y-12531793D02*
X15018277Y-12569888D01*
X15018277Y-12569888D02*
X15008753Y-12588936D01*
X15008753Y-12588936D02*
X14999229Y-12598460D01*
X14999229Y-12598460D02*
X14980182Y-12607984D01*
X14980182Y-12607984D02*
X14961134Y-12607984D01*
X14961134Y-12607984D02*
X14942086Y-12598460D01*
X14942086Y-12598460D02*
X14932563Y-12588936D01*
X14932563Y-12588936D02*
X14923039Y-12569888D01*
X14923039Y-12569888D02*
X14913515Y-12531793D01*
X14913515Y-12531793D02*
X14913515Y-12484174D01*
X14913515Y-12484174D02*
X14923039Y-12446079D01*
X14923039Y-12446079D02*
X14932563Y-12427031D01*
X14932563Y-12427031D02*
X14942086Y-12417508D01*
X14942086Y-12417508D02*
X14961134Y-12407984D01*
X15113515Y-12588936D02*
X15123039Y-12598460D01*
X15123039Y-12598460D02*
X15113515Y-12607984D01*
X15113515Y-12607984D02*
X15103991Y-12598460D01*
X15103991Y-12598460D02*
X15113515Y-12588936D01*
X15113515Y-12588936D02*
X15113515Y-12607984D01*
X15246848Y-12407984D02*
X15265896Y-12407984D01*
X15265896Y-12407984D02*
X15284944Y-12417508D01*
X15284944Y-12417508D02*
X15294467Y-12427031D01*
X15294467Y-12427031D02*
X15303991Y-12446079D01*
X15303991Y-12446079D02*
X15313515Y-12484174D01*
X15313515Y-12484174D02*
X15313515Y-12531793D01*
X15313515Y-12531793D02*
X15303991Y-12569888D01*
X15303991Y-12569888D02*
X15294467Y-12588936D01*
X15294467Y-12588936D02*
X15284944Y-12598460D01*
X15284944Y-12598460D02*
X15265896Y-12607984D01*
X15265896Y-12607984D02*
X15246848Y-12607984D01*
X15246848Y-12607984D02*
X15227801Y-12598460D01*
X15227801Y-12598460D02*
X15218277Y-12588936D01*
X15218277Y-12588936D02*
X15208753Y-12569888D01*
X15208753Y-12569888D02*
X15199229Y-12531793D01*
X15199229Y-12531793D02*
X15199229Y-12484174D01*
X15199229Y-12484174D02*
X15208753Y-12446079D01*
X15208753Y-12446079D02*
X15218277Y-12427031D01*
X15218277Y-12427031D02*
X15227801Y-12417508D01*
X15227801Y-12417508D02*
X15246848Y-12407984D01*
X15484944Y-12407984D02*
X15446848Y-12407984D01*
X15446848Y-12407984D02*
X15427801Y-12417508D01*
X15427801Y-12417508D02*
X15418277Y-12427031D01*
X15418277Y-12427031D02*
X15399229Y-12455603D01*
X15399229Y-12455603D02*
X15389706Y-12493698D01*
X15389706Y-12493698D02*
X15389706Y-12569888D01*
X15389706Y-12569888D02*
X15399229Y-12588936D01*
X15399229Y-12588936D02*
X15408753Y-12598460D01*
X15408753Y-12598460D02*
X15427801Y-12607984D01*
X15427801Y-12607984D02*
X15465896Y-12607984D01*
X15465896Y-12607984D02*
X15484944Y-12598460D01*
X15484944Y-12598460D02*
X15494467Y-12588936D01*
X15494467Y-12588936D02*
X15503991Y-12569888D01*
X15503991Y-12569888D02*
X15503991Y-12522269D01*
X15503991Y-12522269D02*
X15494467Y-12503222D01*
X15494467Y-12503222D02*
X15484944Y-12493698D01*
X15484944Y-12493698D02*
X15465896Y-12484174D01*
X15465896Y-12484174D02*
X15427801Y-12484174D01*
X15427801Y-12484174D02*
X15408753Y-12493698D01*
X15408753Y-12493698D02*
X15399229Y-12503222D01*
X15399229Y-12503222D02*
X15389706Y-12522269D01*
X15618277Y-12493698D02*
X15599229Y-12484174D01*
X15599229Y-12484174D02*
X15589706Y-12474650D01*
X15589706Y-12474650D02*
X15580182Y-12455603D01*
X15580182Y-12455603D02*
X15580182Y-12446079D01*
X15580182Y-12446079D02*
X15589706Y-12427031D01*
X15589706Y-12427031D02*
X15599229Y-12417508D01*
X15599229Y-12417508D02*
X15618277Y-12407984D01*
X15618277Y-12407984D02*
X15656372Y-12407984D01*
X15656372Y-12407984D02*
X15675420Y-12417508D01*
X15675420Y-12417508D02*
X15684944Y-12427031D01*
X15684944Y-12427031D02*
X15694467Y-12446079D01*
X15694467Y-12446079D02*
X15694467Y-12455603D01*
X15694467Y-12455603D02*
X15684944Y-12474650D01*
X15684944Y-12474650D02*
X15675420Y-12484174D01*
X15675420Y-12484174D02*
X15656372Y-12493698D01*
X15656372Y-12493698D02*
X15618277Y-12493698D01*
X15618277Y-12493698D02*
X15599229Y-12503222D01*
X15599229Y-12503222D02*
X15589706Y-12512746D01*
X15589706Y-12512746D02*
X15580182Y-12531793D01*
X15580182Y-12531793D02*
X15580182Y-12569888D01*
X15580182Y-12569888D02*
X15589706Y-12588936D01*
X15589706Y-12588936D02*
X15599229Y-12598460D01*
X15599229Y-12598460D02*
X15618277Y-12607984D01*
X15618277Y-12607984D02*
X15656372Y-12607984D01*
X15656372Y-12607984D02*
X15675420Y-12598460D01*
X15675420Y-12598460D02*
X15684944Y-12588936D01*
X15684944Y-12588936D02*
X15694467Y-12569888D01*
X15694467Y-12569888D02*
X15694467Y-12531793D01*
X15694467Y-12531793D02*
X15684944Y-12512746D01*
X15684944Y-12512746D02*
X15675420Y-12503222D01*
X15675420Y-12503222D02*
X15656372Y-12493698D01*
X15789706Y-12607984D02*
X15827801Y-12607984D01*
X15827801Y-12607984D02*
X15846848Y-12598460D01*
X15846848Y-12598460D02*
X15856372Y-12588936D01*
X15856372Y-12588936D02*
X15875420Y-12560365D01*
X15875420Y-12560365D02*
X15884944Y-12522269D01*
X15884944Y-12522269D02*
X15884944Y-12446079D01*
X15884944Y-12446079D02*
X15875420Y-12427031D01*
X15875420Y-12427031D02*
X15865896Y-12417508D01*
X15865896Y-12417508D02*
X15846848Y-12407984D01*
X15846848Y-12407984D02*
X15808753Y-12407984D01*
X15808753Y-12407984D02*
X15789706Y-12417508D01*
X15789706Y-12417508D02*
X15780182Y-12427031D01*
X15780182Y-12427031D02*
X15770658Y-12446079D01*
X15770658Y-12446079D02*
X15770658Y-12493698D01*
X15770658Y-12493698D02*
X15780182Y-12512746D01*
X15780182Y-12512746D02*
X15789706Y-12522269D01*
X15789706Y-12522269D02*
X15808753Y-12531793D01*
X15808753Y-12531793D02*
X15846848Y-12531793D01*
X15846848Y-12531793D02*
X15865896Y-12522269D01*
X15865896Y-12522269D02*
X15875420Y-12512746D01*
X15875420Y-12512746D02*
X15884944Y-12493698D01*
X15961134Y-12407984D02*
X15961134Y-12446079D01*
X16037325Y-12407984D02*
X16037325Y-12446079D01*
X16332563Y-12684174D02*
X16323039Y-12674650D01*
X16323039Y-12674650D02*
X16303991Y-12646079D01*
X16303991Y-12646079D02*
X16294468Y-12627031D01*
X16294468Y-12627031D02*
X16284944Y-12598460D01*
X16284944Y-12598460D02*
X16275420Y-12550841D01*
X16275420Y-12550841D02*
X16275420Y-12512746D01*
X16275420Y-12512746D02*
X16284944Y-12465127D01*
X16284944Y-12465127D02*
X16294468Y-12436555D01*
X16294468Y-12436555D02*
X16303991Y-12417508D01*
X16303991Y-12417508D02*
X16323039Y-12388936D01*
X16323039Y-12388936D02*
X16332563Y-12379412D01*
X16389706Y-12407984D02*
X16513515Y-12407984D01*
X16513515Y-12407984D02*
X16446848Y-12484174D01*
X16446848Y-12484174D02*
X16475420Y-12484174D01*
X16475420Y-12484174D02*
X16494468Y-12493698D01*
X16494468Y-12493698D02*
X16503991Y-12503222D01*
X16503991Y-12503222D02*
X16513515Y-12522269D01*
X16513515Y-12522269D02*
X16513515Y-12569888D01*
X16513515Y-12569888D02*
X16503991Y-12588936D01*
X16503991Y-12588936D02*
X16494468Y-12598460D01*
X16494468Y-12598460D02*
X16475420Y-12607984D01*
X16475420Y-12607984D02*
X16418277Y-12607984D01*
X16418277Y-12607984D02*
X16399229Y-12598460D01*
X16399229Y-12598460D02*
X16389706Y-12588936D01*
X16751610Y-12607984D02*
X16751610Y-12407984D01*
X16837325Y-12607984D02*
X16837325Y-12503222D01*
X16837325Y-12503222D02*
X16827801Y-12484174D01*
X16827801Y-12484174D02*
X16808753Y-12474650D01*
X16808753Y-12474650D02*
X16780182Y-12474650D01*
X16780182Y-12474650D02*
X16761134Y-12484174D01*
X16761134Y-12484174D02*
X16751610Y-12493698D01*
X16961134Y-12607984D02*
X16942087Y-12598460D01*
X16942087Y-12598460D02*
X16932563Y-12588936D01*
X16932563Y-12588936D02*
X16923039Y-12569888D01*
X16923039Y-12569888D02*
X16923039Y-12512746D01*
X16923039Y-12512746D02*
X16932563Y-12493698D01*
X16932563Y-12493698D02*
X16942087Y-12484174D01*
X16942087Y-12484174D02*
X16961134Y-12474650D01*
X16961134Y-12474650D02*
X16989706Y-12474650D01*
X16989706Y-12474650D02*
X17008753Y-12484174D01*
X17008753Y-12484174D02*
X17018277Y-12493698D01*
X17018277Y-12493698D02*
X17027801Y-12512746D01*
X17027801Y-12512746D02*
X17027801Y-12569888D01*
X17027801Y-12569888D02*
X17018277Y-12588936D01*
X17018277Y-12588936D02*
X17008753Y-12598460D01*
X17008753Y-12598460D02*
X16989706Y-12607984D01*
X16989706Y-12607984D02*
X16961134Y-12607984D01*
X17142087Y-12607984D02*
X17123039Y-12598460D01*
X17123039Y-12598460D02*
X17113515Y-12579412D01*
X17113515Y-12579412D02*
X17113515Y-12407984D01*
X17294468Y-12598460D02*
X17275420Y-12607984D01*
X17275420Y-12607984D02*
X17237325Y-12607984D01*
X17237325Y-12607984D02*
X17218277Y-12598460D01*
X17218277Y-12598460D02*
X17208753Y-12579412D01*
X17208753Y-12579412D02*
X17208753Y-12503222D01*
X17208753Y-12503222D02*
X17218277Y-12484174D01*
X17218277Y-12484174D02*
X17237325Y-12474650D01*
X17237325Y-12474650D02*
X17275420Y-12474650D01*
X17275420Y-12474650D02*
X17294468Y-12484174D01*
X17294468Y-12484174D02*
X17303992Y-12503222D01*
X17303992Y-12503222D02*
X17303992Y-12522269D01*
X17303992Y-12522269D02*
X17208753Y-12541317D01*
X17380182Y-12598460D02*
X17399230Y-12607984D01*
X17399230Y-12607984D02*
X17437325Y-12607984D01*
X17437325Y-12607984D02*
X17456373Y-12598460D01*
X17456373Y-12598460D02*
X17465896Y-12579412D01*
X17465896Y-12579412D02*
X17465896Y-12569888D01*
X17465896Y-12569888D02*
X17456373Y-12550841D01*
X17456373Y-12550841D02*
X17437325Y-12541317D01*
X17437325Y-12541317D02*
X17408753Y-12541317D01*
X17408753Y-12541317D02*
X17389706Y-12531793D01*
X17389706Y-12531793D02*
X17380182Y-12512746D01*
X17380182Y-12512746D02*
X17380182Y-12503222D01*
X17380182Y-12503222D02*
X17389706Y-12484174D01*
X17389706Y-12484174D02*
X17408753Y-12474650D01*
X17408753Y-12474650D02*
X17437325Y-12474650D01*
X17437325Y-12474650D02*
X17456373Y-12484174D01*
X17532563Y-12684174D02*
X17542087Y-12674650D01*
X17542087Y-12674650D02*
X17561134Y-12646079D01*
X17561134Y-12646079D02*
X17570658Y-12627031D01*
X17570658Y-12627031D02*
X17580182Y-12598460D01*
X17580182Y-12598460D02*
X17589706Y-12550841D01*
X17589706Y-12550841D02*
X17589706Y-12512746D01*
X17589706Y-12512746D02*
X17580182Y-12465127D01*
X17580182Y-12465127D02*
X17570658Y-12436555D01*
X17570658Y-12436555D02*
X17561134Y-12417508D01*
X17561134Y-12417508D02*
X17542087Y-12388936D01*
X17542087Y-12388936D02*
X17532563Y-12379412D01*
X17894468Y-12684174D02*
X17884944Y-12674650D01*
X17884944Y-12674650D02*
X17865896Y-12646079D01*
X17865896Y-12646079D02*
X17856373Y-12627031D01*
X17856373Y-12627031D02*
X17846849Y-12598460D01*
X17846849Y-12598460D02*
X17837325Y-12550841D01*
X17837325Y-12550841D02*
X17837325Y-12512746D01*
X17837325Y-12512746D02*
X17846849Y-12465127D01*
X17846849Y-12465127D02*
X17856373Y-12436555D01*
X17856373Y-12436555D02*
X17865896Y-12417508D01*
X17865896Y-12417508D02*
X17884944Y-12388936D01*
X17884944Y-12388936D02*
X17894468Y-12379412D01*
X17970658Y-12474650D02*
X17970658Y-12607984D01*
X17970658Y-12493698D02*
X17980182Y-12484174D01*
X17980182Y-12484174D02*
X17999230Y-12474650D01*
X17999230Y-12474650D02*
X18027801Y-12474650D01*
X18027801Y-12474650D02*
X18046849Y-12484174D01*
X18046849Y-12484174D02*
X18056373Y-12503222D01*
X18056373Y-12503222D02*
X18056373Y-12607984D01*
X18180182Y-12607984D02*
X18161134Y-12598460D01*
X18161134Y-12598460D02*
X18151611Y-12588936D01*
X18151611Y-12588936D02*
X18142087Y-12569888D01*
X18142087Y-12569888D02*
X18142087Y-12512746D01*
X18142087Y-12512746D02*
X18151611Y-12493698D01*
X18151611Y-12493698D02*
X18161134Y-12484174D01*
X18161134Y-12484174D02*
X18180182Y-12474650D01*
X18180182Y-12474650D02*
X18208754Y-12474650D01*
X18208754Y-12474650D02*
X18227801Y-12484174D01*
X18227801Y-12484174D02*
X18237325Y-12493698D01*
X18237325Y-12493698D02*
X18246849Y-12512746D01*
X18246849Y-12512746D02*
X18246849Y-12569888D01*
X18246849Y-12569888D02*
X18237325Y-12588936D01*
X18237325Y-12588936D02*
X18227801Y-12598460D01*
X18227801Y-12598460D02*
X18208754Y-12607984D01*
X18208754Y-12607984D02*
X18180182Y-12607984D01*
X18303992Y-12474650D02*
X18380182Y-12474650D01*
X18332563Y-12407984D02*
X18332563Y-12579412D01*
X18332563Y-12579412D02*
X18342087Y-12598460D01*
X18342087Y-12598460D02*
X18361134Y-12607984D01*
X18361134Y-12607984D02*
X18380182Y-12607984D01*
X18599230Y-12474650D02*
X18599230Y-12674650D01*
X18599230Y-12484174D02*
X18618277Y-12474650D01*
X18618277Y-12474650D02*
X18656373Y-12474650D01*
X18656373Y-12474650D02*
X18675420Y-12484174D01*
X18675420Y-12484174D02*
X18684944Y-12493698D01*
X18684944Y-12493698D02*
X18694468Y-12512746D01*
X18694468Y-12512746D02*
X18694468Y-12569888D01*
X18694468Y-12569888D02*
X18684944Y-12588936D01*
X18684944Y-12588936D02*
X18675420Y-12598460D01*
X18675420Y-12598460D02*
X18656373Y-12607984D01*
X18656373Y-12607984D02*
X18618277Y-12607984D01*
X18618277Y-12607984D02*
X18599230Y-12598460D01*
X18808754Y-12607984D02*
X18789706Y-12598460D01*
X18789706Y-12598460D02*
X18780182Y-12579412D01*
X18780182Y-12579412D02*
X18780182Y-12407984D01*
X18970658Y-12607984D02*
X18970658Y-12503222D01*
X18970658Y-12503222D02*
X18961135Y-12484174D01*
X18961135Y-12484174D02*
X18942087Y-12474650D01*
X18942087Y-12474650D02*
X18903992Y-12474650D01*
X18903992Y-12474650D02*
X18884944Y-12484174D01*
X18970658Y-12598460D02*
X18951611Y-12607984D01*
X18951611Y-12607984D02*
X18903992Y-12607984D01*
X18903992Y-12607984D02*
X18884944Y-12598460D01*
X18884944Y-12598460D02*
X18875420Y-12579412D01*
X18875420Y-12579412D02*
X18875420Y-12560365D01*
X18875420Y-12560365D02*
X18884944Y-12541317D01*
X18884944Y-12541317D02*
X18903992Y-12531793D01*
X18903992Y-12531793D02*
X18951611Y-12531793D01*
X18951611Y-12531793D02*
X18970658Y-12522269D01*
X19037325Y-12474650D02*
X19113515Y-12474650D01*
X19065896Y-12407984D02*
X19065896Y-12579412D01*
X19065896Y-12579412D02*
X19075420Y-12598460D01*
X19075420Y-12598460D02*
X19094468Y-12607984D01*
X19094468Y-12607984D02*
X19113515Y-12607984D01*
X19256373Y-12598460D02*
X19237325Y-12607984D01*
X19237325Y-12607984D02*
X19199230Y-12607984D01*
X19199230Y-12607984D02*
X19180182Y-12598460D01*
X19180182Y-12598460D02*
X19170658Y-12579412D01*
X19170658Y-12579412D02*
X19170658Y-12503222D01*
X19170658Y-12503222D02*
X19180182Y-12484174D01*
X19180182Y-12484174D02*
X19199230Y-12474650D01*
X19199230Y-12474650D02*
X19237325Y-12474650D01*
X19237325Y-12474650D02*
X19256373Y-12484174D01*
X19256373Y-12484174D02*
X19265896Y-12503222D01*
X19265896Y-12503222D02*
X19265896Y-12522269D01*
X19265896Y-12522269D02*
X19170658Y-12541317D01*
X19437325Y-12607984D02*
X19437325Y-12407984D01*
X19437325Y-12598460D02*
X19418277Y-12607984D01*
X19418277Y-12607984D02*
X19380182Y-12607984D01*
X19380182Y-12607984D02*
X19361135Y-12598460D01*
X19361135Y-12598460D02*
X19351611Y-12588936D01*
X19351611Y-12588936D02*
X19342087Y-12569888D01*
X19342087Y-12569888D02*
X19342087Y-12512746D01*
X19342087Y-12512746D02*
X19351611Y-12493698D01*
X19351611Y-12493698D02*
X19361135Y-12484174D01*
X19361135Y-12484174D02*
X19380182Y-12474650D01*
X19380182Y-12474650D02*
X19418277Y-12474650D01*
X19418277Y-12474650D02*
X19437325Y-12484174D01*
X19513516Y-12684174D02*
X19523039Y-12674650D01*
X19523039Y-12674650D02*
X19542087Y-12646079D01*
X19542087Y-12646079D02*
X19551611Y-12627031D01*
X19551611Y-12627031D02*
X19561135Y-12598460D01*
X19561135Y-12598460D02*
X19570658Y-12550841D01*
X19570658Y-12550841D02*
X19570658Y-12512746D01*
X19570658Y-12512746D02*
X19561135Y-12465127D01*
X19561135Y-12465127D02*
X19551611Y-12436555D01*
X19551611Y-12436555D02*
X19542087Y-12417508D01*
X19542087Y-12417508D02*
X19523039Y-12388936D01*
X19523039Y-12388936D02*
X19513516Y-12379412D01*
M02*
