%TF.GenerationSoftware,KiCad,Pcbnew,8.0.3*%
%TF.CreationDate,2025-11-12T17:38:37-08:00*%
%TF.ProjectId,Capstone_Signal_Processing,43617073-746f-46e6-955f-5369676e616c,rev?*%
%TF.SameCoordinates,Original*%
%TF.FileFunction,Copper,L1,Top*%
%TF.FilePolarity,Positive*%
%FSLAX46Y46*%
G04 Gerber Fmt 4.6, Leading zero omitted, Abs format (unit mm)*
G04 Created by KiCad (PCBNEW 8.0.3) date 2025-11-12 17:38:37*
%MOMM*%
%LPD*%
G01*
G04 APERTURE LIST*
G04 Aperture macros list*
%AMRoundRect*
0 Rectangle with rounded corners*
0 $1 Rounding radius*
0 $2 $3 $4 $5 $6 $7 $8 $9 X,Y pos of 4 corners*
0 Add a 4 corners polygon primitive as box body*
4,1,4,$2,$3,$4,$5,$6,$7,$8,$9,$2,$3,0*
0 Add four circle primitives for the rounded corners*
1,1,$1+$1,$2,$3*
1,1,$1+$1,$4,$5*
1,1,$1+$1,$6,$7*
1,1,$1+$1,$8,$9*
0 Add four rect primitives between the rounded corners*
20,1,$1+$1,$2,$3,$4,$5,0*
20,1,$1+$1,$4,$5,$6,$7,0*
20,1,$1+$1,$6,$7,$8,$9,0*
20,1,$1+$1,$8,$9,$2,$3,0*%
G04 Aperture macros list end*
%TA.AperFunction,ComponentPad*%
%ADD10C,4.400000*%
%TD*%
%TA.AperFunction,SMDPad,CuDef*%
%ADD11RoundRect,0.250000X-0.475000X0.337500X-0.475000X-0.337500X0.475000X-0.337500X0.475000X0.337500X0*%
%TD*%
%TA.AperFunction,SMDPad,CuDef*%
%ADD12RoundRect,0.250000X-0.350000X-0.450000X0.350000X-0.450000X0.350000X0.450000X-0.350000X0.450000X0*%
%TD*%
%TA.AperFunction,ComponentPad*%
%ADD13RoundRect,0.250000X-0.600000X-0.725000X0.600000X-0.725000X0.600000X0.725000X-0.600000X0.725000X0*%
%TD*%
%TA.AperFunction,SMDPad,CuDef*%
%ADD14R,0.762000X0.254000*%
%TD*%
%TA.AperFunction,SMDPad,CuDef*%
%ADD15R,0.254000X0.762000*%
%TD*%
%TA.AperFunction,SMDPad,CuDef*%
%ADD16R,2.692400X4.699000*%
%TD*%
%TA.AperFunction,SMDPad,CuDef*%
%ADD17RoundRect,0.250000X0.475000X-0.337500X0.475000X0.337500X-0.475000X0.337500X-0.475000X-0.337500X0*%
%TD*%
%TA.AperFunction,ComponentPad*%
%ADD18O,1.700000X1.950000*%
%TD*%
%TA.AperFunction,ComponentPad*%
%ADD19RoundRect,0.250000X-0.750000X0.600000X-0.750000X-0.600000X0.750000X-0.600000X0.750000X0.600000X0*%
%TD*%
%TA.AperFunction,ComponentPad*%
%ADD20O,2.000000X1.700000*%
%TD*%
%TA.AperFunction,ViaPad*%
%ADD21C,0.600000*%
%TD*%
%TA.AperFunction,Conductor*%
%ADD22C,0.200000*%
%TD*%
%TA.AperFunction,Conductor*%
%ADD23C,0.300000*%
%TD*%
G04 APERTURE END LIST*
D10*
%TO.P,H1,1,1*%
%TO.N,GND*%
X130500000Y-82100000D03*
%TD*%
D11*
%TO.P,C3,1*%
%TO.N,+5V*%
X138800000Y-94800000D03*
%TO.P,C3,2*%
%TO.N,GND*%
X138800000Y-96875000D03*
%TD*%
D10*
%TO.P,H2,1,1*%
%TO.N,GND*%
X160200000Y-82100000D03*
%TD*%
D11*
%TO.P,C6,1*%
%TO.N,GND*%
X141700000Y-98900000D03*
%TO.P,C6,2*%
%TO.N,Net-(U1-REGCAP_A)*%
X141700000Y-100975000D03*
%TD*%
D12*
%TO.P,R2,1*%
%TO.N,+3.3V*%
X138400000Y-105000000D03*
%TO.P,R2,2*%
%TO.N,GND*%
X140400000Y-105000000D03*
%TD*%
D13*
%TO.P,J1,1,Pin_1*%
%TO.N,/CH_X*%
X138800000Y-84700000D03*
%TD*%
D14*
%TO.P,U1,1,AIN0*%
%TO.N,/CH_X*%
X145381500Y-96900000D03*
%TO.P,U1,2,REFIN+*%
%TO.N,unconnected-(U1-REFIN+-Pad2)*%
X145381500Y-97400002D03*
%TO.P,U1,3,REFIN-*%
%TO.N,unconnected-(U1-REFIN--Pad3)*%
X145381500Y-97900001D03*
%TO.P,U1,4,AVDD*%
%TO.N,+5V*%
X145381500Y-98400000D03*
%TO.P,U1,5,AVSS*%
%TO.N,GND*%
X145381500Y-98900001D03*
%TO.P,U1,6,REGCAP_A*%
%TO.N,Net-(U1-REGCAP_A)*%
X145381500Y-99400001D03*
%TO.P,U1,7,REFOUT*%
%TO.N,Net-(U1-REFOUT)*%
X145381500Y-99900002D03*
%TO.P,U1,8,DACOUT*%
%TO.N,unconnected-(U1-DACOUT-Pad8)*%
X145381500Y-100400001D03*
%TO.P,U1,9,GPIO0*%
%TO.N,unconnected-(U1-GPIO0-Pad9)*%
X145381500Y-100900000D03*
%TO.P,U1,10,GPIO1*%
%TO.N,unconnected-(U1-GPIO1-Pad10)*%
X145381500Y-101400002D03*
D15*
%TO.P,U1,11,\u002ASYNC_IN*%
%TO.N,unconnected-(U1-\u002ASYNC_IN-Pad11)*%
X146100000Y-102121801D03*
%TO.P,U1,12,SCLK*%
%TO.N,/SCLK*%
X146599999Y-102121801D03*
%TO.P,U1,13,\u002ACS*%
%TO.N,/CS*%
X147100000Y-102121801D03*
%TO.P,U1,14,SDO*%
%TO.N,/SDO*%
X147600000Y-102121801D03*
%TO.P,U1,15,SDI*%
%TO.N,/SDI*%
X148100001Y-102121801D03*
%TO.P,U1,16,XTAL2*%
%TO.N,unconnected-(U1-XTAL2-Pad16)*%
X148600000Y-102121801D03*
D14*
%TO.P,U1,17,XTAL1*%
%TO.N,unconnected-(U1-XTAL1-Pad17)*%
X149318500Y-101400002D03*
%TO.P,U1,18,DIG_AUX2*%
%TO.N,unconnected-(U1-DIG_AUX2-Pad18)*%
X149318500Y-100900000D03*
%TO.P,U1,19,DGND*%
%TO.N,GND*%
X149318500Y-100400001D03*
%TO.P,U1,20,IOVDD*%
%TO.N,+3.3V*%
X149318500Y-99900002D03*
%TO.P,U1,21,REGCAP_D*%
%TO.N,Net-(U1-REGCAP_D)*%
X149318500Y-99400001D03*
%TO.P,U1,22,DIG_AUX1*%
%TO.N,unconnected-(U1-DIG_AUX1-Pad22)*%
X149318500Y-98900001D03*
%TO.P,U1,23,GPIO2*%
%TO.N,unconnected-(U1-GPIO2-Pad23)*%
X149318500Y-98400000D03*
%TO.P,U1,24,GPIO3*%
%TO.N,unconnected-(U1-GPIO3-Pad24)*%
X149318500Y-97900001D03*
%TO.P,U1,25,AIN8*%
%TO.N,unconnected-(U1-AIN8-Pad25)*%
X149318500Y-97400002D03*
%TO.P,U1,26,AIN7*%
%TO.N,unconnected-(U1-AIN7-Pad26)*%
X149318500Y-96900000D03*
D15*
%TO.P,U1,27,AIN6*%
%TO.N,unconnected-(U1-AIN6-Pad27)*%
X148600000Y-96178201D03*
%TO.P,U1,28,AIN5*%
%TO.N,GND*%
X148100001Y-96178201D03*
%TO.P,U1,29,AIN4*%
%TO.N,/CH_Z*%
X147600000Y-96178201D03*
%TO.P,U1,30,AIN3*%
%TO.N,GND*%
X147100000Y-96178201D03*
%TO.P,U1,31,AIN2*%
%TO.N,/CH_Y*%
X146599999Y-96178201D03*
%TO.P,U1,32,AIN1*%
%TO.N,GND*%
X146100000Y-96178201D03*
D16*
%TO.P,U1,33,EPAD*%
X147350000Y-99150001D03*
%TD*%
D17*
%TO.P,C7,1*%
%TO.N,GND*%
X143800000Y-105337500D03*
%TO.P,C7,2*%
%TO.N,Net-(U1-REFOUT)*%
X143800000Y-103262500D03*
%TD*%
D13*
%TO.P,J3,1,Pin_1*%
%TO.N,/CH_Z*%
X154000000Y-84665000D03*
%TD*%
D10*
%TO.P,H3,1,1*%
%TO.N,GND*%
X130500000Y-113200000D03*
%TD*%
D12*
%TO.P,R1,1*%
%TO.N,+5V*%
X133400000Y-105000000D03*
%TO.P,R1,2*%
%TO.N,+3.3V*%
X135400000Y-105000000D03*
%TD*%
D11*
%TO.P,C4,1*%
%TO.N,+5V*%
X141700000Y-94800000D03*
%TO.P,C4,2*%
%TO.N,GND*%
X141700000Y-96875000D03*
%TD*%
%TO.P,C2,1*%
%TO.N,+3.3V*%
X155600000Y-100462500D03*
%TO.P,C2,2*%
%TO.N,GND*%
X155600000Y-102537500D03*
%TD*%
%TO.P,C5,1*%
%TO.N,GND*%
X138800000Y-98900000D03*
%TO.P,C5,2*%
%TO.N,Net-(U1-REGCAP_A)*%
X138800000Y-100975000D03*
%TD*%
%TO.P,C1,1*%
%TO.N,+3.3V*%
X152900000Y-100462500D03*
%TO.P,C1,2*%
%TO.N,GND*%
X152900000Y-102537500D03*
%TD*%
D17*
%TO.P,C9,1*%
%TO.N,Net-(U1-REGCAP_D)*%
X155600000Y-98200000D03*
%TO.P,C9,2*%
%TO.N,GND*%
X155600000Y-96125000D03*
%TD*%
%TO.P,C8,1*%
%TO.N,Net-(U1-REGCAP_D)*%
X152900000Y-98200000D03*
%TO.P,C8,2*%
%TO.N,GND*%
X152900000Y-96125000D03*
%TD*%
D13*
%TO.P,J4,1,Pin_1*%
%TO.N,/SCLK*%
X143100000Y-111100000D03*
D18*
%TO.P,J4,2,Pin_2*%
%TO.N,/CS*%
X145600000Y-111100000D03*
%TO.P,J4,3,Pin_3*%
%TO.N,/SDO*%
X148100000Y-111100000D03*
%TO.P,J4,4,Pin_4*%
%TO.N,/SDI*%
X150600000Y-111100000D03*
%TD*%
D13*
%TO.P,J2,1,Pin_1*%
%TO.N,/CH_Y*%
X146500000Y-84700000D03*
%TD*%
D19*
%TO.P,J5,1,Pin_1*%
%TO.N,+5V*%
X132600000Y-96300000D03*
D20*
%TO.P,J5,2,Pin_2*%
%TO.N,GND*%
X132600000Y-98800000D03*
%TD*%
D10*
%TO.P,H4,1,1*%
%TO.N,GND*%
X160200000Y-113200000D03*
%TD*%
D21*
%TO.N,GND*%
X160200000Y-110000000D03*
X130500000Y-110000000D03*
X130500000Y-85600000D03*
X136800000Y-98800000D03*
X151400000Y-96100000D03*
X147100000Y-93300000D03*
X136800000Y-96900000D03*
X157800000Y-99300000D03*
X160200000Y-85700000D03*
X145200000Y-95100000D03*
X142237500Y-105337500D03*
X149200000Y-95000000D03*
%TO.N,+3.3V*%
X151400000Y-100500000D03*
X141100000Y-107200000D03*
%TD*%
D22*
%TO.N,GND*%
X151375000Y-96125000D02*
X151325000Y-96125000D01*
D23*
X155600000Y-102537500D02*
X156362500Y-102537500D01*
X130500000Y-85600000D02*
X130500000Y-82100000D01*
X160200000Y-110000000D02*
X160200000Y-113200000D01*
X144599999Y-98900001D02*
X145381500Y-98900001D01*
X152900000Y-96125000D02*
X151425000Y-96125000D01*
X142237500Y-105337500D02*
X141900000Y-105000000D01*
D22*
X144599999Y-98900001D02*
X144599998Y-98900000D01*
X151325000Y-96125000D02*
X151300000Y-96100000D01*
X147350000Y-99150001D02*
X148600000Y-100400001D01*
D23*
X157800000Y-99300000D02*
X157800000Y-97500000D01*
X147100000Y-96178201D02*
X147100000Y-93300000D01*
X146100000Y-96178201D02*
X146100000Y-95100000D01*
X134500000Y-96900000D02*
X132600000Y-98800000D01*
X146100000Y-95100000D02*
X145200000Y-95100000D01*
D22*
X151400000Y-96100000D02*
X151375000Y-96125000D01*
X147100000Y-93300000D02*
X147100000Y-93400000D01*
X138800000Y-96875000D02*
X138775000Y-96900000D01*
D23*
X152237500Y-102537500D02*
X152900000Y-102537500D01*
X155600000Y-96125000D02*
X152900000Y-96125000D01*
X157800000Y-101100000D02*
X157800000Y-99300000D01*
D22*
X148600000Y-100400001D02*
X149318500Y-100400001D01*
D23*
X132600000Y-98800000D02*
X136800000Y-98800000D01*
X136800000Y-98800000D02*
X138700000Y-98800000D01*
X138775000Y-96900000D02*
X136800000Y-96900000D01*
X138700000Y-98800000D02*
X138800000Y-98900000D01*
X148100001Y-96178201D02*
X148100001Y-95000001D01*
X150100001Y-100400001D02*
X152237500Y-102537500D01*
X141700000Y-96875000D02*
X138800000Y-96875000D01*
X156425000Y-96125000D02*
X155600000Y-96125000D01*
X156362500Y-102537500D02*
X157800000Y-101100000D01*
D22*
X145381500Y-98900001D02*
X147100000Y-98900001D01*
D23*
X136800000Y-96900000D02*
X134500000Y-96900000D01*
X148100000Y-95000000D02*
X149200000Y-95000000D01*
X144599998Y-98900000D02*
X141700000Y-98900000D01*
X142237500Y-105337500D02*
X143800000Y-105337500D01*
X160200000Y-85700000D02*
X160200000Y-82100000D01*
X130500000Y-110000000D02*
X130500000Y-113200000D01*
X157800000Y-97500000D02*
X156425000Y-96125000D01*
D22*
X147100000Y-98900001D02*
X147350000Y-99150001D01*
D23*
X152900000Y-102537500D02*
X155600000Y-102537500D01*
X138800000Y-98900000D02*
X141700000Y-98900000D01*
D22*
X148100001Y-95000001D02*
X148100000Y-95000000D01*
X151425000Y-96125000D02*
X151400000Y-96100000D01*
D23*
X149318500Y-100400001D02*
X150100001Y-100400001D01*
X141900000Y-105000000D02*
X140400000Y-105000000D01*
%TO.N,+3.3V*%
X138400000Y-105000000D02*
X138400000Y-106100000D01*
X152862500Y-100500000D02*
X152900000Y-100462500D01*
X151400000Y-100500000D02*
X152862500Y-100500000D01*
X138400000Y-105000000D02*
X135400000Y-105000000D01*
X139500000Y-107200000D02*
X141100000Y-107200000D01*
X138400000Y-106100000D02*
X139500000Y-107200000D01*
X149318500Y-99900002D02*
X150800002Y-99900002D01*
X150800002Y-99900002D02*
X151400000Y-100500000D01*
X155600000Y-100462500D02*
X152900000Y-100462500D01*
%TO.N,+5V*%
X134100000Y-94800000D02*
X138800000Y-94800000D01*
X133400000Y-105000000D02*
X130600000Y-102200000D01*
X144200000Y-98400000D02*
X143200000Y-97400000D01*
X130600000Y-98300000D02*
X132600000Y-96300000D01*
X130600000Y-102200000D02*
X130600000Y-98300000D01*
X145381500Y-98400000D02*
X144200000Y-98400000D01*
X143200000Y-96300000D02*
X141700000Y-94800000D01*
X141700000Y-94800000D02*
X138800000Y-94800000D01*
X143200000Y-97400000D02*
X143200000Y-96300000D01*
X132600000Y-96300000D02*
X134100000Y-94800000D01*
%TO.N,Net-(U1-REGCAP_A)*%
X144300001Y-99400001D02*
X145381500Y-99400001D01*
D22*
X144300000Y-99400000D02*
X144300001Y-99400001D01*
D23*
X144100000Y-99400000D02*
X144300000Y-99400000D01*
X138800000Y-100975000D02*
X141700000Y-100975000D01*
X142525000Y-100975000D02*
X144100000Y-99400000D01*
X141700000Y-100975000D02*
X142525000Y-100975000D01*
%TO.N,Net-(U1-REFOUT)*%
X144400002Y-99900002D02*
X145381500Y-99900002D01*
X143800000Y-100500000D02*
X144400000Y-99900000D01*
D22*
X144400000Y-99900000D02*
X144400002Y-99900002D01*
D23*
X143800000Y-103262500D02*
X143800000Y-100500000D01*
%TO.N,Net-(U1-REGCAP_D)*%
X151600000Y-98200000D02*
X152900000Y-98200000D01*
X149318500Y-99400001D02*
X150399999Y-99400001D01*
X155600000Y-98200000D02*
X152900000Y-98200000D01*
X150399999Y-99400001D02*
X151600000Y-98200000D01*
%TO.N,/CH_X*%
X144100000Y-96600000D02*
X144100000Y-94100000D01*
X142500000Y-92500000D02*
X142500000Y-87000000D01*
X144100000Y-94100000D02*
X142500000Y-92500000D01*
X140200000Y-84700000D02*
X138800000Y-84700000D01*
X142500000Y-87000000D02*
X140200000Y-84700000D01*
X145381500Y-96900000D02*
X144400000Y-96900000D01*
X144400000Y-96900000D02*
X144100000Y-96600000D01*
%TO.N,/CH_Y*%
X146599999Y-94700001D02*
X146599999Y-96178201D01*
D22*
X146600000Y-94700000D02*
X146599999Y-94700001D01*
D23*
X146500000Y-84700000D02*
X144800000Y-86400000D01*
X144800000Y-86400000D02*
X144800000Y-92900000D01*
X144800000Y-92900000D02*
X146600000Y-94700000D01*
D22*
X146500000Y-84600000D02*
X146500000Y-84700000D01*
D23*
%TO.N,/CH_Z*%
X147600000Y-94700000D02*
X152100000Y-90200000D01*
X152100000Y-86565000D02*
X154000000Y-84665000D01*
X147600000Y-96178201D02*
X147600000Y-94700000D01*
X152100000Y-90200000D02*
X152100000Y-86565000D01*
%TO.N,/SCLK*%
X146599999Y-103500001D02*
X145100000Y-105000000D01*
X145100000Y-105000000D02*
X145100000Y-107400000D01*
X145100000Y-107400000D02*
X143100000Y-109400000D01*
X146599999Y-102121801D02*
X146599999Y-103500001D01*
X143100000Y-109400000D02*
X143100000Y-111100000D01*
%TO.N,/SDO*%
X147600000Y-102121801D02*
X147600000Y-105500000D01*
X148100000Y-106000000D02*
X148100000Y-111100000D01*
X147600000Y-105500000D02*
X148100000Y-106000000D01*
%TO.N,/SDI*%
X148100001Y-104000001D02*
X150600000Y-106500000D01*
X148100001Y-102121801D02*
X148100001Y-104000001D01*
X150600000Y-106500000D02*
X150600000Y-111100000D01*
%TO.N,/CS*%
X147100000Y-102121801D02*
X147100000Y-105300000D01*
X145600000Y-106800000D02*
X145600000Y-111100000D01*
X147100000Y-105300000D02*
X145600000Y-106800000D01*
%TD*%
M02*
